<mxfile host="app.diagrams.net" modified="2020-12-13T08:46:51.363Z" agent="5.0 (Windows NT 10.0; Win64; x64) AppleWebKit/537.36 (KHTML, like Gecko) Chrome/86.0.4240.111 Safari/537.36" etag="QFgCaegM8c0Ii9SiP7yl" version="14.0.1" type="github">
  <diagram id="X9sY0F-1RAL28JWJJWTt" name="Page-1">
    <mxGraphModel dx="2903" dy="1112" grid="1" gridSize="12" guides="1" tooltips="1" connect="1" arrows="1" fold="1" page="1" pageScale="1" pageWidth="827" pageHeight="1169" math="0" shadow="0">
      <root>
        <mxCell id="0" />
        <mxCell id="1" parent="0" />
        <mxCell id="-YN4Ai94tff_qJML-3Ey-2" value="自主物品交易平台" style="rounded=0;whiteSpace=wrap;html=1;fillColor=#00FFFF;fontSize=16;fontStyle=1" parent="1" vertex="1">
          <mxGeometry x="320" y="100" width="160" height="80" as="geometry" />
        </mxCell>
        <mxCell id="-YN4Ai94tff_qJML-3Ey-4" value="" style="triangle;whiteSpace=wrap;html=1;fillColor=none;gradientColor=none;rotation=-90;fontSize=16;fontStyle=1" parent="1" vertex="1">
          <mxGeometry x="385" y="230" width="34" height="40" as="geometry" />
        </mxCell>
        <mxCell id="-YN4Ai94tff_qJML-3Ey-5" value="" style="endArrow=none;html=1;exitX=1;exitY=0.5;exitDx=0;exitDy=0;entryX=0.5;entryY=1;entryDx=0;entryDy=0;fontSize=16;fontStyle=1" parent="1" source="-YN4Ai94tff_qJML-3Ey-4" target="-YN4Ai94tff_qJML-3Ey-2" edge="1">
          <mxGeometry width="50" height="50" relative="1" as="geometry">
            <mxPoint x="380" y="230" as="sourcePoint" />
            <mxPoint x="430" y="180" as="targetPoint" />
          </mxGeometry>
        </mxCell>
        <mxCell id="-YN4Ai94tff_qJML-3Ey-6" value="商品池广场" style="whiteSpace=wrap;html=1;gradientColor=none;fillColor=#33FFFF;fontSize=16;fontStyle=1" parent="1" vertex="1">
          <mxGeometry x="180" y="320" width="110" height="55" as="geometry" />
        </mxCell>
        <mxCell id="-YN4Ai94tff_qJML-3Ey-7" value="求购广场" style="whiteSpace=wrap;html=1;gradientColor=none;fillColor=#33FFFF;fontSize=16;fontStyle=1" parent="1" vertex="1">
          <mxGeometry x="530" y="310" width="110" height="55" as="geometry" />
        </mxCell>
        <mxCell id="-YN4Ai94tff_qJML-3Ey-8" value="" style="endArrow=none;html=1;exitX=0.5;exitY=0;exitDx=0;exitDy=0;entryX=0;entryY=0.25;entryDx=0;entryDy=0;fontSize=16;fontStyle=1" parent="1" source="-YN4Ai94tff_qJML-3Ey-6" target="-YN4Ai94tff_qJML-3Ey-4" edge="1">
          <mxGeometry width="50" height="50" relative="1" as="geometry">
            <mxPoint x="335" y="320" as="sourcePoint" />
            <mxPoint x="385" y="270" as="targetPoint" />
          </mxGeometry>
        </mxCell>
        <mxCell id="-YN4Ai94tff_qJML-3Ey-9" value="" style="endArrow=none;html=1;exitX=0.5;exitY=0;exitDx=0;exitDy=0;fontSize=16;fontStyle=1" parent="1" source="-YN4Ai94tff_qJML-3Ey-7" edge="1">
          <mxGeometry width="50" height="50" relative="1" as="geometry">
            <mxPoint x="360" y="520" as="sourcePoint" />
            <mxPoint x="410" y="267" as="targetPoint" />
          </mxGeometry>
        </mxCell>
        <mxCell id="-YN4Ai94tff_qJML-3Ey-10" value="用户" style="rounded=0;whiteSpace=wrap;html=1;fillColor=#33FFFF;fontSize=16;fontStyle=1" parent="1" vertex="1">
          <mxGeometry x="359" y="827.5" width="116" height="50" as="geometry" />
        </mxCell>
        <mxCell id="-YN4Ai94tff_qJML-3Ey-11" value="" style="triangle;whiteSpace=wrap;html=1;fillColor=none;gradientColor=none;rotation=90;fontSize=16;fontStyle=1" parent="1" vertex="1">
          <mxGeometry x="402.5" y="747.5" width="29" height="40" as="geometry" />
        </mxCell>
        <mxCell id="-YN4Ai94tff_qJML-3Ey-12" value="" style="endArrow=none;html=1;exitX=0.5;exitY=0;exitDx=0;exitDy=0;entryX=1;entryY=0.5;entryDx=0;entryDy=0;fontSize=16;fontStyle=1" parent="1" source="-YN4Ai94tff_qJML-3Ey-10" target="-YN4Ai94tff_qJML-3Ey-11" edge="1">
          <mxGeometry width="50" height="50" relative="1" as="geometry">
            <mxPoint x="470" y="740" as="sourcePoint" />
            <mxPoint x="520" y="690" as="targetPoint" />
          </mxGeometry>
        </mxCell>
        <mxCell id="-YN4Ai94tff_qJML-3Ey-13" value="求购方" style="whiteSpace=wrap;html=1;gradientColor=none;fillColor=#33FFFF;fontSize=16;fontStyle=1" parent="1" vertex="1">
          <mxGeometry x="280" y="600" width="90" height="40" as="geometry" />
        </mxCell>
        <mxCell id="-YN4Ai94tff_qJML-3Ey-14" value="出售方" style="whiteSpace=wrap;html=1;gradientColor=none;fillColor=#33FFFF;fontSize=16;fontStyle=1" parent="1" vertex="1">
          <mxGeometry x="-20" y="620" width="90" height="40" as="geometry" />
        </mxCell>
        <mxCell id="-YN4Ai94tff_qJML-3Ey-15" value="出售方" style="whiteSpace=wrap;html=1;gradientColor=none;fillColor=#33FFFF;fontSize=16;fontStyle=1" parent="1" vertex="1">
          <mxGeometry x="810" y="630" width="90" height="40" as="geometry" />
        </mxCell>
        <mxCell id="-YN4Ai94tff_qJML-3Ey-16" value="求购方" style="whiteSpace=wrap;html=1;gradientColor=none;fillColor=#33FFFF;fontSize=16;fontStyle=1" parent="1" vertex="1">
          <mxGeometry x="475" y="600" width="90" height="40" as="geometry" />
        </mxCell>
        <mxCell id="-YN4Ai94tff_qJML-3Ey-17" value="" style="endArrow=none;html=1;entryX=0.5;entryY=1;entryDx=0;entryDy=0;fontSize=16;fontStyle=1" parent="1" target="-YN4Ai94tff_qJML-3Ey-16" edge="1">
          <mxGeometry width="50" height="50" relative="1" as="geometry">
            <mxPoint x="417" y="753" as="sourcePoint" />
            <mxPoint x="520" y="690" as="targetPoint" />
          </mxGeometry>
        </mxCell>
        <mxCell id="-YN4Ai94tff_qJML-3Ey-18" value="" style="endArrow=none;html=1;entryX=0.5;entryY=1;entryDx=0;entryDy=0;fontSize=16;fontStyle=1" parent="1" target="-YN4Ai94tff_qJML-3Ey-13" edge="1">
          <mxGeometry width="50" height="50" relative="1" as="geometry">
            <mxPoint x="417" y="753" as="sourcePoint" />
            <mxPoint x="520" y="690" as="targetPoint" />
          </mxGeometry>
        </mxCell>
        <mxCell id="-YN4Ai94tff_qJML-3Ey-19" value="" style="endArrow=none;html=1;entryX=0.5;entryY=1;entryDx=0;entryDy=0;exitX=0;exitY=0.75;exitDx=0;exitDy=0;fontSize=16;fontStyle=1" parent="1" source="-YN4Ai94tff_qJML-3Ey-11" target="-YN4Ai94tff_qJML-3Ey-14" edge="1">
          <mxGeometry width="50" height="50" relative="1" as="geometry">
            <mxPoint x="427" y="763" as="sourcePoint" />
            <mxPoint x="335" y="700" as="targetPoint" />
          </mxGeometry>
        </mxCell>
        <mxCell id="-YN4Ai94tff_qJML-3Ey-20" value="" style="endArrow=none;html=1;entryX=0.5;entryY=1;entryDx=0;entryDy=0;exitX=0;exitY=0.25;exitDx=0;exitDy=0;fontSize=16;fontStyle=1" parent="1" source="-YN4Ai94tff_qJML-3Ey-11" target="-YN4Ai94tff_qJML-3Ey-15" edge="1">
          <mxGeometry width="50" height="50" relative="1" as="geometry">
            <mxPoint x="437" y="773" as="sourcePoint" />
            <mxPoint x="345" y="710" as="targetPoint" />
          </mxGeometry>
        </mxCell>
        <mxCell id="-YN4Ai94tff_qJML-3Ey-21" value="关键字搜索" style="rhombus;whiteSpace=wrap;html=1;gradientColor=none;fillColor=#FFD966;fontSize=16;fontStyle=1" parent="1" vertex="1">
          <mxGeometry x="200" y="490" width="100" height="74" as="geometry" />
        </mxCell>
        <mxCell id="-YN4Ai94tff_qJML-3Ey-23" value="m" style="endArrow=none;html=1;entryX=0.5;entryY=1;entryDx=0;entryDy=0;exitX=0.5;exitY=0;exitDx=0;exitDy=0;fontSize=16;fontStyle=1" parent="1" source="-YN4Ai94tff_qJML-3Ey-13" target="-YN4Ai94tff_qJML-3Ey-21" edge="1">
          <mxGeometry width="50" height="50" relative="1" as="geometry">
            <mxPoint x="300" y="630" as="sourcePoint" />
            <mxPoint x="350" y="580" as="targetPoint" />
          </mxGeometry>
        </mxCell>
        <mxCell id="-YN4Ai94tff_qJML-3Ey-24" value="n" style="endArrow=none;html=1;exitX=0.5;exitY=0;exitDx=0;exitDy=0;fontSize=16;fontStyle=1" parent="1" source="-YN4Ai94tff_qJML-3Ey-21" edge="1">
          <mxGeometry width="50" height="50" relative="1" as="geometry">
            <mxPoint x="230" y="425" as="sourcePoint" />
            <mxPoint x="235" y="375" as="targetPoint" />
          </mxGeometry>
        </mxCell>
        <mxCell id="-YN4Ai94tff_qJML-3Ey-25" value="过滤搜索" style="rhombus;whiteSpace=wrap;html=1;gradientColor=none;fillColor=#FFD966;fontSize=16;fontStyle=1" parent="1" vertex="1">
          <mxGeometry x="279" y="450" width="80" height="70" as="geometry" />
        </mxCell>
        <mxCell id="-YN4Ai94tff_qJML-3Ey-26" value="m" style="endArrow=none;html=1;entryX=0.5;entryY=1;entryDx=0;entryDy=0;exitX=0.5;exitY=0;exitDx=0;exitDy=0;fontSize=16;fontStyle=1" parent="1" source="-YN4Ai94tff_qJML-3Ey-13" target="-YN4Ai94tff_qJML-3Ey-25" edge="1">
          <mxGeometry width="50" height="50" relative="1" as="geometry">
            <mxPoint x="335" y="610" as="sourcePoint" />
            <mxPoint x="290" y="530" as="targetPoint" />
          </mxGeometry>
        </mxCell>
        <mxCell id="-YN4Ai94tff_qJML-3Ey-27" value="n" style="endArrow=none;html=1;exitX=0.5;exitY=0;exitDx=0;exitDy=0;entryX=0.5;entryY=1;entryDx=0;entryDy=0;fontSize=16;fontStyle=1" parent="1" source="-YN4Ai94tff_qJML-3Ey-25" target="-YN4Ai94tff_qJML-3Ey-6" edge="1">
          <mxGeometry width="50" height="50" relative="1" as="geometry">
            <mxPoint x="345" y="620" as="sourcePoint" />
            <mxPoint x="279" y="380" as="targetPoint" />
          </mxGeometry>
        </mxCell>
        <mxCell id="-YN4Ai94tff_qJML-3Ey-28" value="选择属性" style="ellipse;whiteSpace=wrap;html=1;gradientColor=none;fillColor=#CCFF99;fontSize=16;fontStyle=1" parent="1" vertex="1">
          <mxGeometry x="370" y="440" width="80" height="40" as="geometry" />
        </mxCell>
        <mxCell id="-YN4Ai94tff_qJML-3Ey-29" value="阈值" style="ellipse;whiteSpace=wrap;html=1;gradientColor=none;fillColor=#CCFF99;fontSize=16;fontStyle=1" parent="1" vertex="1">
          <mxGeometry x="374" y="490" width="80" height="40" as="geometry" />
        </mxCell>
        <mxCell id="-YN4Ai94tff_qJML-3Ey-30" value="" style="endArrow=none;html=1;entryX=0;entryY=0.5;entryDx=0;entryDy=0;exitX=1;exitY=0.5;exitDx=0;exitDy=0;fontSize=16;fontStyle=1" parent="1" source="-YN4Ai94tff_qJML-3Ey-25" target="-YN4Ai94tff_qJML-3Ey-28" edge="1">
          <mxGeometry width="50" height="50" relative="1" as="geometry">
            <mxPoint x="300" y="630" as="sourcePoint" />
            <mxPoint x="350" y="580" as="targetPoint" />
          </mxGeometry>
        </mxCell>
        <mxCell id="-YN4Ai94tff_qJML-3Ey-31" value="" style="endArrow=none;html=1;entryX=0;entryY=0.5;entryDx=0;entryDy=0;fontSize=16;fontStyle=1" parent="1" target="-YN4Ai94tff_qJML-3Ey-29" edge="1">
          <mxGeometry width="50" height="50" relative="1" as="geometry">
            <mxPoint x="360" y="486" as="sourcePoint" />
            <mxPoint x="350" y="580" as="targetPoint" />
          </mxGeometry>
        </mxCell>
        <mxCell id="-YN4Ai94tff_qJML-3Ey-32" value="关键字" style="ellipse;whiteSpace=wrap;html=1;gradientColor=none;fillColor=#CCFF99;fontSize=16;fontStyle=1" parent="1" vertex="1">
          <mxGeometry x="160" y="560" width="80" height="40" as="geometry" />
        </mxCell>
        <mxCell id="-YN4Ai94tff_qJML-3Ey-33" value="" style="endArrow=none;html=1;entryX=0;entryY=1;entryDx=0;entryDy=0;exitX=0.5;exitY=0;exitDx=0;exitDy=0;fontSize=16;fontStyle=1" parent="1" source="-YN4Ai94tff_qJML-3Ey-32" target="-YN4Ai94tff_qJML-3Ey-21" edge="1">
          <mxGeometry width="50" height="50" relative="1" as="geometry">
            <mxPoint x="180" y="550" as="sourcePoint" />
            <mxPoint x="230" y="500" as="targetPoint" />
          </mxGeometry>
        </mxCell>
        <mxCell id="-YN4Ai94tff_qJML-3Ey-34" value="交易次数" style="ellipse;whiteSpace=wrap;html=1;gradientColor=none;fillColor=#CCFF99;fontSize=16;fontStyle=1" parent="1" vertex="1">
          <mxGeometry x="450" y="990" width="80" height="40" as="geometry" />
        </mxCell>
        <mxCell id="-YN4Ai94tff_qJML-3Ey-35" value="信誉度" style="ellipse;whiteSpace=wrap;html=1;gradientColor=none;fillColor=#CCFF99;fontSize=16;fontStyle=1" parent="1" vertex="1">
          <mxGeometry x="385" y="950" width="80" height="40" as="geometry" />
        </mxCell>
        <mxCell id="-YN4Ai94tff_qJML-3Ey-36" value="用户名" style="ellipse;whiteSpace=wrap;html=1;gradientColor=none;fillColor=#CCFF99;fontSize=16;fontStyle=1" parent="1" vertex="1">
          <mxGeometry x="322.5" y="990" width="80" height="40" as="geometry" />
        </mxCell>
        <mxCell id="-YN4Ai94tff_qJML-3Ey-37" value="用户id" style="ellipse;whiteSpace=wrap;html=1;gradientColor=none;fillColor=#CCFF99;fontSize=16;fontStyle=1" parent="1" vertex="1">
          <mxGeometry x="290" y="940" width="80" height="40" as="geometry" />
        </mxCell>
        <mxCell id="-YN4Ai94tff_qJML-3Ey-40" value="在线天数" style="ellipse;whiteSpace=wrap;html=1;gradientColor=none;fillColor=#CCFF99;fontSize=16;fontStyle=1" parent="1" vertex="1">
          <mxGeometry x="490" y="950" width="80" height="40" as="geometry" />
        </mxCell>
        <mxCell id="-YN4Ai94tff_qJML-3Ey-42" value="详细信息介绍" style="ellipse;whiteSpace=wrap;html=1;gradientColor=none;fillColor=#CCFF99;fontSize=16;fontStyle=1" parent="1" vertex="1">
          <mxGeometry x="580" y="960" width="80" height="40" as="geometry" />
        </mxCell>
        <mxCell id="-YN4Ai94tff_qJML-3Ey-43" value="好/差评数" style="ellipse;whiteSpace=wrap;html=1;gradientColor=none;fillColor=#CCFF99;fontSize=16;fontStyle=1" parent="1" vertex="1">
          <mxGeometry x="200" y="960" width="80" height="40" as="geometry" />
        </mxCell>
        <mxCell id="-YN4Ai94tff_qJML-3Ey-44" value="" style="endArrow=none;html=1;strokeColor=#000000;entryX=0.5;entryY=1;entryDx=0;entryDy=0;exitX=0.5;exitY=0;exitDx=0;exitDy=0;fontSize=16;fontStyle=1" parent="1" source="-YN4Ai94tff_qJML-3Ey-43" target="-YN4Ai94tff_qJML-3Ey-10" edge="1">
          <mxGeometry width="50" height="50" relative="1" as="geometry">
            <mxPoint x="510" y="850" as="sourcePoint" />
            <mxPoint x="560" y="800" as="targetPoint" />
          </mxGeometry>
        </mxCell>
        <mxCell id="-YN4Ai94tff_qJML-3Ey-46" value="" style="endArrow=none;html=1;strokeColor=#000000;exitX=0.5;exitY=0;exitDx=0;exitDy=0;entryX=0.5;entryY=1;entryDx=0;entryDy=0;fontSize=16;fontStyle=1" parent="1" source="-YN4Ai94tff_qJML-3Ey-37" target="-YN4Ai94tff_qJML-3Ey-10" edge="1">
          <mxGeometry width="50" height="50" relative="1" as="geometry">
            <mxPoint x="220" y="940" as="sourcePoint" />
            <mxPoint x="420" y="870" as="targetPoint" />
          </mxGeometry>
        </mxCell>
        <mxCell id="-YN4Ai94tff_qJML-3Ey-47" value="" style="endArrow=none;html=1;strokeColor=#000000;exitX=0.5;exitY=0;exitDx=0;exitDy=0;entryX=0.5;entryY=1;entryDx=0;entryDy=0;fontSize=16;fontStyle=1" parent="1" source="-YN4Ai94tff_qJML-3Ey-36" target="-YN4Ai94tff_qJML-3Ey-10" edge="1">
          <mxGeometry width="50" height="50" relative="1" as="geometry">
            <mxPoint x="230" y="950" as="sourcePoint" />
            <mxPoint x="420" y="870" as="targetPoint" />
          </mxGeometry>
        </mxCell>
        <mxCell id="-YN4Ai94tff_qJML-3Ey-48" value="" style="endArrow=none;html=1;strokeColor=#000000;entryX=0.5;entryY=1;entryDx=0;entryDy=0;exitX=0.5;exitY=0;exitDx=0;exitDy=0;fontSize=16;fontStyle=1" parent="1" source="-YN4Ai94tff_qJML-3Ey-35" target="-YN4Ai94tff_qJML-3Ey-10" edge="1">
          <mxGeometry width="50" height="50" relative="1" as="geometry">
            <mxPoint x="240" y="960" as="sourcePoint" />
            <mxPoint x="447" y="900" as="targetPoint" />
          </mxGeometry>
        </mxCell>
        <mxCell id="-YN4Ai94tff_qJML-3Ey-49" value="" style="endArrow=none;html=1;strokeColor=#000000;entryX=0.5;entryY=1;entryDx=0;entryDy=0;exitX=0.5;exitY=0;exitDx=0;exitDy=0;fontSize=16;fontStyle=1" parent="1" source="-YN4Ai94tff_qJML-3Ey-34" target="-YN4Ai94tff_qJML-3Ey-10" edge="1">
          <mxGeometry width="50" height="50" relative="1" as="geometry">
            <mxPoint x="250" y="970" as="sourcePoint" />
            <mxPoint x="457" y="910" as="targetPoint" />
          </mxGeometry>
        </mxCell>
        <mxCell id="-YN4Ai94tff_qJML-3Ey-50" value="" style="endArrow=none;html=1;strokeColor=#000000;entryX=0.5;entryY=0;entryDx=0;entryDy=0;exitX=0.5;exitY=1;exitDx=0;exitDy=0;fontSize=16;fontStyle=1" parent="1" source="-YN4Ai94tff_qJML-3Ey-10" target="-YN4Ai94tff_qJML-3Ey-40" edge="1">
          <mxGeometry width="50" height="50" relative="1" as="geometry">
            <mxPoint x="260" y="980" as="sourcePoint" />
            <mxPoint x="467" y="920" as="targetPoint" />
          </mxGeometry>
        </mxCell>
        <mxCell id="-YN4Ai94tff_qJML-3Ey-51" value="" style="endArrow=none;html=1;strokeColor=#000000;exitX=0.5;exitY=0;exitDx=0;exitDy=0;entryX=0.5;entryY=1;entryDx=0;entryDy=0;fontSize=16;fontStyle=1" parent="1" source="-YN4Ai94tff_qJML-3Ey-42" target="-YN4Ai94tff_qJML-3Ey-10" edge="1">
          <mxGeometry width="50" height="50" relative="1" as="geometry">
            <mxPoint x="270" y="990" as="sourcePoint" />
            <mxPoint x="530" y="860" as="targetPoint" />
          </mxGeometry>
        </mxCell>
        <mxCell id="-YN4Ai94tff_qJML-3Ey-55" value="发布出售" style="rhombus;whiteSpace=wrap;html=1;fillColor=#FFD966;fontSize=16;fontStyle=1" parent="1" vertex="1">
          <mxGeometry x="20" y="450" width="80" height="80" as="geometry" />
        </mxCell>
        <mxCell id="-YN4Ai94tff_qJML-3Ey-56" value="1" style="endArrow=none;html=1;strokeColor=#000000;exitX=0.5;exitY=0;exitDx=0;exitDy=0;entryX=0.5;entryY=1;entryDx=0;entryDy=0;fontSize=16;fontStyle=1" parent="1" source="-YN4Ai94tff_qJML-3Ey-14" target="-YN4Ai94tff_qJML-3Ey-55" edge="1">
          <mxGeometry width="50" height="50" relative="1" as="geometry">
            <mxPoint x="210" y="440" as="sourcePoint" />
            <mxPoint x="260" y="390" as="targetPoint" />
          </mxGeometry>
        </mxCell>
        <mxCell id="-YN4Ai94tff_qJML-3Ey-57" value="n" style="endArrow=none;html=1;strokeColor=#000000;exitX=1;exitY=0;exitDx=0;exitDy=0;entryX=0.5;entryY=1;entryDx=0;entryDy=0;fontSize=16;fontStyle=1" parent="1" source="-YN4Ai94tff_qJML-3Ey-55" target="-YN4Ai94tff_qJML-3Ey-6" edge="1">
          <mxGeometry width="50" height="50" relative="1" as="geometry">
            <mxPoint x="60" y="470" as="sourcePoint" />
            <mxPoint x="260" y="390" as="targetPoint" />
          </mxGeometry>
        </mxCell>
        <mxCell id="-YN4Ai94tff_qJML-3Ey-58" value="所属类别" style="ellipse;whiteSpace=wrap;html=1;gradientColor=none;fillColor=#CCFF99;fontSize=16;fontStyle=1" parent="1" vertex="1">
          <mxGeometry x="-30" y="300" width="80" height="40" as="geometry" />
        </mxCell>
        <mxCell id="-YN4Ai94tff_qJML-3Ey-59" value="" style="endArrow=none;html=1;entryX=0;entryY=0.75;entryDx=0;entryDy=0;exitX=0.5;exitY=1;exitDx=0;exitDy=0;fontSize=16;fontStyle=1" parent="1" source="-YN4Ai94tff_qJML-3Ey-58" target="-YN4Ai94tff_qJML-3Ey-6" edge="1">
          <mxGeometry width="50" height="50" relative="1" as="geometry">
            <mxPoint x="190" y="560" as="sourcePoint" />
            <mxPoint x="210" y="522.5" as="targetPoint" />
          </mxGeometry>
        </mxCell>
        <mxCell id="-YN4Ai94tff_qJML-3Ey-61" value="商品名" style="ellipse;whiteSpace=wrap;html=1;gradientColor=none;fillColor=#CCFF99;fontSize=16;fontStyle=1" parent="1" vertex="1">
          <mxGeometry x="-40" y="365" width="80" height="40" as="geometry" />
        </mxCell>
        <mxCell id="-YN4Ai94tff_qJML-3Ey-62" value="价格" style="ellipse;whiteSpace=wrap;html=1;gradientColor=none;fillColor=#CCFF99;fontSize=16;fontStyle=1" parent="1" vertex="1">
          <mxGeometry x="70" y="220" width="80" height="40" as="geometry" />
        </mxCell>
        <mxCell id="-YN4Ai94tff_qJML-3Ey-63" value="商品唯一id" style="ellipse;whiteSpace=wrap;html=1;gradientColor=none;fillColor=#CCFF99;fontSize=16;fontStyle=1" parent="1" vertex="1">
          <mxGeometry x="-100" y="460" width="88" height="40" as="geometry" />
        </mxCell>
        <mxCell id="u84uTU3_PnqZZj9lyCrB-1" value="发布时间" style="ellipse;whiteSpace=wrap;html=1;gradientColor=none;fillColor=#CCFF99;fontSize=16;fontStyle=1" vertex="1" parent="1">
          <mxGeometry x="-90" y="510" width="80" height="40" as="geometry" />
        </mxCell>
        <mxCell id="u84uTU3_PnqZZj9lyCrB-4" value="详细描述" style="ellipse;whiteSpace=wrap;html=1;gradientColor=none;fillColor=#CCFF99;fontSize=16;fontStyle=1" vertex="1" parent="1">
          <mxGeometry x="20" y="260" width="80" height="40" as="geometry" />
        </mxCell>
        <mxCell id="u84uTU3_PnqZZj9lyCrB-5" value="" style="endArrow=none;html=1;exitX=0.5;exitY=1;exitDx=0;exitDy=0;entryX=0;entryY=0.75;entryDx=0;entryDy=0;fontSize=16;fontStyle=1" edge="1" parent="1" source="-YN4Ai94tff_qJML-3Ey-62" target="-YN4Ai94tff_qJML-3Ey-6">
          <mxGeometry width="50" height="50" relative="1" as="geometry">
            <mxPoint x="-70" y="470" as="sourcePoint" />
            <mxPoint x="20" y="490" as="targetPoint" />
          </mxGeometry>
        </mxCell>
        <mxCell id="u84uTU3_PnqZZj9lyCrB-6" value="" style="endArrow=none;html=1;exitX=0.5;exitY=1;exitDx=0;exitDy=0;entryX=0;entryY=0.75;entryDx=0;entryDy=0;fontSize=16;fontStyle=1" edge="1" parent="1" source="u84uTU3_PnqZZj9lyCrB-4" target="-YN4Ai94tff_qJML-3Ey-6">
          <mxGeometry width="50" height="50" relative="1" as="geometry">
            <mxPoint x="-60" y="480" as="sourcePoint" />
            <mxPoint x="180" y="350" as="targetPoint" />
          </mxGeometry>
        </mxCell>
        <mxCell id="u84uTU3_PnqZZj9lyCrB-11" value="" style="endArrow=none;html=1;exitX=1;exitY=0;exitDx=0;exitDy=0;entryX=0;entryY=0.5;entryDx=0;entryDy=0;fontSize=16;fontStyle=1" edge="1" parent="1" source="-YN4Ai94tff_qJML-3Ey-63" target="-YN4Ai94tff_qJML-3Ey-55">
          <mxGeometry width="50" height="50" relative="1" as="geometry">
            <mxPoint x="-20" y="505" as="sourcePoint" />
            <mxPoint x="30" y="500" as="targetPoint" />
          </mxGeometry>
        </mxCell>
        <mxCell id="u84uTU3_PnqZZj9lyCrB-12" value="" style="endArrow=none;html=1;exitX=1;exitY=0;exitDx=0;exitDy=0;entryX=0;entryY=0.5;entryDx=0;entryDy=0;fontSize=16;fontStyle=1" edge="1" parent="1" source="u84uTU3_PnqZZj9lyCrB-1" target="-YN4Ai94tff_qJML-3Ey-55">
          <mxGeometry width="50" height="50" relative="1" as="geometry">
            <mxPoint x="-1.7157287525378706" y="545.8578643762689" as="sourcePoint" />
            <mxPoint x="20" y="490" as="targetPoint" />
          </mxGeometry>
        </mxCell>
        <mxCell id="u84uTU3_PnqZZj9lyCrB-16" value="" style="endArrow=none;html=1;strokeColor=#000000;entryX=0.5;entryY=1;entryDx=0;entryDy=0;exitX=0.5;exitY=0;exitDx=0;exitDy=0;fontSize=16;fontStyle=1" edge="1" parent="1" source="u84uTU3_PnqZZj9lyCrB-14" target="-YN4Ai94tff_qJML-3Ey-13">
          <mxGeometry width="50" height="50" relative="1" as="geometry">
            <mxPoint x="229" y="680" as="sourcePoint" />
            <mxPoint x="279" y="630" as="targetPoint" />
          </mxGeometry>
        </mxCell>
        <mxCell id="u84uTU3_PnqZZj9lyCrB-19" value="出售方id" style="ellipse;whiteSpace=wrap;html=1;gradientColor=none;fillColor=#CCFF99;fontSize=16;fontStyle=1" vertex="1" parent="1">
          <mxGeometry x="-80" y="700" width="80" height="40" as="geometry" />
        </mxCell>
        <mxCell id="u84uTU3_PnqZZj9lyCrB-21" value="" style="endArrow=none;html=1;strokeColor=#000000;entryX=0.5;entryY=1;entryDx=0;entryDy=0;exitX=0.5;exitY=0;exitDx=0;exitDy=0;fontSize=16;fontStyle=1" edge="1" parent="1" source="u84uTU3_PnqZZj9lyCrB-19" target="-YN4Ai94tff_qJML-3Ey-14">
          <mxGeometry width="50" height="50" relative="1" as="geometry">
            <mxPoint x="-51.71572875253787" y="655.8578643762689" as="sourcePoint" />
            <mxPoint x="-10" y="620" as="targetPoint" />
          </mxGeometry>
        </mxCell>
        <mxCell id="u84uTU3_PnqZZj9lyCrB-22" value="商品交易" style="rhombus;whiteSpace=wrap;html=1;fillColor=#FFD966;fontSize=16;fontStyle=1" vertex="1" parent="1">
          <mxGeometry x="40" y="690" width="80" height="80" as="geometry" />
        </mxCell>
        <mxCell id="u84uTU3_PnqZZj9lyCrB-23" value="n" style="endArrow=none;html=1;strokeColor=#000000;exitX=0;exitY=0.5;exitDx=0;exitDy=0;entryX=0.5;entryY=1;entryDx=0;entryDy=0;fontSize=16;fontStyle=1" edge="1" parent="1" source="u84uTU3_PnqZZj9lyCrB-22" target="-YN4Ai94tff_qJML-3Ey-14">
          <mxGeometry width="50" height="50" relative="1" as="geometry">
            <mxPoint x="145" y="650" as="sourcePoint" />
            <mxPoint x="195" y="600" as="targetPoint" />
          </mxGeometry>
        </mxCell>
        <mxCell id="u84uTU3_PnqZZj9lyCrB-24" value="" style="endArrow=none;html=1;strokeColor=#000000;entryX=0.5;entryY=1;entryDx=0;entryDy=0;exitX=1;exitY=0.5;exitDx=0;exitDy=0;fontSize=16;fontStyle=1" edge="1" parent="1" source="u84uTU3_PnqZZj9lyCrB-22" target="-YN4Ai94tff_qJML-3Ey-13">
          <mxGeometry width="50" height="50" relative="1" as="geometry">
            <mxPoint x="240" y="787.5" as="sourcePoint" />
            <mxPoint x="290" y="737.5" as="targetPoint" />
          </mxGeometry>
        </mxCell>
        <mxCell id="u84uTU3_PnqZZj9lyCrB-150" value="1" style="edgeLabel;html=1;align=center;verticalAlign=middle;resizable=0;points=[];fontSize=16;" vertex="1" connectable="0" parent="u84uTU3_PnqZZj9lyCrB-24">
          <mxGeometry x="-0.4961" y="-3" relative="1" as="geometry">
            <mxPoint x="1" as="offset" />
          </mxGeometry>
        </mxCell>
        <mxCell id="u84uTU3_PnqZZj9lyCrB-154" value="n" style="edgeLabel;html=1;align=center;verticalAlign=middle;resizable=0;points=[];fontSize=16;" vertex="1" connectable="0" parent="u84uTU3_PnqZZj9lyCrB-24">
          <mxGeometry x="-0.5524" y="-3" relative="1" as="geometry">
            <mxPoint as="offset" />
          </mxGeometry>
        </mxCell>
        <mxCell id="u84uTU3_PnqZZj9lyCrB-14" value="出售方id" style="ellipse;whiteSpace=wrap;html=1;gradientColor=none;fillColor=#CCFF99;fontSize=16;fontStyle=1" vertex="1" parent="1">
          <mxGeometry x="264" y="670" width="80" height="40" as="geometry" />
        </mxCell>
        <mxCell id="u84uTU3_PnqZZj9lyCrB-25" value="m" style="endArrow=none;html=1;strokeColor=#000000;entryX=0.5;entryY=1;entryDx=0;entryDy=0;exitX=0.5;exitY=0;exitDx=0;exitDy=0;fontSize=16;fontStyle=1" edge="1" parent="1" source="u84uTU3_PnqZZj9lyCrB-22" target="-YN4Ai94tff_qJML-3Ey-6">
          <mxGeometry width="50" height="50" relative="1" as="geometry">
            <mxPoint x="240" y="650" as="sourcePoint" />
            <mxPoint x="290" y="600" as="targetPoint" />
          </mxGeometry>
        </mxCell>
        <mxCell id="u84uTU3_PnqZZj9lyCrB-149" value="1" style="edgeLabel;html=1;align=center;verticalAlign=middle;resizable=0;points=[];fontSize=16;" vertex="1" connectable="0" parent="u84uTU3_PnqZZj9lyCrB-25">
          <mxGeometry x="-0.2455" y="-3" relative="1" as="geometry">
            <mxPoint x="19.03" y="-45.89" as="offset" />
          </mxGeometry>
        </mxCell>
        <mxCell id="u84uTU3_PnqZZj9lyCrB-26" style="edgeStyle=orthogonalEdgeStyle;rounded=0;orthogonalLoop=1;jettySize=auto;html=1;exitX=0.5;exitY=1;exitDx=0;exitDy=0;strokeColor=#000000;fontSize=16;fontStyle=1" edge="1" parent="1" source="-YN4Ai94tff_qJML-3Ey-32" target="-YN4Ai94tff_qJML-3Ey-32">
          <mxGeometry relative="1" as="geometry" />
        </mxCell>
        <mxCell id="u84uTU3_PnqZZj9lyCrB-30" value="评价" style="rhombus;whiteSpace=wrap;html=1;fillColor=#FFD966;fontSize=16;fontStyle=1" vertex="1" parent="1">
          <mxGeometry x="150" y="610" width="70" height="60" as="geometry" />
        </mxCell>
        <mxCell id="u84uTU3_PnqZZj9lyCrB-31" value="m" style="endArrow=none;html=1;strokeColor=#000000;exitX=1;exitY=0.5;exitDx=0;exitDy=0;entryX=0;entryY=0.5;entryDx=0;entryDy=0;fontSize=16;fontStyle=1" edge="1" parent="1" source="-YN4Ai94tff_qJML-3Ey-14" target="u84uTU3_PnqZZj9lyCrB-30">
          <mxGeometry width="50" height="50" relative="1" as="geometry">
            <mxPoint x="250" y="650" as="sourcePoint" />
            <mxPoint x="300" y="600" as="targetPoint" />
          </mxGeometry>
        </mxCell>
        <mxCell id="u84uTU3_PnqZZj9lyCrB-32" value="n" style="endArrow=none;html=1;strokeColor=#000000;exitX=1;exitY=0.5;exitDx=0;exitDy=0;entryX=0;entryY=0.5;entryDx=0;entryDy=0;fontSize=16;fontStyle=1" edge="1" parent="1" source="u84uTU3_PnqZZj9lyCrB-30" target="-YN4Ai94tff_qJML-3Ey-13">
          <mxGeometry width="50" height="50" relative="1" as="geometry">
            <mxPoint x="80" y="650" as="sourcePoint" />
            <mxPoint x="150" y="650" as="targetPoint" />
          </mxGeometry>
        </mxCell>
        <mxCell id="u84uTU3_PnqZZj9lyCrB-33" value="出售者" style="ellipse;whiteSpace=wrap;html=1;gradientColor=none;fillColor=#CCFF99;fontSize=16;fontStyle=1" vertex="1" parent="1">
          <mxGeometry y="827.5" width="80" height="40" as="geometry" />
        </mxCell>
        <mxCell id="u84uTU3_PnqZZj9lyCrB-34" value="求购者" style="ellipse;whiteSpace=wrap;html=1;gradientColor=none;fillColor=#CCFF99;fontSize=16;fontStyle=1" vertex="1" parent="1">
          <mxGeometry x="90" y="827.5" width="80" height="40" as="geometry" />
        </mxCell>
        <mxCell id="u84uTU3_PnqZZj9lyCrB-35" value="商品id" style="ellipse;whiteSpace=wrap;html=1;gradientColor=none;fillColor=#CCFF99;fontSize=16;fontStyle=1" vertex="1" parent="1">
          <mxGeometry x="145" y="787.5" width="80" height="40" as="geometry" />
        </mxCell>
        <mxCell id="u84uTU3_PnqZZj9lyCrB-37" value="交易时间" style="ellipse;whiteSpace=wrap;html=1;gradientColor=none;fillColor=#CCFF99;fontSize=16;fontStyle=1" vertex="1" parent="1">
          <mxGeometry x="-60" y="790" width="80" height="40" as="geometry" />
        </mxCell>
        <mxCell id="u84uTU3_PnqZZj9lyCrB-38" value="" style="endArrow=none;html=1;strokeColor=#000000;exitX=0.5;exitY=0;exitDx=0;exitDy=0;entryX=0.5;entryY=1;entryDx=0;entryDy=0;fontSize=16;fontStyle=1" edge="1" parent="1" source="u84uTU3_PnqZZj9lyCrB-37" target="u84uTU3_PnqZZj9lyCrB-22">
          <mxGeometry width="50" height="50" relative="1" as="geometry">
            <mxPoint x="250" y="650" as="sourcePoint" />
            <mxPoint x="300" y="600" as="targetPoint" />
          </mxGeometry>
        </mxCell>
        <mxCell id="u84uTU3_PnqZZj9lyCrB-41" value="" style="endArrow=none;html=1;strokeColor=#000000;exitX=0.5;exitY=0;exitDx=0;exitDy=0;entryX=0.5;entryY=1;entryDx=0;entryDy=0;fontSize=16;fontStyle=1" edge="1" parent="1" source="u84uTU3_PnqZZj9lyCrB-33" target="u84uTU3_PnqZZj9lyCrB-22">
          <mxGeometry width="50" height="50" relative="1" as="geometry">
            <mxPoint x="-30" y="820" as="sourcePoint" />
            <mxPoint x="90" y="780" as="targetPoint" />
          </mxGeometry>
        </mxCell>
        <mxCell id="u84uTU3_PnqZZj9lyCrB-42" value="" style="endArrow=none;html=1;strokeColor=#000000;exitX=0.5;exitY=0;exitDx=0;exitDy=0;entryX=0.5;entryY=1;entryDx=0;entryDy=0;fontSize=16;fontStyle=1" edge="1" parent="1" source="u84uTU3_PnqZZj9lyCrB-34" target="u84uTU3_PnqZZj9lyCrB-22">
          <mxGeometry width="50" height="50" relative="1" as="geometry">
            <mxPoint x="-20" y="830" as="sourcePoint" />
            <mxPoint x="100" y="790" as="targetPoint" />
          </mxGeometry>
        </mxCell>
        <mxCell id="u84uTU3_PnqZZj9lyCrB-43" value="" style="endArrow=none;html=1;strokeColor=#000000;exitX=0.5;exitY=0;exitDx=0;exitDy=0;entryX=0.5;entryY=1;entryDx=0;entryDy=0;fontSize=16;fontStyle=1" edge="1" parent="1" source="u84uTU3_PnqZZj9lyCrB-35" target="u84uTU3_PnqZZj9lyCrB-22">
          <mxGeometry width="50" height="50" relative="1" as="geometry">
            <mxPoint x="-10" y="840" as="sourcePoint" />
            <mxPoint x="110" y="800" as="targetPoint" />
          </mxGeometry>
        </mxCell>
        <mxCell id="u84uTU3_PnqZZj9lyCrB-46" value="" style="endArrow=none;html=1;entryX=0;entryY=0.75;entryDx=0;entryDy=0;exitX=1;exitY=0.5;exitDx=0;exitDy=0;fontSize=16;fontStyle=1" edge="1" parent="1" source="-YN4Ai94tff_qJML-3Ey-61" target="-YN4Ai94tff_qJML-3Ey-6">
          <mxGeometry width="50" height="50" relative="1" as="geometry">
            <mxPoint x="20" y="350" as="sourcePoint" />
            <mxPoint x="190" y="371.25" as="targetPoint" />
          </mxGeometry>
        </mxCell>
        <mxCell id="u84uTU3_PnqZZj9lyCrB-47" value="评价" style="rhombus;whiteSpace=wrap;html=1;fillColor=#FFD966;fontSize=16;fontStyle=1" vertex="1" parent="1">
          <mxGeometry x="630" y="630" width="70" height="60" as="geometry" />
        </mxCell>
        <mxCell id="u84uTU3_PnqZZj9lyCrB-49" value="n" style="endArrow=none;html=1;entryX=1;entryY=0.5;entryDx=0;entryDy=0;exitX=0;exitY=0.5;exitDx=0;exitDy=0;fontSize=16;fontStyle=1" edge="1" parent="1" source="u84uTU3_PnqZZj9lyCrB-47" target="-YN4Ai94tff_qJML-3Ey-16">
          <mxGeometry width="50" height="50" relative="1" as="geometry">
            <mxPoint x="335" y="610" as="sourcePoint" />
            <mxPoint x="329" y="530" as="targetPoint" />
          </mxGeometry>
        </mxCell>
        <mxCell id="u84uTU3_PnqZZj9lyCrB-50" value="m" style="endArrow=none;html=1;entryX=0;entryY=0.5;entryDx=0;entryDy=0;exitX=1;exitY=0.5;exitDx=0;exitDy=0;fontSize=16;fontStyle=1" edge="1" parent="1" source="u84uTU3_PnqZZj9lyCrB-47" target="-YN4Ai94tff_qJML-3Ey-15">
          <mxGeometry width="50" height="50" relative="1" as="geometry">
            <mxPoint x="345" y="620" as="sourcePoint" />
            <mxPoint x="339" y="540" as="targetPoint" />
          </mxGeometry>
        </mxCell>
        <mxCell id="u84uTU3_PnqZZj9lyCrB-51" value="发布需求" style="rhombus;whiteSpace=wrap;html=1;gradientColor=none;fillColor=#FFD966;fontSize=16;fontStyle=1" vertex="1" parent="1">
          <mxGeometry x="490" y="440" width="80" height="70" as="geometry" />
        </mxCell>
        <mxCell id="u84uTU3_PnqZZj9lyCrB-52" value="" style="endArrow=none;html=1;strokeColor=#000000;exitX=0.5;exitY=0;exitDx=0;exitDy=0;entryX=0.5;entryY=1;entryDx=0;entryDy=0;fontSize=16;fontStyle=1" edge="1" parent="1" source="-YN4Ai94tff_qJML-3Ey-16" target="u84uTU3_PnqZZj9lyCrB-51">
          <mxGeometry width="50" height="50" relative="1" as="geometry">
            <mxPoint x="535" y="610" as="sourcePoint" />
            <mxPoint x="570" y="520" as="targetPoint" />
          </mxGeometry>
        </mxCell>
        <mxCell id="u84uTU3_PnqZZj9lyCrB-151" value="n" style="edgeLabel;html=1;align=center;verticalAlign=middle;resizable=0;points=[];fontSize=16;" vertex="1" connectable="0" parent="u84uTU3_PnqZZj9lyCrB-52">
          <mxGeometry x="0.501" y="1" relative="1" as="geometry">
            <mxPoint as="offset" />
          </mxGeometry>
        </mxCell>
        <mxCell id="u84uTU3_PnqZZj9lyCrB-53" value="m" style="endArrow=none;html=1;strokeColor=#000000;exitX=0.5;exitY=0;exitDx=0;exitDy=0;entryX=0.5;entryY=1;entryDx=0;entryDy=0;fontSize=16;fontStyle=1" edge="1" parent="1" source="u84uTU3_PnqZZj9lyCrB-51" target="-YN4Ai94tff_qJML-3Ey-7">
          <mxGeometry width="50" height="50" relative="1" as="geometry">
            <mxPoint x="560" y="440" as="sourcePoint" />
            <mxPoint x="595" y="350" as="targetPoint" />
          </mxGeometry>
        </mxCell>
        <mxCell id="u84uTU3_PnqZZj9lyCrB-60" value="求购反馈" style="whiteSpace=wrap;html=1;gradientColor=none;fillColor=#33FFFF;fontSize=16;fontStyle=1" vertex="1" parent="1">
          <mxGeometry x="650" y="490" width="100" height="47.5" as="geometry" />
        </mxCell>
        <mxCell id="u84uTU3_PnqZZj9lyCrB-61" value="" style="endArrow=none;html=1;strokeColor=#000000;entryX=0.5;entryY=1;entryDx=0;entryDy=0;fontSize=16;fontStyle=1" edge="1" parent="1" source="u84uTU3_PnqZZj9lyCrB-62" target="-YN4Ai94tff_qJML-3Ey-7">
          <mxGeometry width="50" height="50" relative="1" as="geometry">
            <mxPoint x="540" y="450" as="sourcePoint" />
            <mxPoint x="595" y="375" as="targetPoint" />
          </mxGeometry>
        </mxCell>
        <mxCell id="u84uTU3_PnqZZj9lyCrB-152" value="m" style="edgeLabel;html=1;align=center;verticalAlign=middle;resizable=0;points=[];fontSize=16;" vertex="1" connectable="0" parent="u84uTU3_PnqZZj9lyCrB-61">
          <mxGeometry x="0.2474" relative="1" as="geometry">
            <mxPoint x="-1" y="-1" as="offset" />
          </mxGeometry>
        </mxCell>
        <mxCell id="u84uTU3_PnqZZj9lyCrB-62" value="查看需求" style="rhombus;whiteSpace=wrap;html=1;gradientColor=none;fillColor=#FFD966;fontSize=16;fontStyle=1" vertex="1" parent="1">
          <mxGeometry x="880" y="400" width="80" height="70" as="geometry" />
        </mxCell>
        <mxCell id="u84uTU3_PnqZZj9lyCrB-65" value="n" style="endArrow=none;html=1;strokeColor=#000000;entryX=0.5;entryY=0;entryDx=0;entryDy=0;exitX=0.5;exitY=1;exitDx=0;exitDy=0;fontSize=16;fontStyle=1" edge="1" parent="1" source="u84uTU3_PnqZZj9lyCrB-62" target="-YN4Ai94tff_qJML-3Ey-15">
          <mxGeometry width="50" height="50" relative="1" as="geometry">
            <mxPoint x="755.6921633036131" y="465.76935710933833" as="sourcePoint" />
            <mxPoint x="595" y="375" as="targetPoint" />
            <Array as="points">
              <mxPoint x="888" y="540" />
            </Array>
          </mxGeometry>
        </mxCell>
        <mxCell id="u84uTU3_PnqZZj9lyCrB-67" value="发布时间" style="ellipse;whiteSpace=wrap;html=1;gradientColor=none;fillColor=#CCFF99;fontSize=16;fontStyle=1" vertex="1" parent="1">
          <mxGeometry x="560" y="405" width="80" height="40" as="geometry" />
        </mxCell>
        <mxCell id="u84uTU3_PnqZZj9lyCrB-69" value="" style="endArrow=none;html=1;strokeColor=#000000;entryX=0;entryY=0.5;entryDx=0;entryDy=0;exitX=1;exitY=0;exitDx=0;exitDy=0;fontSize=16;fontStyle=1" edge="1" parent="1" source="u84uTU3_PnqZZj9lyCrB-51" target="u84uTU3_PnqZZj9lyCrB-67">
          <mxGeometry width="50" height="50" relative="1" as="geometry">
            <mxPoint x="620" y="460" as="sourcePoint" />
            <mxPoint x="670" y="410" as="targetPoint" />
          </mxGeometry>
        </mxCell>
        <mxCell id="u84uTU3_PnqZZj9lyCrB-70" value="求购者id" style="ellipse;whiteSpace=wrap;html=1;gradientColor=none;fillColor=#CCFF99;fontSize=16;fontStyle=1" vertex="1" parent="1">
          <mxGeometry x="590" y="445" width="80" height="40" as="geometry" />
        </mxCell>
        <mxCell id="u84uTU3_PnqZZj9lyCrB-72" value="" style="endArrow=none;html=1;strokeColor=#000000;entryX=1;entryY=0.5;entryDx=0;entryDy=0;exitX=0;exitY=0.5;exitDx=0;exitDy=0;fontSize=16;fontStyle=1" edge="1" parent="1" source="u84uTU3_PnqZZj9lyCrB-70" target="u84uTU3_PnqZZj9lyCrB-51">
          <mxGeometry width="50" height="50" relative="1" as="geometry">
            <mxPoint x="620" y="460" as="sourcePoint" />
            <mxPoint x="670" y="410" as="targetPoint" />
          </mxGeometry>
        </mxCell>
        <mxCell id="u84uTU3_PnqZZj9lyCrB-73" value="求购物品" style="ellipse;whiteSpace=wrap;html=1;gradientColor=none;fillColor=#CCFF99;fontSize=16;fontStyle=1" vertex="1" parent="1">
          <mxGeometry x="690" y="220" width="80" height="40" as="geometry" />
        </mxCell>
        <mxCell id="u84uTU3_PnqZZj9lyCrB-74" value="" style="endArrow=none;html=1;strokeColor=#000000;entryX=0;entryY=0.5;entryDx=0;entryDy=0;exitX=1;exitY=0.5;exitDx=0;exitDy=0;fontSize=16;fontStyle=1" edge="1" parent="1" target="u84uTU3_PnqZZj9lyCrB-73" source="-YN4Ai94tff_qJML-3Ey-7">
          <mxGeometry width="50" height="50" relative="1" as="geometry">
            <mxPoint x="580" y="280" as="sourcePoint" />
            <mxPoint x="745" y="230" as="targetPoint" />
          </mxGeometry>
        </mxCell>
        <mxCell id="u84uTU3_PnqZZj9lyCrB-76" value="物品详细描述" style="ellipse;whiteSpace=wrap;html=1;gradientColor=none;fillColor=#CCFF99;fontSize=16;fontStyle=1" vertex="1" parent="1">
          <mxGeometry x="725" y="280" width="80" height="40" as="geometry" />
        </mxCell>
        <mxCell id="u84uTU3_PnqZZj9lyCrB-77" value="" style="endArrow=none;html=1;strokeColor=#000000;entryX=0;entryY=0.5;entryDx=0;entryDy=0;exitX=1;exitY=0.5;exitDx=0;exitDy=0;fontSize=16;fontStyle=1" edge="1" parent="1" source="-YN4Ai94tff_qJML-3Ey-7" target="u84uTU3_PnqZZj9lyCrB-76">
          <mxGeometry width="50" height="50" relative="1" as="geometry">
            <mxPoint x="620" y="460" as="sourcePoint" />
            <mxPoint x="670" y="410" as="targetPoint" />
          </mxGeometry>
        </mxCell>
        <mxCell id="u84uTU3_PnqZZj9lyCrB-78" value="所属种类" style="ellipse;whiteSpace=wrap;html=1;gradientColor=none;fillColor=#CCFF99;fontSize=16;fontStyle=1" vertex="1" parent="1">
          <mxGeometry x="747" y="340" width="80" height="40" as="geometry" />
        </mxCell>
        <mxCell id="u84uTU3_PnqZZj9lyCrB-79" value="" style="endArrow=none;html=1;strokeColor=#000000;entryX=0;entryY=0.5;entryDx=0;entryDy=0;exitX=1;exitY=0.5;exitDx=0;exitDy=0;fontSize=16;fontStyle=1" edge="1" parent="1" source="-YN4Ai94tff_qJML-3Ey-7" target="u84uTU3_PnqZZj9lyCrB-78">
          <mxGeometry width="50" height="50" relative="1" as="geometry">
            <mxPoint x="640" y="340" as="sourcePoint" />
            <mxPoint x="690" y="320" as="targetPoint" />
          </mxGeometry>
        </mxCell>
        <mxCell id="u84uTU3_PnqZZj9lyCrB-80" value="" style="endArrow=none;html=1;entryX=0.25;entryY=0;entryDx=0;entryDy=0;exitX=1;exitY=1;exitDx=0;exitDy=0;fontSize=16;fontStyle=1" edge="1" parent="1" source="u84uTU3_PnqZZj9lyCrB-84" target="-YN4Ai94tff_qJML-3Ey-15">
          <mxGeometry width="50" height="50" relative="1" as="geometry">
            <mxPoint x="770" y="610" as="sourcePoint" />
            <mxPoint x="780" y="680" as="targetPoint" />
          </mxGeometry>
        </mxCell>
        <mxCell id="u84uTU3_PnqZZj9lyCrB-84" value="发送" style="rhombus;whiteSpace=wrap;html=1;gradientColor=none;fillColor=#FFD966;fontSize=16;fontStyle=1" vertex="1" parent="1">
          <mxGeometry x="730" y="560" width="70" height="60" as="geometry" />
        </mxCell>
        <mxCell id="u84uTU3_PnqZZj9lyCrB-85" value="" style="endArrow=none;html=1;entryX=0;entryY=0;entryDx=0;entryDy=0;exitX=0.5;exitY=1;exitDx=0;exitDy=0;fontSize=16;fontStyle=1" edge="1" parent="1" source="u84uTU3_PnqZZj9lyCrB-60" target="u84uTU3_PnqZZj9lyCrB-84">
          <mxGeometry width="50" height="50" relative="1" as="geometry">
            <mxPoint x="772.5" y="625" as="sourcePoint" />
            <mxPoint x="802.5" y="660" as="targetPoint" />
          </mxGeometry>
        </mxCell>
        <mxCell id="u84uTU3_PnqZZj9lyCrB-87" value="挑选" style="rhombus;whiteSpace=wrap;html=1;fillColor=#FFD966;fontSize=16;fontStyle=1" vertex="1" parent="1">
          <mxGeometry x="590" y="550" width="70" height="60" as="geometry" />
        </mxCell>
        <mxCell id="u84uTU3_PnqZZj9lyCrB-88" value="1" style="endArrow=none;html=1;entryX=0;entryY=1;entryDx=0;entryDy=0;exitX=1;exitY=0.5;exitDx=0;exitDy=0;fontSize=16;fontStyle=1" edge="1" parent="1" source="-YN4Ai94tff_qJML-3Ey-16" target="u84uTU3_PnqZZj9lyCrB-87">
          <mxGeometry width="50" height="50" relative="1" as="geometry">
            <mxPoint x="640" y="660" as="sourcePoint" />
            <mxPoint x="575" y="630" as="targetPoint" />
          </mxGeometry>
        </mxCell>
        <mxCell id="u84uTU3_PnqZZj9lyCrB-90" value="n" style="endArrow=none;html=1;entryX=1;entryY=0;entryDx=0;entryDy=0;exitX=0.5;exitY=1;exitDx=0;exitDy=0;fontSize=16;fontStyle=1" edge="1" parent="1" source="u84uTU3_PnqZZj9lyCrB-60" target="u84uTU3_PnqZZj9lyCrB-87">
          <mxGeometry width="50" height="50" relative="1" as="geometry">
            <mxPoint x="650" y="670" as="sourcePoint" />
            <mxPoint x="585" y="640" as="targetPoint" />
          </mxGeometry>
        </mxCell>
        <mxCell id="u84uTU3_PnqZZj9lyCrB-91" value="商品交易" style="rhombus;whiteSpace=wrap;html=1;fillColor=#FFD966;fontSize=16;fontStyle=1" vertex="1" parent="1">
          <mxGeometry x="680" y="700" width="80" height="80" as="geometry" />
        </mxCell>
        <mxCell id="u84uTU3_PnqZZj9lyCrB-92" value="n" style="endArrow=none;html=1;entryX=0.5;entryY=1;entryDx=0;entryDy=0;exitX=0;exitY=0.5;exitDx=0;exitDy=0;fontSize=16;fontStyle=1" edge="1" parent="1" source="u84uTU3_PnqZZj9lyCrB-91" target="-YN4Ai94tff_qJML-3Ey-16">
          <mxGeometry width="50" height="50" relative="1" as="geometry">
            <mxPoint x="620" y="660" as="sourcePoint" />
            <mxPoint x="575" y="630" as="targetPoint" />
          </mxGeometry>
        </mxCell>
        <mxCell id="u84uTU3_PnqZZj9lyCrB-93" value="m" style="endArrow=none;html=1;entryX=0.5;entryY=1;entryDx=0;entryDy=0;exitX=0.5;exitY=0;exitDx=0;exitDy=0;fontSize=16;fontStyle=1" edge="1" parent="1" source="u84uTU3_PnqZZj9lyCrB-91" target="u84uTU3_PnqZZj9lyCrB-60">
          <mxGeometry width="50" height="50" relative="1" as="geometry">
            <mxPoint x="630" y="670" as="sourcePoint" />
            <mxPoint x="585" y="640" as="targetPoint" />
          </mxGeometry>
        </mxCell>
        <mxCell id="u84uTU3_PnqZZj9lyCrB-94" value="n" style="endArrow=none;html=1;entryX=1;entryY=0.5;entryDx=0;entryDy=0;exitX=0.5;exitY=1;exitDx=0;exitDy=0;fontSize=16;fontStyle=1" edge="1" parent="1" source="-YN4Ai94tff_qJML-3Ey-15" target="u84uTU3_PnqZZj9lyCrB-91">
          <mxGeometry width="50" height="50" relative="1" as="geometry">
            <mxPoint x="640" y="680" as="sourcePoint" />
            <mxPoint x="595" y="650" as="targetPoint" />
          </mxGeometry>
        </mxCell>
        <mxCell id="u84uTU3_PnqZZj9lyCrB-96" value="反馈物品描述" style="ellipse;whiteSpace=wrap;html=1;gradientColor=none;fillColor=#CCFF99;fontSize=16;fontStyle=1" vertex="1" parent="1">
          <mxGeometry x="700" y="410" width="108" height="50" as="geometry" />
        </mxCell>
        <mxCell id="u84uTU3_PnqZZj9lyCrB-97" value="反馈物品价格" style="ellipse;whiteSpace=wrap;html=1;gradientColor=none;fillColor=#CCFF99;fontSize=16;fontStyle=1" vertex="1" parent="1">
          <mxGeometry x="780" y="465" width="80" height="40" as="geometry" />
        </mxCell>
        <mxCell id="u84uTU3_PnqZZj9lyCrB-98" value="出售方id" style="ellipse;whiteSpace=wrap;html=1;gradientColor=none;fillColor=#CCFF99;fontSize=16;fontStyle=1" vertex="1" parent="1">
          <mxGeometry x="770" y="510" width="80" height="40" as="geometry" />
        </mxCell>
        <mxCell id="u84uTU3_PnqZZj9lyCrB-101" value="" style="endArrow=none;html=1;strokeColor=#000000;exitX=1;exitY=0.25;exitDx=0;exitDy=0;entryX=0;entryY=0.5;entryDx=0;entryDy=0;fontSize=16;fontStyle=1" edge="1" parent="1" source="u84uTU3_PnqZZj9lyCrB-60" target="u84uTU3_PnqZZj9lyCrB-97">
          <mxGeometry width="50" height="50" relative="1" as="geometry">
            <mxPoint x="710" y="500" as="sourcePoint" />
            <mxPoint x="780" y="502" as="targetPoint" />
          </mxGeometry>
        </mxCell>
        <mxCell id="u84uTU3_PnqZZj9lyCrB-104" value="" style="endArrow=none;html=1;strokeColor=#000000;entryX=0.5;entryY=1;entryDx=0;entryDy=0;exitX=1;exitY=0.25;exitDx=0;exitDy=0;fontSize=16;fontStyle=1" edge="1" parent="1" source="u84uTU3_PnqZZj9lyCrB-60" target="u84uTU3_PnqZZj9lyCrB-96">
          <mxGeometry width="50" height="50" relative="1" as="geometry">
            <mxPoint x="750" y="500" as="sourcePoint" />
            <mxPoint x="760" y="470" as="targetPoint" />
          </mxGeometry>
        </mxCell>
        <mxCell id="u84uTU3_PnqZZj9lyCrB-105" value="" style="endArrow=none;html=1;strokeColor=#000000;entryX=0;entryY=0.5;entryDx=0;entryDy=0;exitX=1;exitY=0.25;exitDx=0;exitDy=0;fontSize=16;fontStyle=1" edge="1" parent="1" source="u84uTU3_PnqZZj9lyCrB-60" target="u84uTU3_PnqZZj9lyCrB-98">
          <mxGeometry width="50" height="50" relative="1" as="geometry">
            <mxPoint x="720" y="520" as="sourcePoint" />
            <mxPoint x="600" y="410" as="targetPoint" />
          </mxGeometry>
        </mxCell>
        <mxCell id="u84uTU3_PnqZZj9lyCrB-109" value="出售者" style="ellipse;whiteSpace=wrap;html=1;gradientColor=none;fillColor=#CCFF99;fontSize=16;fontStyle=1" vertex="1" parent="1">
          <mxGeometry x="640" y="837.5" width="80" height="40" as="geometry" />
        </mxCell>
        <mxCell id="u84uTU3_PnqZZj9lyCrB-110" value="求购者" style="ellipse;whiteSpace=wrap;html=1;gradientColor=none;fillColor=#CCFF99;fontSize=16;fontStyle=1" vertex="1" parent="1">
          <mxGeometry x="730" y="837.5" width="80" height="40" as="geometry" />
        </mxCell>
        <mxCell id="u84uTU3_PnqZZj9lyCrB-111" value="商品id" style="ellipse;whiteSpace=wrap;html=1;gradientColor=none;fillColor=#CCFF99;fontSize=16;fontStyle=1" vertex="1" parent="1">
          <mxGeometry x="785" y="797.5" width="80" height="40" as="geometry" />
        </mxCell>
        <mxCell id="u84uTU3_PnqZZj9lyCrB-112" value="交易时间" style="ellipse;whiteSpace=wrap;html=1;gradientColor=none;fillColor=#CCFF99;fontSize=16;fontStyle=1" vertex="1" parent="1">
          <mxGeometry x="580" y="800" width="80" height="40" as="geometry" />
        </mxCell>
        <mxCell id="u84uTU3_PnqZZj9lyCrB-113" value="" style="endArrow=none;html=1;strokeColor=#000000;exitX=0.5;exitY=0;exitDx=0;exitDy=0;entryX=0.5;entryY=1;entryDx=0;entryDy=0;fontSize=16;fontStyle=1" edge="1" parent="1" source="u84uTU3_PnqZZj9lyCrB-112">
          <mxGeometry width="50" height="50" relative="1" as="geometry">
            <mxPoint x="890" y="660" as="sourcePoint" />
            <mxPoint x="720" y="780" as="targetPoint" />
          </mxGeometry>
        </mxCell>
        <mxCell id="u84uTU3_PnqZZj9lyCrB-114" value="" style="endArrow=none;html=1;strokeColor=#000000;exitX=0.5;exitY=0;exitDx=0;exitDy=0;entryX=0.5;entryY=1;entryDx=0;entryDy=0;fontSize=16;fontStyle=1" edge="1" parent="1" source="u84uTU3_PnqZZj9lyCrB-109">
          <mxGeometry width="50" height="50" relative="1" as="geometry">
            <mxPoint x="610" y="830" as="sourcePoint" />
            <mxPoint x="720" y="780" as="targetPoint" />
          </mxGeometry>
        </mxCell>
        <mxCell id="u84uTU3_PnqZZj9lyCrB-115" value="" style="endArrow=none;html=1;strokeColor=#000000;exitX=0.5;exitY=0;exitDx=0;exitDy=0;entryX=0.5;entryY=1;entryDx=0;entryDy=0;fontSize=16;fontStyle=1" edge="1" parent="1" source="u84uTU3_PnqZZj9lyCrB-110">
          <mxGeometry width="50" height="50" relative="1" as="geometry">
            <mxPoint x="620" y="840" as="sourcePoint" />
            <mxPoint x="720" y="780" as="targetPoint" />
          </mxGeometry>
        </mxCell>
        <mxCell id="u84uTU3_PnqZZj9lyCrB-116" value="" style="endArrow=none;html=1;strokeColor=#000000;exitX=0.5;exitY=0;exitDx=0;exitDy=0;entryX=0.5;entryY=1;entryDx=0;entryDy=0;fontSize=16;fontStyle=1" edge="1" parent="1" source="u84uTU3_PnqZZj9lyCrB-111">
          <mxGeometry width="50" height="50" relative="1" as="geometry">
            <mxPoint x="630" y="850" as="sourcePoint" />
            <mxPoint x="720" y="780" as="targetPoint" />
          </mxGeometry>
        </mxCell>
        <mxCell id="u84uTU3_PnqZZj9lyCrB-117" value="系统管理员" style="whiteSpace=wrap;html=1;gradientColor=none;fillColor=#33FFFF;fontSize=16;fontStyle=1" vertex="1" parent="1">
          <mxGeometry x="925" y="110" width="150" height="80" as="geometry" />
        </mxCell>
        <mxCell id="u84uTU3_PnqZZj9lyCrB-118" value="1" style="endArrow=none;html=1;strokeColor=#000000;entryX=0;entryY=0.5;entryDx=0;entryDy=0;exitX=1;exitY=0.5;exitDx=0;exitDy=0;fontSize=16;fontStyle=1" edge="1" parent="1" source="u84uTU3_PnqZZj9lyCrB-119" target="u84uTU3_PnqZZj9lyCrB-117">
          <mxGeometry width="50" height="50" relative="1" as="geometry">
            <mxPoint x="660" y="155" as="sourcePoint" />
            <mxPoint x="640" as="targetPoint" />
            <Array as="points">
              <mxPoint x="810" y="140" />
            </Array>
          </mxGeometry>
        </mxCell>
        <mxCell id="u84uTU3_PnqZZj9lyCrB-119" value="监管" style="rhombus;whiteSpace=wrap;html=1;gradientColor=none;fillColor=#FFD966;fontSize=16;fontStyle=1" vertex="1" parent="1">
          <mxGeometry x="615" y="100" width="85" height="80" as="geometry" />
        </mxCell>
        <mxCell id="u84uTU3_PnqZZj9lyCrB-120" value="n" style="endArrow=none;html=1;strokeColor=#000000;entryX=1;entryY=0.5;entryDx=0;entryDy=0;exitX=0;exitY=0.5;exitDx=0;exitDy=0;fontSize=16;fontStyle=1" edge="1" parent="1" source="u84uTU3_PnqZZj9lyCrB-119" target="-YN4Ai94tff_qJML-3Ey-2">
          <mxGeometry width="50" height="50" relative="1" as="geometry">
            <mxPoint x="570" y="155" as="sourcePoint" />
            <mxPoint x="791.25" y="165" as="targetPoint" />
          </mxGeometry>
        </mxCell>
        <mxCell id="u84uTU3_PnqZZj9lyCrB-121" value="" style="endArrow=none;html=1;strokeColor=#000000;entryX=0;entryY=0.75;entryDx=0;entryDy=0;fontSize=16;fontStyle=1" edge="1" parent="1" target="-YN4Ai94tff_qJML-3Ey-10">
          <mxGeometry width="50" height="50" relative="1" as="geometry">
            <mxPoint x="-160" y="900" as="sourcePoint" />
            <mxPoint x="290" y="610" as="targetPoint" />
          </mxGeometry>
        </mxCell>
        <mxCell id="u84uTU3_PnqZZj9lyCrB-122" value="" style="endArrow=none;html=1;strokeColor=#000000;entryX=0.5;entryY=1;entryDx=0;entryDy=0;exitX=0.5;exitY=0;exitDx=0;exitDy=0;fontSize=16;fontStyle=1" edge="1" parent="1" source="u84uTU3_PnqZZj9lyCrB-136" target="u84uTU3_PnqZZj9lyCrB-117">
          <mxGeometry width="50" height="50" relative="1" as="geometry">
            <mxPoint x="1050" y="440" as="sourcePoint" />
            <mxPoint x="1090" y="300" as="targetPoint" />
          </mxGeometry>
        </mxCell>
        <mxCell id="u84uTU3_PnqZZj9lyCrB-140" value="1" style="edgeLabel;html=1;align=center;verticalAlign=middle;resizable=0;points=[];fontSize=16;fontStyle=1" vertex="1" connectable="0" parent="u84uTU3_PnqZZj9lyCrB-122">
          <mxGeometry x="0.2218" y="3" relative="1" as="geometry">
            <mxPoint as="offset" />
          </mxGeometry>
        </mxCell>
        <mxCell id="u84uTU3_PnqZZj9lyCrB-124" value="" style="endArrow=none;html=1;strokeColor=#000000;fontSize=16;fontStyle=1" edge="1" parent="1">
          <mxGeometry width="50" height="50" relative="1" as="geometry">
            <mxPoint x="-160" y="900" as="sourcePoint" />
            <mxPoint x="-160" y="160" as="targetPoint" />
          </mxGeometry>
        </mxCell>
        <mxCell id="u84uTU3_PnqZZj9lyCrB-153" value="1" style="edgeLabel;html=1;align=center;verticalAlign=middle;resizable=0;points=[];fontSize=16;" vertex="1" connectable="0" parent="u84uTU3_PnqZZj9lyCrB-124">
          <mxGeometry x="0.1665" y="-1" relative="1" as="geometry">
            <mxPoint as="offset" />
          </mxGeometry>
        </mxCell>
        <mxCell id="u84uTU3_PnqZZj9lyCrB-125" value="登录" style="rhombus;whiteSpace=wrap;html=1;gradientColor=none;fillColor=#FFD966;fontSize=16;fontStyle=1" vertex="1" parent="1">
          <mxGeometry x="10" y="120" width="80" height="70" as="geometry" />
        </mxCell>
        <mxCell id="u84uTU3_PnqZZj9lyCrB-126" value="" style="endArrow=none;html=1;strokeColor=#000000;entryX=0;entryY=0.5;entryDx=0;entryDy=0;fontSize=16;fontStyle=1" edge="1" parent="1" target="u84uTU3_PnqZZj9lyCrB-125">
          <mxGeometry width="50" height="50" relative="1" as="geometry">
            <mxPoint x="-160" y="160" as="sourcePoint" />
            <mxPoint x="290" y="130" as="targetPoint" />
          </mxGeometry>
        </mxCell>
        <mxCell id="u84uTU3_PnqZZj9lyCrB-127" value="1" style="endArrow=none;html=1;strokeColor=#000000;entryX=0;entryY=0.5;entryDx=0;entryDy=0;exitX=1;exitY=0.5;exitDx=0;exitDy=0;fontSize=16;fontStyle=1" edge="1" parent="1" source="u84uTU3_PnqZZj9lyCrB-125" target="-YN4Ai94tff_qJML-3Ey-2">
          <mxGeometry width="50" height="50" relative="1" as="geometry">
            <mxPoint x="122.5" y="130" as="sourcePoint" />
            <mxPoint x="322.5" y="125" as="targetPoint" />
          </mxGeometry>
        </mxCell>
        <mxCell id="u84uTU3_PnqZZj9lyCrB-128" value="密码" style="ellipse;whiteSpace=wrap;html=1;gradientColor=none;fillColor=#CCFF99;fontSize=16;fontStyle=1" vertex="1" parent="1">
          <mxGeometry x="60" y="60" width="80" height="40" as="geometry" />
        </mxCell>
        <mxCell id="u84uTU3_PnqZZj9lyCrB-129" value="用户名" style="ellipse;whiteSpace=wrap;html=1;gradientColor=none;fillColor=#CCFF99;fontSize=16;fontStyle=1" vertex="1" parent="1">
          <mxGeometry x="-40" y="70" width="80" height="40" as="geometry" />
        </mxCell>
        <mxCell id="u84uTU3_PnqZZj9lyCrB-130" value="" style="endArrow=none;html=1;strokeColor=#000000;entryX=0.5;entryY=1;entryDx=0;entryDy=0;exitX=1;exitY=0;exitDx=0;exitDy=0;fontSize=16;fontStyle=1" edge="1" parent="1" source="u84uTU3_PnqZZj9lyCrB-125" target="u84uTU3_PnqZZj9lyCrB-128">
          <mxGeometry width="50" height="50" relative="1" as="geometry">
            <mxPoint x="240" y="180" as="sourcePoint" />
            <mxPoint x="290" y="130" as="targetPoint" />
          </mxGeometry>
        </mxCell>
        <mxCell id="u84uTU3_PnqZZj9lyCrB-133" value="" style="endArrow=none;html=1;strokeColor=#000000;entryX=0.5;entryY=1;entryDx=0;entryDy=0;exitX=0;exitY=0;exitDx=0;exitDy=0;fontSize=16;fontStyle=1" edge="1" parent="1" source="u84uTU3_PnqZZj9lyCrB-125" target="u84uTU3_PnqZZj9lyCrB-129">
          <mxGeometry width="50" height="50" relative="1" as="geometry">
            <mxPoint x="80" y="147.5" as="sourcePoint" />
            <mxPoint x="110" y="110" as="targetPoint" />
          </mxGeometry>
        </mxCell>
        <mxCell id="u84uTU3_PnqZZj9lyCrB-134" value="" style="endArrow=none;html=1;strokeColor=#000000;fontSize=16;fontStyle=1" edge="1" parent="1">
          <mxGeometry width="50" height="50" relative="1" as="geometry">
            <mxPoint x="980" y="930" as="sourcePoint" />
            <mxPoint x="475" y="860" as="targetPoint" />
          </mxGeometry>
        </mxCell>
        <mxCell id="u84uTU3_PnqZZj9lyCrB-136" value="监管" style="rhombus;whiteSpace=wrap;html=1;gradientColor=none;fillColor=#FFD966;fontSize=16;fontStyle=1" vertex="1" parent="1">
          <mxGeometry x="950" y="465" width="100" height="85" as="geometry" />
        </mxCell>
        <mxCell id="u84uTU3_PnqZZj9lyCrB-139" value="" style="endArrow=none;html=1;strokeColor=#000000;entryX=0.5;entryY=1;entryDx=0;entryDy=0;fontSize=16;fontStyle=1" edge="1" parent="1" target="u84uTU3_PnqZZj9lyCrB-136">
          <mxGeometry width="50" height="50" relative="1" as="geometry">
            <mxPoint x="980" y="930" as="sourcePoint" />
            <mxPoint x="935" y="210" as="targetPoint" />
          </mxGeometry>
        </mxCell>
        <mxCell id="u84uTU3_PnqZZj9lyCrB-143" value="n" style="edgeLabel;html=1;align=center;verticalAlign=middle;resizable=0;points=[];fontSize=16;" vertex="1" connectable="0" parent="u84uTU3_PnqZZj9lyCrB-139">
          <mxGeometry x="0.2091" y="-3" relative="1" as="geometry">
            <mxPoint as="offset" />
          </mxGeometry>
        </mxCell>
        <mxCell id="u84uTU3_PnqZZj9lyCrB-144" value="" style="shape=image;verticalLabelPosition=bottom;labelBackgroundColor=#ffffff;verticalAlign=top;aspect=fixed;imageAspect=0;image=data:image/png,iVBORw0KGgoAAAANSUhEUgAAAiYAAAFFCAYAAADYRiYvAAAgAElEQVR4AeydCfwV4/7Hu1zLzb61IVK2UEqLNhXSgiRp0SJkSSEi3UqkLCWyF6kUpaJNEVlCQnITQgtx7ZKy3Kz37/m/3l/3+Znf6Swz58zMmTnn+329fr+zzTzzzOeZeebzfNcyRkURUAQUAUVAEVAEFIGIIFAmIv3QbigCioAioAgoAoqAImCUmOhFoAgoAoqAIqAIKAKRQUCJSWSGQjuiCCgCioAioAgoAkpM9BpQBBQBRUARUAQUgcggoMQkMkOhHVEEFAFFQBFQBBQBJSZ6DSgCioAioAgoAopAZBBQYhKZodCOKAKKgBcEFixYYOrUqWNuueUWL7vptoqAIhBxBJSYRHyAtHuKgCJQGoE//vjD/POf/zRVqlQxV111laldu7Y57bTTzFdffVV6Q/2kCCgCsURAiUksh007rQgUJwLr1q0zLVu2NI0aNTJvvPGGgLBx40bTtWtXU7NmTfPcc88VJzB61opAASGgxKSABlNPRREoZARmzZolWpJevXqZH374YatTxaRToUIFc/PNN2/1m36hCCgC8UFAiUl8xkp7qggUJQJbtmwxF198sZCSRx55JC0GL730kph22rdvbz799NO02+qPioAiEE0ElJhEc1y0V4qAImCMWbNmjWnevLlp0qSJefvtt11h8u2335ozzjjDHHbYYeaFF15wtY9upAgoAtFBQIlJdMZCe6IIKAIOBCZMmGAOOOAA079/f/PLL784fnH39u6775b9b7rpJnc76FaKgCIQCQSUmERiGLQTioAiYBHYtGmT6dOnjzn00EPNzJkz7ddZvS5evNjUqFHDdOjQwXz55ZdZtaE7KQKKQLgIKDEJF289miKgCKRBYMWKFRJdg/nm3//+d5ot3f8E0enevbuYdhYuXOh+R91SEVAE8oKAEpO8wK4HVQQUgUQExo4dKw6uw4YNM7/++mvizzl/HjVqlKlcubIZPXp0zm1pA4qAIhAcAkpMgsNWW1YEFAEXCOCsajUa8+bNc7FH9pu89tprYtpp27atRu1kD6PuqQgEioASk0Dh1cYVAUUgHQLPP/986D4g33zzjenWrZs56qijDMdXUQQUgWghoMQkWuOhvVEEigaB22+/XaJmMN3kQ+68805TsWJFc/311+fj8HpMRUARSIGAEpMUwOjXioAiEAwCn3/+uTn99NNN9erVzZIlS4I5iMtWyXNyzDHHSNSOJmRzCZpupggEjIASk4AB1uYVAUXgLwSefvppMd1Q2yYqRfc2b95sOnXqZA466CDzzDPP/NVZfacIKAJ5QUCJSV5g14MqAsWHACabSpUqmTvuuCOSJ09CtqpVq2qtnUiOjnaqmBBQYlJMo63nqgjkAYH169ebU0891dSrV88sXbo0Dz1wf8iXX35Z8p3Q36hodNz3XrdUBAoDASUmhTGOehaKQCQRmD9/vphIevToYTCZxEGI2unZs6c54ogjzBNPPBGHLmsfFYGCQkCJSUENp56MIhANBKhtc8UVV0jCtAcffDAanfLYi1tvvVWidrTWjkfgdHNFIEcElJjkCKDurggoAqUR+PDDD81JJ50kppt//etfpX+M2adly5ZJ1A5RRBq1E7PB0+7GFgElJrEdOu24IhA9BKZMmSKmm0suucT85z//iV4Hs+jRhg0bTJcuXcT35LnnnsuiBd1FEVAEvCCgxMQLWrqtIqAIJEXghx9+MJdffrmpVq2amTZtWtJt4v7luHHjzP7772+uueYa88cff8T9dLT/ikBkEVBiEtmh0Y4pAvFAYNWqVWLuaNSokVm3bl08Op1lL1966SWpfnzGGWeYL7/8MstWdDdFQBFIh4ASk3To6G+KgCKQFoEHHnhAcn8MGjTI/PTTT2m3LZQfN23aZIgyOvTQQ82CBQsK5bT0PBSByCCgxCQyQ6EdUQTigwCmm/POO09MN4899lh8Ou5jT++66y5z4IEHSkK2//u///OxZW1KEShuBJSYFPf469krAp4RIAlZ7dq1zWmnnWY+++yzpPv/97//NW+99ZbZsmVL0t8nTJhgBg8ebL7//vtSv3/77bfmu+++K/UdH/Bbufrqqw1hyMhvv/1WahuSuOFwSxSNU4YOHWo4lhvBDEVq+rfffrtk8x9//LHkfbI3r7/+uqTYb9Wqlfniiy+SbaLfKQKKgEcElJh4BEw3VwSKGYGxY8eaypUrm4EDBxrIRyr5/fffDaTgyCOPNMlChvv27Wv22GOPrXZ/5513zMknn2wmT55c6jfaKlu2rHnqqafMiBEjzEUXXWQwqVhZu3at/P7oo4/KVxAVzEy77LKLad68uVm+fLk4rY4ZM8buIgnfXnzxRbN48WID2Zo0aZIpU6aMvL722mvm4YcflmKD1PdJJ0TtYNrhXBcuXJhuU/1NEVAEXCCgxMQFSLqJIlDsCHz99demY8eO4lfhNmSWDKqnnHKKgSzgIIsG5c0335TXs846yxxwwAFm0aJF5sorrzQQEisXXnih2Xnnnc1DDz1kvzLXX3+9mE0+/vhj88knnxiIBz4tP//8s3n33XflGHvttZc555xzpD00OmgzqBxMDhJCl3nfrl27kjbJS/L+++8b+rlx40YhUBATSAqkhyrIHC+ZBqekEccbau1UrFjRXHvttY5v9a0ioAh4RUCJiVfEdHtFoMgQeOGFF0ytWrVMhw4dsjZXoJWAfEAqMJmcffbZonmBPMybN8/8+9//LklZD9kYOXKk2W+//Uz37t0Nx8efhQKATz75pHnllVfkM2Tl119/NR999JF8jwaGUN4BAwaYfffd16ANqVGjhpicqHvToEEDIS4MH6YgksDdfvvtQkTeeOMN0cTssMMOQnL4zHHuvfdec8IJJ7iONkLTQk0gzFyakK3IbhQ9Xd8QUGLiG5TakCJQeAiQjr1ChQpm1KhRrk+OHB/4aTzzzDOmX79+ZurUqYZssOeff7680hA5T3AcdQqaCmrULFmyxNx2221CHHbccUfRWlx11VXmkEMOEUdTtjn++OPFPGP3/+CDD4SMvPrqqwZzzT777GMmTpwo+1CQb82aNeIXg0YFQYtjtSN8RgtEbRz2wS8GTQ6alDPPPNP07t3bEyFD29K5c2dz8MEHm0xmINt/fVUEFIG/EFBi8hcW+k4RUAT+hwCrfXJ1YP5A2+FVeKijdcDHY8iQIbI7piBMHfyGViORmOCXcumll5rLLrtMqhGPHj1a/EZmzJghmpNjjz1WNC6PP/64qVOnTinHWYgJBOqWW24xrVu3NuXLlxdCU79+fXPiiScafj/qqKMkgyudIR/J9OnTDb4p9A/TD06yaHDQduDngnYHE1S2QkK2KlWqiGknnT9Otu3rfopAoSKgxKRQR1bPSxHIEgHCf3Hk7NWrVykHU6/N4bdBplTMJQgaEcwp+G0QYZNITGz7EA/IAQ/2XXfdVb7mOzQfaDqI5oFwrF69Wvw/IC4tWrQw2223nTi8khafFPKYeI4++mj5DTIEAeE3p9AG50mhQRxsIT/9+/c3M2fOFC2Lc9ts3kPOGjZsaIjawRdGRRFQBDIjoMQkM0a6hSJQFAjwkManA18NNB1z5szJ6bzx64CYYJZJFB7+OL8mEzQr//znP0WjgfkGPxLMQ5iT8PlwOqPysG/ZsqWYhjgWfUbTgWkGZ1t8Y3DARTvyyCOPJDucmIS6du1q2rdvb/ARwamWPoMD0Ue5Jo7DnLXtttuKaYfzxqyloggoAqkRUGKSGhv9RREoCgTIJYIvCRoMnEzRNBAqixkC7QQmlmyEdnFCveOOO0p2J7oHJ1iicvjNKfyGlmTPPfcUYjFs2DAxw+DQ2qxZM/H3IPIGH5Tnn3/ekOQNgbgQpVOuXDkhIETgENbcrVs3iayBoKBNIUQ5UWh7++23F5MVZARNDNocfFXuv/9+IU+JuVES20j1mageNCV169aVaCT8biBd+J5wDBx+VRQBRWBrBJSYbI2JfqMIFA0Cs2fPFn+Nxo0bb+VLgjYCM4T10fAKyvz58yXsl/Bfm2gNskIukurVq4uDqLNNiEmfPn1Eu4C5h2gYcqbgpMof5pUVK1aI1gSNTps2bUraxbkVh1dbQJCoGxKusQ9aCrQhtg/OYxIujEYDvxY0RpCG8ePHG3CBnGTrY8K5H3bYYeLwu3nzZuchJVoIs1TNmjXNddddJz43pTbQD4pAkSOgxKTILwA9/eJEAC0CkSPUe7nzzjtTakUwmxAFw3ZekofhV4Iz6ty5c0Ubg88IWgw0HTjT3nrrrZJEjagVzC+QAIS+/OMf/xBygH8ID2+0DphVcE7FiRR/EggT5h6IDlEw7E/uE5tgDS0PJAWiAWHBlMO+mIRs+njCkjHv4ORL6DGOr5iXICXkW4E8cJxZs2Z5ukgIdcbJN5kJy9kQoc842RINxD5kvVVRBBQBY5SY6FWgCBQRAhANnDyrVq1qLrjgAtcVcnEOJa8I0TSJ6eCTwcfD3JkgjSgYastwbAr+YVbBrEHyM7QkmI8QNAjkEoEQ8OCGdGCaweRC7hO0IBAVZ9vvvfdeSQQRuUtwOMUfBfMUGhEIFT4kkACSuWFCIeoI8nTjjTfKsdnnuOOOk1wpNlMtGpa2bduKZsaNOQufGsKL8WvBV8WtQMyaNm0qDseEOkO2VBSBYkZAiUkxj76ee1EhgAaB8F9MJPhpeBXSuuMvgTNpUMnDiJ5Bq+Llwc55QDa+/PJLIRn4hGAWSpSVK1eKZgXNCf3nWE5hP2edHH6DhCVry7kf70nGhnkKkxEExaugxSG6CEKGn8t9990nWW29tqPbKwKFgIASk0IYRT0HRSANApgleGCSBRXn0lwELQLhtTjGkrFVxYjmBcdhzFO5CgSFmj34/BBa7dQM5dq27q8IxAUBJSZxGSntpyLgEQE0AjZjKs6dFJvzS6gLw8N4+PDhKf1T/DpWVNshKgjz0kEHHSRmJz/7aSOLSPwGSSG3jPWN8fM42pYiEEUElJhEcVS0T4pAjgiQSIyHGmYXzAxBiM0TQnr4Ygt9xdSEWQun3iDPHfKDQzBZa4mOUi1VEFeythk1BJSYRG1EtD+KQA4I8MAkJTsRLZMnT86hJXe74px67rnniuMmtXGKQcCVqBu0UWEJDrE33HCDRClBNosF67Dw1eNECwElJtEaD+2NIpAVAjhcUhiPTKlkK0107MyqUQ87kZGVhGlEzxSqYF4hKgiMyVOSD/niiy+k9g6OtmhriHZSUQQKDQElJoU2ono+RYUAeTnIUEptm3bt2hkb6poPEMgDQkQJ/bDhv/noRxDHJPkaETNkoOV9vgXzkfUfIg+L1yimfPdfj68IpENAiUk6dPQ3RSDCCLBaJtkYIcBkOI2C4BNBunkcQhctWhSFLuXcB5KwVatWTYiAm3wmOR/QQwNUTbZaHExqZMZVUQTijoASk7iPoPa/6BD47LPPTO/evSWrKRVz8fOImmDagZyMGDFCMq5GrX9u+gMJoaYNJipCeKMsJJIjYR5ZZM8//3yzbt26KHdX+6YIpEVAiUlaePRHRSA6CBAuSkE8arCQYZRaNlEWEpaRO4WMq/hGxEnWrl1rTjrpJNOkSZOtkq5F+Tww5RHCjIaHGkAUN1RRBOKGgBKTuI2Y9rcoEXj22WclZTo+HOS0iIugzTnnnHMk3JXifXEQ+kkCue7duyct/BeHcyBLLyn/qXGE1oeiiCqKQFwQUGISl5HSfhYlAp988onp0aOHmG1IZpasQm4cgKGgHSG21KaJqqCRopgfpGTixIlR7aanfi1dulTq/ZAHhTpFYUdreeqsbqwI/A8BJSZ6KSgCEUTgl19+kUJ0+GmgmseHIO5CBeA6deoEnpQsG5yoh0PBPqoZB5WQLpt++bUPhQyplowPCsUNtZKxX8hqO0EgoMQkCFS1TUUgBwR4iNSrV0/CU/OVLyOH7qfdlQci/jGHH364Wbx4cdptw/rxueeeE18YNFObN28O67B5Oc7cuXMl5BkNCrV9qDatoghEDQElJlEbEe1P0SKwZs0a06VLFzEl4OT6008/FSwW99xzj6lcuXLeTTtjxowxFSpUEC1CwYKdcGKYrAgvp0ggBPiNN94QEyFRSFReJuT4ww8/TNhLPyoC4SGgxCQ8rPVIRYzAr7/+KmG9vP7888+CBOYamxdj1qxZUhSPXBTF8lB44YUXRFPRoUMHQ+baMAXTTbdu3eT4zz//fJiHjsyxuPaoXkz9nf79+5tLL71Uqk/ji0LStkLxs4kM4NoR1wgoMXENlW6oCGSPwNSpUyX8FE0IJoPx48dL6G/79u3Ff+TBBx8smIRkXlDClED0CyHQYSVkI6QWU0arVq3Ml19+6aW7Bbkt2YNxTiZ78MqVK+UccZqlaCBp+FUUgbARUGISNuJ6vKJEgEq8hG7ixAoJIVsrD+V//vOf5uabby5KTJwnjUMmph1MK0EK6fuJuqEgHmYLlT8RQDty8cUXl8DBddqmTRt1ki1BRN+EiYASkzDR1mMVLQKsRKkKi1CdlsytCOGzkBMVY1ils2qnON3nn3/uKySEWZ933nmmatWq5vHHH/e17UJoDA3eRRddVHIq77zzjiTGwxkYk6OKIhAmAkpMwkRbj1W0CKxatUrCNVGbozGxxITcJEpM/ros8P3o1KmThO1CVPwQtFWNGzc2rVu3NhS/U9kagVTEBH8oSApO2UQvqSgCYSCgxCQMlPUYRY0A2hISd51++umCA8TErk6VmCS/NAhl9SNaZvr06VLrBsdOHI9VkiOADxTFAK1QHJC8J5i70DZdc801om3CUbkQ87zY89bXaCCgxCQa46C9KEAEWP1TrwRHS3waqLqLOB8C+Jdce+21BXj2uZ8SzrAkPOvatatnJ1VCra+44grJmBuVysu5IxJMC2iRIM21atUyhKwjOGnvv//+ZsKECSUHJVoMgnfwwQebnj17GpyI8yncX1dddZWY6Hr16mX0Lz0GFHecM2dOPofM9bGVmLiGSjdUBNwhQJ4ItCJEmlDADjMOE8KBBx4oE//gwYNNo0aNxI+Chy6+J3FNNe8Okey32rhxozw0DznkEPPiiy+6aoi6ME2bNpUss++9956rfYp5ow0bNpinn35aTDVUrkZef/11Qzg32XoTBfJy4YUXShZZwtstmUncLujPJOij8jP3EwQffy39S47BqFGjzPHHHy/JDYMeFz/aV2LiB4rahiLwPwRefvll06JFC8mPMW3atBJcFixYICGZL730kmhMCM+kOjDRELyn2J1KagSYWEnPf9ddd6XeyBhDZlOinzBL/PDDD2m31R9zQ4BEbJRLQIOCJuWjjz7KrUGPe+PzwsNWTXTugLv33nsld4+7rfO7lRKT/OLv+uioW1FbEtKnf5kx4MEECQhLPv30U5mceXgOGjTIfP/992EdumiOQyI0SAcp7dGkJMqQIUNMpUqVDCHBKuEhgHalc+fOBq0WlYzDIihcD82aNSv4MgJ+jeTtt9+uxMQvMLWdPxGYMWOGTLqoLa+77jqpFEqGRv0rjQH+Gjia1q5d2/Tt2zfwywfnQFYi1atXN+3atRMtSOAHLeIDkBANYkIemCVLlggSmB8IMT722GPNm2++WcTo5PfUMftQCNFWMsYHJEixxES1je5QVmLiDifdygMCmAW46VXcIQBhQ70cpDzzzDOSHbNu3bqGlPIq4SEwYsQISZQG+axRo4as2PUBFR7+6Y6EvwpEkZw0+HwEVclYiUm6Udj6NyUmW2Oi3+SIwCOPPCKOlLa2So7NFfzu5Aa57LLLAjlPzGoXXHCBmBXQ0Gja7kBgztgoPgYNGzbM6HeSsSHdIBAEqIyNEzIEJYhKxkpMvA2bEhNveOnWLhCwxOS3335zsbVuEgQxIQMmE+wRRxwhob+rV69WoBUBRSANAiQUxAxNgrs6deqYsWPH+kbklZikAT7JT0pMkoCiX+WGgBITb/j5TUxQTx933HES5kvkh4oioAi4R4AQeioZQ1AaNGgg0Wh8l4soMfGGnhITb3jp1i4QUGLiAiTHJn4REzJgUg2YnCTkSiBxl4oioAhkhwD3z3333SfO6RCUXJLfKTHxNgZKTLzhpVu7QECJiQuQHJvkSkyYQCEiEBKKv61du9bRur5VBBSBXBAgnJ6cNDguN2/eXBIQYvbxIkpMvKBljBITb3jp1i4QUGLiAiTHJrkQE5z26tevb5o0aWKeeuopR6v6VhFQBPxEgCR4JM8jxJgsyU8++aTr5oMmJhQvfOKJJ4wbvz40qyRKJIR92bJl5rXXXpNq2dRq+uSTT7Y6J7IYk6HYKZi2+J7EdUEEOSgxcaKt731BQImJNxizISbvv/++hJ2Sk+TOO+80VFZVUQQUgeARIOfJsGHDpDYSJRrclB/wk5gQWYdWlDlg/fr1Ui6CFABlypSRelfkzyGJImnwBw4cKGUmnKhQwZptKUVB1B5/9G/77bcXh3nntrwn/UPFihXN7NmzS/0EOUODpMSkFCz6IaoIBE1MSBTGysCrOhW82IeIFbf7km8iV8e3TOPkhZj8+OOPMilWq1ZNCoElrmQyHUt/VwQUAX8Q4OHPg5978YwzzjCUeEglfhKTzZs3CxkiQR8mJvIgvfHGG+axxx6TOkJk3SYnC7mL8JFBm+IUIvQgJgsXLiz5mhpCe+21l5CQki8dbwh1p8o4GhKOw7xIVu+TTjrJsZV/b1Vj4h+W2tL/EAiamLBaIIHb448/Ln9UFf3qq69K4f/5558bar5ww1JZFC97zB4I+44cObLU9qk+UF23ZcuW5tlnn021Sc7fuyUmON8Rxsgqxc0qLeeOaQOKgCKQEQG0FpSVgKBQjydZJWM/iYmzQ2g79t5775L8OBSCpAAnZplUgqYFYkL0npV169aZcuXKGeZuKywAIS+QEBZz+LGRE4lcL8ytZK1Ga0JSOkxcaGD8EiUmfiGp7ZQgEAYxKVu2rLB7yptTk4RoFFYSVgiTPfroo6UWBiTlgAMOEMdQ3m+33XZm/PjxdtOMr/Xq1TPdu3cvtR0Op34V5MpETFC9kp2SnCT33HNPIKrTUienHxQBRcAzAiyYevfuLfcpTugUvrSCWYVaOX5l/MU/hDkPckHNnzFjxojPCNoTtDhvv/22oZpyz549DQTDKZaYUKeJ+RNihb/MzjvvXEpjgqYYMlKzZk3RlHBOaGAOP/xwISGQMRZK1B+qWrWqr9WAlZg4R0zf+4KAn8QE+yUOWpQ1R0vADQkz33XXXQ2ZTLkpqHrLTcLD2zqAokXBKZTtWVXA8mH1PNj32GMPM2/ePFG9wvy54Zg4mDS40XnP8fjjM/Vl0FbwmWJ7OJl16tRJJgA/QnJTEROc7QYMGCA3PWrTRK2QL4OljSgCioCvCGBiOeecc0ruW+ojMYdRXdgvYjJp0iSZAzHt0vb5559v8H1ZunSpaD1WrVolmtXWrVtvdW4QEUgI8ygaFhY+aEaovIz5xyloSnCs54/6TsyhaGTGjRsnc+6pp54qm/MbGhS/RImJX0hqOyUI+ElM8AWB1XPzcJNs2bJFbsS///3vcvN/99138j0+J1988UXJjQ+ZIMlYly5dZEKA5VNJ98QTTzQQAdpikli0aJGoNR9++GHxW+FY33zzjagnUVFCQFq0aCHbQxQgIjifUZUUG3PiaqQEBA9vkhETTE+QqTZt2gi58tCcbqoIKAIRQADCcNZZZ8kCidcTTjjBMF/5IXfccYf4hJCpFvIByUCDS2gzhVP33HNPqc/UtWvXksMxn7EgYzFGVmjagJgw52GyZsFFhA6LN/puhbmSxRuLI+Y9KjOzSMQB2NZEg5iMHj3a7pLzqxKTnCHUBhIR8JOY0DbkBDbeq1cv0RqgAUFjYgkD23CjQUaskE4a1SmqVVh9o0aNxOQDMYGE2EJ2rG7Kly8vXul2X+crkwk3PiSElQ/qWiqTunWedbaV6j2q1yuvvFJ+pj84lEFKvJibUrWt3ysCikB+EZg8ebIsfnigb9y40ZfOML/94x//EHJwxRVXmFtuuUU0wGiKWZAxx7Vq1Uqccu0B0R6jLYaAsIjbcccdZV69++67heRAUNAW/+1vfxPSYvfjFZMN5nGi//ClQbOCxhotEItFogMx+/glSkz8QlLbKUHAb2JCw9w0u+22m9wgK1eulAc3nuKYWniAw9g5ro2gscSEiq6YeCg9j6oSuy++J6g+keXLl5v9999fbLIlJ/C/N2hD8E3BGx2TEU5tOMIedNBBZsOGDYmbZ/0Z0sWKBPtwlSpVxGasZpus4dQdFYFIIIBpBS0tD3UbWuuXxoQUASzOaA9fEkxHCBoRHFuZP9D2MvdZ4bfdd9+9JHwYZ1fagdTgQItg5uF7NDEIvipE+TB3cj5okyEmBAMwX9WqVUvIDSTn0Ucf9W3BpsRE4Nd/fiIQBDGhfw888ICoKfHzgBzg2IVWBG1JYtVc1JFoSXBaJdcADrLDhw8XgoGNFJ8RbjJUkjvssEMpRzWLBeYjnGxZaVhhkkFT46dAnujD6aefLqpVP9vWthQBRSBcBNAqEMaL+RitBRrWV155RczIfvmYQChYqNEekUAQH8wyzIUQExZyHTp0MO3atSs5eaIYMfGwsEMsMWEf3mMORyOMBtlG9aAlxumelPwIn9H8QHKI0GGBh3mHRRuLK2cIsuyQ5T8lJlkCp7ulRiAoYsLqgGQ/3ADE3NtQXmyqiYLGhJsVTQoEBk3HkCFDZAWBChKVJzcbTrOoRJ0e9LYtTCxkeURVieBoBiHCPOSn4AfDZIIJ57nnnvOzaW1LEVAEQkSABzpzDo73zoRkOM77GZVjNSZoRvAjQWtCyC/mFvw+8DVBY8IcaIV0CTi9YvK2JhtICRE9aDwgFQQS4L83ZcoU2Q2TNedDZCJCZtjKlSuLbx6kyJlplkXbpZde6ovWRImJHTV99Q0Bv4kJJhVUi2hArrnmGrGlkokQJ09cAf0AACAASURBVC5Ujag0b7jhhlL9h8WzUtlvv/1k9YJNlSRC2F/xLOc3Vhp169aVVUSiaYYbEM0KTqhWSOXMaoJJwU/BqQxyxKSBrZYJJVkuBD+PqW0pAoqAfwigeYUEoF1AW5KYDdXvPCY4mm677baS9RVC4kyVgB8LBKVSpUolJmvOFKLEPMPch0MrGhUIE8nYWOjh3I/WhQUb2hUETTT+bpbgQHgwoUOG8ClhXxaGOPBjDurXr58vAQFKTPy7NrWl/yHgJzEh7A3yQJw8TmQIJGOfffYpibnnJkKtidqScGE0Gwie6qxS6A+2XlSYaD+4Aa0wiXBTOnOSsAqAHPTv399uJq+YkFhN4Dzmp2AfxsGWP8w6aHaw6XKTozpVUQQUgWgiwPyERhazDfdtKudWv4kJmlU0v8lKUTB/oRFB4+usfcP8R40conMQS57wsyM6EWERyPzojDZEK4PZ2wrniJkbvzv7RxuYj2ybdttsX5WYZIuc7pcSAT+JCTcB5MGaWsjkSpjbNttsUypLITcG2hBMM4T0sorAvottF7n88svNLrvsYkjHjHCTQmKaNm0qJhQbZYN6khUAmhluMlYM2FPZtk+fPmJyISrIT+nWrZskSyJUD18YEiBx4+NzgikJDU2yCcjPPmhbioAi4B4BHtQ4hdqK3nZeSdWC38Qk1XEK5XslJoUykhE6Dz+JifO0IA/Uo0CDQn6PZASBqBzIDD4msHkrPNjxGqfAFcIrIbrYY63ZBO0E+1k1JtvRHiQH/w+id/yM1bd9g5hAQhDsvXi62xUL6ldMWI0bN5Zy63YffVUEFIHwEUDjil8GGhI0tCQ0cyNKTNyg9Nc2Skz+wkLf+YRAUMTEdg97ajqVIZMHtlA3YjUlbIsKM1U4H9+Tzj4IcRIT2ic3wGWXXVZyKM4HwoKtl2JhFNJSUQQUgXARIJKPRQM+GBSy8yJKTLygZYwSE2946dYuEAiamLjoQqw2SSQm2GpxvE2c/Ejyhtc7eQR4Ja+AiiKgCASLAMnEiOrDrEoq9mzMqkpMvI2REhNveOnWLhBQYuICJMcmicSEnyiwhf0aR99EwUSFRz0OsmhS/KjXk3gM/awIFDsCRPyRSp77DJ8zp9O8V2yUmHhDTImJN7x0axcIKDFxAZJjk2TEhJ/5vn379o4tS78lrT75Esgf4PSLKb2VflIEFAEvCKCZxP+MhQFJxNBg5ipKTLwhqMTEG166tQsElJi4AMmxSSpigoMuUTpkvE0l+J/YLJOknyayR0URUAS8I4DmceTIkWKyYUHg572kxMTbeBQUMcEmT04I/cuMAbH3FH8KoiaLEhNvN2EqYkIrhCmTafGdd95J2yjhi+RAITMtCds0/0lauPRHRaAUAiRSpJ4WeY+C0D4qMSkFd8YPBUVMsLtTx4QkMmT3zNcfRZHoA2FliX3gt8Tv+UwYauK2QX3mWCTnIfyVzH9+ixITb4imIya0hKMr13W6SCR7RKoTs9ojnJFrzSabs7/rqyKgCPyFAInImjdvbmrUqCGpApyJFv/aKvd3Sky8YVhQxIQ0ueShiJs4Q1bD6js34AknnGC4YfwWJSbeEM1ETCAX1Ksgs6RboS4G+U8IbcQXRSX/CFDSwFa/zn9virsH5C4iuzOOrSNGjEiZsdUvlJSYeEOy4IgJJxS2kDMD1TlZRsePH2+GDRsmq1YiJmyiLNsnbghSj+PxbYVKuFRpDFP9Ti4QVgqsGPwWJSbeEM1ETGiNawsNF3Uu3AqpqfE/YTVIAjc/beZu+6DbGQkvHTx4sNljjz0kmipZYkDFKRwEwB4NJCUucGzF0TUMIYU8+YmC0siEcQ5hHgMFA/NiHKRMpk6iMQmLmEAsKJSEPZLaKbVr15aMpDyUKehEMSQSciUSEzKNEklBqnNqFlBsbsmSJWb77bcXJ0d8CTiH9evXZzrdnH4n9boSk5wg9G1nN8SEg2GCI5eC2+RxtoOEHFP3B0da0uqHSYBtH4r1lfsYzSSFz6hHQuFIysY/++yzxQpJXs6bhRhF5yiyR5JCm+05rM6wAGRhQdG7u+++W8pqUFoj339UGiY1AWUv8t0Xe3z6xOId14w4SKSIiZNwEOPORUfKc4R4dyrZJsqcOXOkeiwp0yEzXBDUfqEyI6vaZcuWGVTwVMp1alQS2/Hjc9DE5NRTT/Wjm0XRBg8rm5I+3QmjATnxxBOluF+67VL9hv9Jx44dhaAQfUB7KsEhMG3aNFOlShVZoTt9fVgNkkAPzapK8AhMmjRJFo1oLPwuwOm29ywOevfubbp06SKVecmPku8/5h1MveXKlZN+sUDKd584PgoGXlnkx0EiRUwAjEJwvXr1kjomNk04WpSaNWuac889t5TjIdsSXQEzRctStmxZs2DBAnk44KjIRRtEhEyqgQ2SmEydOlUK6n388ceSIAzNkf4lx4AJi5obbogJY4mfAg+7xKywqcY52fdco02aNJHJOpd2krWt3xm574l4I0KKCtfJhErVaL8Y+6BKHSQ7bjF9t3DhQjGfUFtr4sSJrpzHiwkfznXGjBnmlFNOMfnwcywUrCNFTBhI7Mbly5cXsjFlyhSpZluvXr2kDw3MNThbEYGz4447SsZOBoYQz6FDh8oYPfnkk6JmtBVxgxy4IIkJ9lQenhSeo3ovVX/1LzkGmNNYsbB6cSsTJkwQrUcuD7RffvnFoDLFvHPyySd78l1x289i3A5NJwnvuN4hkemEe5DUBph20JSq+IMA5nAi08B1+PDhBjOOSnIEICZot9UpOzk+br6NFDGxHSYJFg6vZ555ZkkdBXJPsCpNTBWObwAPAUw1CFEWu+++uxAbHhJ85maC7PiRbdD2MdlrkMSEsNZ3333XLF++XP/SYIAZD/MKOWUuv/zyZMOU8jseaKy2cxXrfwKRhCTj86SSHQLkwqCOEVlDE+/9dC3iJI829aabbkq3mf5mjPjmoQnBR2TVqlVCPAiLt9pmfPvIR0IuH72WM18ymEvQmKhZNzNWqbaIFDHBmxtnHRxZsdOhMWG1hJ8IVSghGNWrV5cHNCeEWQMHOFZTFIWi3gkXxYUXXmi222470b4ccMAB4qeCc5S90VKBkev3QRKTXPtWbPujMXNWE3Zz/jYrLNoTPwQiibMZFYwxN2JmhFgSaox/BA7dmCBV5bs12uADUcR0k21oNlhTuZbVa1iRIlufSfS/wX+PaBrmUXx10C4PHDhQohrx+yPqJlMywuifZXg9VGKSO9aRIiYwc3JLXHTRReJh//DDD0s4IKpDHvqshCEmEBYEYsIKF0dXiImNjCD8k4gc/DKI7GGCCkOUmISBsrtjcE14JSa0TJTHfvvtJytHd0fKvBXaPsgy4ZT33XefPAS4biHbVFidPXt25kaKaIulS5fK4gRCkWsk3YYNG0z37t0lcoSxVUmOwOTJk02bNm1KVvkEGpx00klqskkOV9pvlZikhcfVj5EiJrbHTN7XXXedRNdUqFBBai0wiUM8MGk4o3fsPryy4kWNzooX0w3hZETmsAL47rvvsiqt7Ww/03slJpkQCu/3bIkJPST8l6yw+Iz4JatXrxb/IK5fnGNR9SL4RxGBpvInAuPGjTP77ruvrNj91CRh1q1UqZJineJCI5rxkksuKfkVkw4mcuY0FW8IKDHxhleyrSNHTIhJxzaPbRn1IcSEFSVhgphy8BuwJhlWU9hCBwwYIEQG8kIuE1ZasH+idlCjv/XWW6JVIbQ4SFFiEiS63trOhZjgy4DmzjpQezty8q25Fq3/ClElkB8EbeDVV1+dfKci+hbNBuGMRNMFlY/k5ZdflqgpnDitdrWIIE55qvhCUNQSTbUV5l4lJhYNb69KTLzhlWzrSBATVkaffPKJFMBj0sCBEe97yMi2225bkuId4lGmTBmJD+dk1q5dawYNGiRmHLu6gvmjisffhDbIhcKDAJNONqr9ZKCl+k6JSSpkwv8+F2JCb7PJCpvuLDFDQpi5Trke7UMAYoI9v5iF6Lqjjz5awruDzuCK5pScDqRNJ2KvmAVTONchYdY8THFutYJ/FNcreKl4Q0CJiTe8km0dCWKCoxshVjgHWqEOAtoOclE4Q9NwzkKbkiiEecL6r7rqqhJHLVTxOL3ykCIHQlArMdsXJSYWify/5kpMOAPMLOTP8WNyhpiQoTiRmBBNRuQY/lB+Od3mH333PaCmCiYWsA5TMBfj8wMxTGUaDrM/YR6LqtmYyol2wsEYDTRBB507dy7BgoADtIZBE8UwzzusYykxyR3pSBCTVBVeUbe6DbmCvOQ7lE2JSe4XpF8t+EFM6Aupz63ZJZe+EV2GMyECscYZFuHByMMZDQ2O3a1atZIoNPmxgP/hC0Y6ADQlQS8YUsFInSMwJ1W3NQ+n2rYQvqemDAs7FnxkbCU3ErJu3TrJBwVxtmnlqcKOYzaE0WqjCwGDMM5BiUnuKEeCmOR+GtFoQYlJNMaBXvhFTCC7+Dyh0ctFqNWE/wT5Iih4xmqUhwAJAnlIkI+HhyMJBjke4ZtB593J5Xxy2ZcoJZLQkcqfUhL5FLQHZJqGoBRyQjb860jMiEkb7ZyTbKR6z7g4f8vnOMXp2BAT/HPcLqrjdG5h9VWJiY9IKzHxEcwcm/KLmNANTIQ8SIn6ylZ4APMQpMgkjp6QEPJH8B3aA+ckRkQEhAVVO87gbFcIwjkSgURuEqJvoiTkmalYsaK5/vrro9StnPuCJg6na7QkBAr4GWmWc+cKtAE0otTfct7TBXqqgZ2WEhMfoVVi4iOYOTblJzGhKz169CiJqsmxa653JzePXeXa3D2ud47YhphlMZngs4MJJYpCbS7KX7DajbtvBdo2tG5o6fC7y6XUQhTHKsp9wmxLDi5NSZ/9KOWFmKBWxBPfKWTBJJzPrcD8rVMizJRVJb4qiapHtrnnnnukAibe5y+88IIcG3UmDnB+riCUmLgdveC385uYoOE47LDDpFRC8L0vfQS0CxSnI7eKl3ukdCv5+0SFcKJg8KtxOrLnr0epj4xmCydQUhPEMSEb+KKVAm8Sy2nG1tRjrb9EF4HQiQlqarKy9uvXT24aMg7i/EZY72mnnSYOrKTpxvkKskFOCVYy7AcTpbQ8kQxnnHGGhBGTwwSPckIwKfJFxkKn8HnXXXeVOjvY8e0fqwnKpPs5USoxcSKf3/d+ExPO5umnn5brlOswbMEERGg85h18IgiVj7r8/PPPEgpNWQhqX8VJMN9Ra4frKA5RO2DNAuyII44QzRRRjSqKQFwRCJWYQDJYjaAWJ18J9nMyMvIdtl1IBkmWICqosdmeG44EaWyLwyCkZdiwYbIiAHRqYVx77bWSdp4cJ9jvnUJOFL6fPn26qDNRKWPTp/IsK2A/7fdKTJzI5/d9EMSEMyLBH5E6qSLJgj7r999/33Tr1k2cNYnmsVrDoI/rtX362ahRI/mj1EQcBf8MnEXx0Yhy1A4aKebGunXrSj6SOGKtfVYEnAiESky4gSAEkAEmeKITyOFACmpufHI9UEgKIsIK0Tn5Q2CwlyLkOyH3AeYfnLrOPfdcc9ddd0ldnUTTDBqTPffcUzzRWemSgRP15vnnny8rTycYub5XYpIrgv7tHxQxIbMwhSNpP58CccfBjodR1PxPWARgCiHFOTmK4izMVeT64HxYFEVJME2TBA3HbLTGW7ZsiVL3tC+KQNYIhEpMcHojbwFey9xUxNEzqaKafuKJJyR8Em0JZp5y5coZivFZwc7OvphiMNug0iZKAiKDc9e8efPEZIOWxQr2YuqSEOqJKYgU9mQ7JG6fzLCTJk2SQmpOAmT3zeZViUk2qAWzT1DEhN5yHZNdmGJz+RSuWzIdozUk/0m+/U+498gkiomUkMlCEswknBdmZL/mi2zxQRvFYgxCwtyX75DrbM9D91MEUiEQGjHBKZXU26h30Y58/fXXohVBM8IqlLBJVL6kQmalNXr0aPH/wAcEzQjaFcL50HTg3c9kjDRu3FjMPJhsdt5551KF+iAj++yzjzi5ojkhbwSVhjkO5KR+/fqiAvVrolFikuoyC//7IIkJZzNmzBix5/vpo5QtSjyYcHgkkylm0nxElED0ubchSNxbhShodJl3MOVRQiNsYY7kuibnynnnnWcgKCrRQABSbgkii1/MgFGYG6KBjvdehEZMCJ0iWRWDxcqOqr94vePYyh/aEUw11LFwmmNwPENLQgZCzDa8J3U3Dq1E9hCtgMYFU84222wjBMfCAOlBBWtXb5iDyL5pLyDed+nSxW6e86sSk5wh9K2BoIkJZBZTStD1l7wAAhEnEgNtIhllw5oY0TxiWsU86xfJ93LeYW7L3IG2AidTkuWFIUQdUlqDYxLKzEJNJVoI4BjfpEkT8ZkkcIPCnPhLfvrpp9HqaEx6ExoxceKBeQW/D8w5rDz4w+8DVWmqSqvWlEM7qNBtjQec09CwsP9NN91UajLGEZawOVtbB6dBTER2wm7evLnp0KGDs2s5vVdikhN8vu4cNDGhs+SKIEsrvlNRksWLF0uEGqbPiRMnBtY1HtI9e/YUJ3JnnavADhihhpmPiCQkUioxRYGf3cQMjR8Rfk1Ru878PM+4t4U2i2cRDul2Yc0igetExTsCeSEm2MV333138S/BzwS/EhzLSM2NucfpJ2JPiVUZxIXiUlQF5UKACJCwiaqYRNrgEOh0tsPZtWzZshKRQztoV0455RTbpKiduXj8EiUmfiGZezthEBN6yXWJVi5qKyM0jWgWuebRDPodPorpBv8u7ie/a1ThxMmfM0EVD38cUZ3fpbtKiFbifnS7fbq2Uv2GabhBgwbigIr/mp+CVoS8NWhJcGylzo1KdBFgfDBjOvPG4H6AyVfFOwJ5ISbkCEBjgsOq9fvAnMPDBI2Gc3DxR2GCZXJl1TB37lzJVQKZwY5HyC8qs1mzZkmEDwTFCtkOb7vtNvFnwbdkhx12kFBjjg+5oWaHn5OqEhOLfP5fwyImnCmqfXLwRFEwfQ4dOlTMO5DwxDw/2fQZ/y9MN4TwByFoOPHjcPrKEKmHqpz7nIcAxMX5sMaExGdWq7z27t1bwnwhKHxH3hci8vwmKuCLJpY0+8wnuQqLKbRQ+AtRNwlfPJXoI8BimmcUzzMrffv2FVJpP+urewTyQkzQmODImphzhJUBE55z9Ym6nGRqFEFLlnMEjQm2bStWjWY/84qTGCYdCAwTGvZA8qjg1U7CNr9yQSgxcaKe3/dhEhMeHhBkMglHVSAkhOrjf0LJe+tn5aW/LBLwAUMLQxRdUEIytl122cWQc4hFCqZfTLfbbrutLF4wG5G3g7BkKzjN4/OBGQtTL8QGnzQWL2R7JkcS/kDJ5hDbRi6v9BmzHmTCSZjctskiiggb5imIrp8LJrd90O2yRyAVMaEGk4p3BPJCTHDkYpIhLTwqS9TMOLISccMEn65YGqGaEAsmIHxUUKUyaTEB8TBCfUaUDySBVRJkh1h/bH+QEiuYfDgeydf8UnMrMbHo5v81TGLC2aLBI4Q4H1lhvaDN/cZDG3s4Zii3GgTuEZzTSTYW1CoebSckon///hJhx70MkWJhAiki3xE1SHAGZQEDYUEgWeDPwx0TL/c22iHOEQd4foeQ0O/ExZAX7DJtS2Qgfj2o9J2Lq3T78UBDq8sCC2yZx1TiiQDj7kwmyIJ57Nix8TyZPPc6L8SEFQ2eyxAQVKH8MXGgrsV2ncqzHzszkwuTlN2HSYh9+eN7/phsaWf27NlCeNKtDokQUo1Jnq/CAA4fNjHhFHiQ8tBP5iMVwCnm1CSkBB8RJlP8vFIJ9xImG0wVaC2DFDQN3NesMq1Jl/7RT6Ly9t57b9FwQq7QuGIKRrDjk/aexQ33PeZem1rAziksZlj0sBgJ0lmV/lPuAm1spoRsM2fOlKKB1kQVJLbadrAITJs2TUoY2OrUaPpxWiZyr1DD54NENC/EJMgTymfbqjHJJ/qlj50PYoIZET8o1PlxEK5XyjnwwCb/yQcffFCq2ywc2rZtK3kz0E6GJfiUkS8EMw6aBMgJGtLy5csLaWFVinYKkw4kg1xGp59+unSPHBKUuIAkImhlSUvAYggTCecYJDGxGKEVpo/gm7jQggjywMLUxIo6DkTWnpe+JkcA3xK0+fgyImjmuOa4b4LSMCbvSWF8q8TEx3FUYuIjmDk2lQ9iQpeZnAgjZVKKi6xevVoe2vg38CBl1Y8jJ4m8cMTEPBKmoKFBA0KoJSYbHuJoQ/bYYw9JJIfZBud5NBKQDJxa0YpCBtBUoEJnexxgOSf8YYhSCoOQOHEiIRtJHEkICWHCtAxpok+EGWNmUlEEFIGtEXBFTNROtjVwyb5BFY0q3y+flWTH0O/cIZAvYkLvMC2QQNAvE6G7M859K1byaCfw5SBjMtFrYQqryzPPPFPSAkBIcNiFbGDy4KFO6D/mJIgTpqhEPw5MPCRThNC0bNlSnHwx1eJnZleyYZ4Px0KLhqaG9AgQElL2q2o/7FHQ48UNgYzEhARk3ORkVsVJK0p/1K/gLwp9YsIk2yarZRz4VPKLQD6JCWdODgpW7HETzA6YUmyESaIZIsjzIYSf1PpWY8IDHG0OtbEIISYhIpXFO3bsKGYcZ18wh6BOJ1U7pBBySDQeeY/YnnIVEJSwhZBn5k/MTfRFRRFQBDIjkJGYkHkQD3ds0LxG4Y++oGLGYx/7OFE5Uegf+QywbaeLKso8JLqFHwjkm5iguicXBU5xcRSii3DKJDcD2oowBW0I/iQ81NFCQlYIpUVYhGy33XZbPeQJr2UuwATEIgrNBO/Jlko7LBwoDhqmQLRIvkfJDJzzVRQBRcAdAhmJibtm8rMVE01cHA3zg1DxHjXfxATkecCivncm/YvTiBCW26dPH3nAY04JSyZPnixROUQ2IGht0IRceeWVEqGDI2wywWxDojui8cgp07RpUyEw5Coi50lYvjL4s1BaA+dXtD0qxYUAdd8g0FwHKtkhEHtighOZiiKQiEAUiAl9QrPnLIOQ2M84fMa0Q7gwiwDISlDy888/S3VxCAgaExxaISXkB6EeVr169aSCMSSDgoUQPiZ/zDiQERIo0kf8TDCjkVMEgbAQ3YMGhYdGkEI0BhFCHDvoYwV5Htp29ghMmTJFfA2DvFey71089ow1MSGTIw8gFUUgEYGoEBMeVCQmI9txnAUiADHAvBOU8yZRM0Q1ofW44YYbJLIJTQ3+IpALhARk3PdU2eV7IuGIuiHzKv2iDaqIE51DUU8rFAolURvmlaDE5krBrBw3x+egMCnGdiHGLEaUmGQ/+kpMssdO94wwAlEhJkBEtAtO0YSPxllIZkjBTIiWTW4WxPlYFTj5H1LlgKBCOBmeSQBHlE6ihB2KC0nCdIMKX6W4EVBikvv4KzHJHUNtIYIIRImYAA9O0TZKB0dINCnk4SCNetwE006FChWk/ozblPZxO0e3/cVvhchFkqXFKXeN2/PT7bwjoMTEO2aJeygxSUREPxcEAlEjJqzwccgkrwUp0zEr4BiLiSGOQmguZh2Sh/lRsTiOGJD+ngy11OKi4KCKIgACSkxyvw5iTUwoK433u4oikIhA1IgJ/UNTgt0Zk8j8+fPloUYoa1wFZ1WcezFTcT7FJIQfk4ju5ptvLqbT1nN1gYASExcgZdgk1sSE1NMaLpxhhIv05ygSE+dQUAfm2GOPlVTlzu/j+J6QWHIKkW/E+ofE8Tzc9BkyduGFF4q2K1ORPjft6TaFh4ASk9zHNNbEhGJexapGzn3oC7uFqBMTTCHUUSERWyEIIb3HHHOMZLyNq3kq0zjYMSNtf2I6/Ez76u/Fg4ASk9zHOtbEJPfT1xYKFQElJuGPLCYqHHzJwEpekUISMvgeeOCBYjrWMNBCGln/z0WJSe6YKjHJHUNtIYIIKDHJ36BQvwr/CyoVx11wViZEmgRzOC2rKAKZEFBikgmhzL/HmpigMlZv+MyDXIxbKDHJ76hbs0ebNm3MBx98kN/OZHl0ErYdf/zxpmHDhgafIBVFwA0CSkzcoJR+m1gSk5UrV5rRo0dLkTRdxaQf4GL9NerEZMWKFeL8GueonEzXFonPzj77bHEUJStqnISHC6YbHOxxeFVRBNwigBmTsgQq2SMQS2JC9d5nn31W6mkUmi07+6HUPZ0IRJ2YvPvuu6Z27dopM5s6zyXu7x944AGpUzNkyJBYnAomqMqVK8e+jEAswC7ATl5xxRVmr732knpOBXh6oZxSLImJRaZBgwZS1tx+1ldFwCIQZWIya9YsKThXpkwZ06tXL0nvXuhhttS6obAddXCiGtHy0UcfGUxP1AR6++237aWkr4qAKwS++uoryQLM9dO1a1fR6M+YMcPVvrpRaQRiS0xIhV23bl3z2GOPlT4j/aQIGCPFHSn2FkV56aWXpJjciy++KAXoSGXO9Ux680IWTDvnnXee5DyJWg4Q6hlR+I+EcWTpVVEEvCCAqbJGjRqmS5cuJffx5MmT5VofMGCAmgO9gGmMUWLiETDdPB4IRFljkgpB/BpsFd1U2xTC93fccYeYdpzVf/N5XsOHDxfTzdixY/PZDT12TBGgEnalSpXE7zHxFKjKTSLFxo0ba86tRHDSfFZikgYc/Sm+CMSRmCxYsED8TsKujJuPUV6+fLmYdigPn6+EbBRS7NixozniiCPM4sWL8wGDHjPGCKxfv960bdtWNPevvPJKyjP56aefTL9+/UQjp6adlDCV+kGJSSk49EOhIBBHYvL7779LUTxSnheDbNy40fTo0UOIAc7sYcrzzz8vx3Wq3sM8vh4r3ggsXLhQos24fjdt2uTqZCjdgGYF51hN0pceMiUm6fHRX2OKQByJCVATPly1alXz8MMPxxR5790mIVvFihXNdddd533nLPYYN26cFB4cNmxYFnvrLsWMAIsHiAWFKydMmOAZCpyqmzdvLn+aGyc1fLElJpwStjvUyyl5EwAAIABJREFU3yqKQCICcSUmnMeUKVNkNVZMyQNxBKbWTocOHcznn3+eOJy+fLYamsMPP1xNN74gWlyNkHCvdevW8txZtmxZ1if/66+/mosuukj8mjR4IzmMsSQmX3zxhcGrf5tttjHdunUzXCSaBCn5ABfrt3EmJowZ0SuErhaTEA3TqVMniWRYtGiRr6fOSrVOnTryYMmXT4uvJ6SNhYqATbiHmXXLli2+HBt/E0odkMQPsqLyFwKxJCY4Gg0dOtQMGjRI/lDJFoPD4F/Dpu8yIRB3YoJjJit7zA7FJnfffbeYs0aNGuXLqd9///0SBRSWqciXTmsjkUCAwpQQB0LJISd+C1nMGzVqJKadNWvW+N18bNuLJTGJLdra8dAQwA6MujTOQqTIfvvtZ9588804n0ZWfSds+pBDDjGnnnqqgaRlI0RDXHLJJZJaXqMhskGwuPdZvXq1mG3q169v3n///cDAoFAk8xUlEDDjqsQ4j4kOniKQDgFst5Sqj7tceeWVplmzZobJq9iETJrdu3c3NWvWNF5r7WC6YSXaokUL8+GHHxYbdHq+OSJAGYUqVapIoka/TDeZujRp0iQx7ZCQrdijdlRjkulq0d8VgTwiwKq/SZMmhsmqWOWWW24xFSpUMCNHjnQFwZw5c+Sh0rt376IkdK5A0o2SIvDDDz8Y/EiIjHv00UeTbhPkl5hzSMbGPU89rWIVJSbFOvJ63rFB4I033pDwRCJXilUw7dSqVUsSoqFJSSZoldAwoRKfPn16sk30O0UgJQIEUVBYk8ibfNZzQkNDQraDDz44L+QoJUAh/hBrYsKEjfOQiiJgEaAYHloG7MPpsjHa7ePySq6P6tWrG0Jei1W+/vprc8YZZ4hTcCJJ40Fy0kknGfwB3nrrrWKFSM87SwRwMsd0Q0BFVMwo+EXhY3bxxRdHpk9Zwut5t1gTExzbBg4c6PmkdYfCRQB/AlT+TDJEbhWK/PHHH6ZVq1YG80SxC7V20IrYqJ0nnnhCVpc4O0NKVRQBtwhA9AlRx9Haqx+T22Pksh0km4RsJ5xwQlGZdmJPTK6++upcxl33LTAEyGfz8ccfSw6Qa665pqDOjqyw5D2YOnVqQZ1XNidDCntMOzjGVqtWzdx1113ZNKP7FDECRL1hukELF+Vkhpgo+/btK+bcYrn3Y01MKGtPvgoVRSARATQLQ4YMSfw69p8ppY7tGfJV7IKvyeDBgyXBYrFjoefvDYHRo0dLGYQbb7zR24553HrmzJmi2SG0uNA1g0pM8nih6aGDQ6BXr14FSUxA7PzzzzdU5cW8o6IIKALuESDrLxqSo48+OpZlCYjUqVevnoTCr1271v2Jx2xLJSYxGzDtrjsECpmYYBfHEZYMqSqKgCLgDoHnnnvOHHbYYaZz587mm2++cbdTBLdCW3LVVVdJSDMViwtRlJgU4qjqOZlCJiYML1EpeOwTmaaiCCgC6REg2ob7ZezYsek3jNGvVCCnyjEp84lGLCRRYlJIo6nnUoJAoRMTTpScHccdd1zB25tLBlXfKAIeEfjoo49Mu3btpHL1kiVLPO4d/c1JyHb88cebpk2bmlWrVkW/wy57GGtigjrr2muvdXmqulkxIYAfRqFF5SSOHxFIZIks5qywiZjoZ0XAIkBZCtIGUKn7+++/t18X3CsJ2WxNKBxkC0FiS0wIoWJSpsjX//3f/xXCWOg5+IjABRdcUBSkdfny5aZy5crmpZde8hE9bUoRiC8CEHZMN4SRU3+mWGTWrFmSTqAQ8vnEkpigvkKFTT0ByEnLli01fLJY7r4M5/n555+b++67T2qrUO+CYlyFHlp75513ijPst99+mwEd/VkRKGwESLDIc+GYY45xlQH4vffeMx988IFkVvWSy4Rtf/zxR09gklF2xYoVZvPmza72o6Lxf/7zH4NG5PXXX3e1zzvvvCNmHZKy8ZyMq8SOmDzyyCOSx4GEMzBjii7hT4C3NcW7VIobASYMPNVRaZLSmfeFTkwIGz755JMNWiIVRaBYESDHDwkIyfPBcyGVzJs3z1AYEmLRpk0b061bNyEmt99+uznrrLPMm2++mWpX+R5H0xNPPFHqNvEMSiWJ4fz0qXz58iUZi3///fdUuwpZwlmXQoJYBDp27Ch9S7mD4wesCWBwwAEHyPzn+Ck2b2NDTGz2OwYrWTl7VsaVKlUSe7uadmJz/WlHfUKArLCorh966CGfWtRmFIF4IED47KWXXioP4ilTpqTtNM+GBg0amBYtWggZ4Z6xfooQBfID4Zfy66+/lrTD9zx/+ON7anCVKVPG3HDDDfLZ/ka9JrLJ8hmBwAwbNqwkrB8Ss8MOOxib1A1tDYSDMOZEoT5OuXLlDOUWiLwjw/lRRx1lXn31VTk+iUX5Q5uSSihkSTLG/v37i+Yl1XZR/D4WxARv42bNmon3MYOZSv71r39J4hmKeaGeU1EEigkBwgcxX0FSVBSBYkAA0wgJx9BgrF+/PuMp86CHVJADiOfFNttsY2699VYxe5Cw7IUXXjA33XSTkBUWuxAZCoI++eST5plnnjFLly4V7eTee+8tFayJ9Hn++edL9uvQoUOp4qHkGyJiBoFA7bzzzoasswj+YRw/kUxBfP72t78ZMptjniXDMff1ddddZyhkiVaYattodjIVHFy3bp24O4BRumendChC/yJPTNCO4NzXp08fMd1kwg713Lnnniusd/bs2Zk2198VgYJCAHMOxf5UFIFCR2DixIkyz5PHI51JxYkDD/R+/frJQ338+PFm++23FxcAFr8UzIOE8DDHaXbu3LlCTDDJWC08ZGCvvfYyCxcuNDibnnnmmWl9TerUqSNaEfpAGxATilAi+IPYtmwfISKnn366fH/22WeblStXin/JLrvsItFF9BGtKBGpbiuN46eCaQftEIuXOEhkiQnhXXgXU/WRsC+vQrEjWCYXbaHXFfCKjW5fuAiQ0fKII44w9957b+GepJ5ZUSPw3XffiV8I8/uCBQuyxgKTCm0k+qMk+obYA6CdoMovJhWIDL6NEA1MMWhOhg8fXsrhFrMP92LDhg2FCJEUsWzZsmJ2guCgkUF7Y0N8OS8IBxocgjpOO+00SaS4aNEis/vuu8s50wZV06kFtmnTJts1V68ch0U++7olcq4aDmCjSBITvJEZTAYHBputwDZRYZGAxo2aL9vj6H7RQ4AS5rlMWtE7I/c9sllhUXOrKAKFhMBrr70mczppIkielotg8ueBjynFaY459NBDt3KAhayMGjVKNCzU2sGfBN+NAw880BAJhG8JJAO/DitoSNDQoHlhe0wpO+20k4Qy85kK2Wj3MSkhaEuIvmEhTVQRxAfTzRdffGF23XVXITQbNmwwb7/9tmyHicer8DzF7IV5ibo7UZXIERPUc3gTDxw40BdWhxoLxyiYcbGUjI7qxRZmv5g0WBkUq5B0jclHtYXFegUU1nnjgEo6eUjDiBEjcj45IvVI505UTvfu3Ut8NerWrWvq16+/VUK2u+66S7QZbI/DKoIvChp9hOKAEBN8WKwkRt3wGQ3LmDFj7CZJX3FHIMq0a9euYu6BuKB5YU7DlIMvDFjQD0iRV0GTg2YG/xeiXK2Zyms7QW4fGWKCOg0/EggEYZ5+C6wYdksab52s/UY3eu3hsY7zWLEKqlpy/XC9qygCcUeA50OtWrVEk8BiM1cZOXKk1M7BZQCtBWYOHFz32GMP8euw7RNhg18GZh+O2759e/EB4XcIElEvRN9AECAmTi0tSQ+pYrxs2TJpjggap/MrX+JvwiLceU7cu7gx9OjRQ7QqON2iXeEPzQ6hzhAltC7ZPsvQvBB9RA4wZwSSPe98v0aCmKByRnVFCFeQEQUknCH5DmaiOHko5/siiePxi52YMGastFgVEmmgogjEHQGeDfhd8KzIpXgl5pF9993XkLcEod1GjRpJUkY0CE6BMBAlY4V8QfQBscSE9/h2QUzIkWIF3xO+szV6khET8nFxjyb6i9DO4YcfLuHBmKzQyKDl4e/YY4/NycGd+QBtCcQHghJFyTsxIQEWSXFQPdv47yCBQk1GXQGYbuJFGORxte1wEVBi8ife48aNkwku6mXeydhLoisbShnu1aJHiwsCmB0wofAwz/ZaOeecc0TzYc+Z6E1MNGgYL7zwQonKsb8lvuKfgX8LQh4TTC6Yb3r27Cmhv/jAWLF+J7a4Hn3Hx8QSIrbDpIImyKkx4Xv8WXBpSFbjh6gdS47ssdy+4qCL5eCee+5xu0tetssbMQFwwqEgJY8//njoJ4+5iIEvhLoCoYMXgwMqMflrkJh0KWoYVSHqgNUhq1FU3zgXZuPYF9Xz0375jwBkgFU/ZNbttYKPx2233SYkgucPGkUKfbJQRSuBRgNiAtnA8RQTTqImAz9FTD4I+0KQMONcf/314oLgjOhB64HGBDcCHFZtYja0JPiK8B2mIY6XGBkE+SJEmLBkgjiwKhDJw3uIDPe0F8GBlvvqyCOPjIUGNS/EBM9jsu8Bbq6e1V4GJ3Fbon8I/yJ5GxeJSuEgoMTkr7FEDYzvVmIip7+2yN87HhSs4OzqF81O586dZfIlukhFEUiFACYZHrY4oOJ/kUl41pC2Hu0c/h9oSsikmig8/Mm0SlhuMo2F3Z5cJxQLdJIR+xuv+ICQyA1CQm4UnjdoUTBD4cDKd5AbnFoTw3chRWh2IE+4IBBNwx/vyVQ7YcIE56HSvofEQX5w8o1LPa3QiQkF1ipWrCjpdFMNaFqUff6R2HScJLE5RnHi9vl0i6Y5JSalh5qJjgRL+VwIOHuEbbtt27YldnTnb7xHlc08gaOfiiKQDgHILZp3HFrTiTP6JIoOn+n6nu1v1iRkiX+27YS9X2jEhJUQDBCV7fz588M+z4zHwysb5o1ph0Q3KvFGQInJ1uOHmhotZb4XBKwYyYiJGpvVayphFVyzZk0Jm3Srrk/Vln5f2AjgYGrNgZgtil1IW48fSo0aNYzT7yUuuIRCTKgJwARDqmzUW1EVbIXkfiApG+mCVeKLgBKTrccOezk2ZpsSe+stgv+GY1NsE8dBN4JmhQmW/BU2usHNfrpN8SHA4ve8884TglLM5Ugg9NznmG6iGnWT6eoMnJgwEeFkykSU75VaJjD4HdPOkCFDJMabWgoq8URAiUnyccO2ToVu/LzCFGz11PHB1o1Dn1dBFY26Pp+kymufdfv8IHDnnXcK+bVVg/PTi/wclUJ/mEDJcxJnCYyY4GRD1A1hufmIusl1UDDt4DCIaSedA1Sux9H9g0FAiUlqXHHso9xDtsmZUrec/BeiCWrXrm1IAY6KOVsheof5BOfYxGiJbNvU/QoTAaJeyPdBbiycTAtduK+obEzm2kJwGg+EmJDABVUS8dbpbMhRv1hIZtO6dWuZVG32vqj3Wfv3JwJKTFJfCUQAYLKk4mjQgtMtGSbJ1+BHniL8Bzp16iRRO0Q4qCgCqRDYvHmzhMlDZqkEXKhCXTAc2yHsnHMhiO/EhMQtmG6GDRuWEz4QGgBH84IJiFS/6eoCMGGhInZ6XuPEiuqalMHZCrHvrDAJaaSOj0o8EFBikn6cbFbYoB7ukB9MN1QzdWbDTN8r97+ipkdlHfVEUe7PSLcMCoFp06ZJvhHyh/hBjoPqp9d2eS7aCsmFVk3cN2KC4xFFhXBSIxVvNgKBIFMlpp+nnnpKCA4VECEpZMyzoYNMeviCOKVLly4SVUN8OMdfunSphCRT+4BJmBT0DB4qvmwEYoRpB/OURu1kg2C4+ygxyYw39wORDNy7fgqVvFGho5WxWS/9bN+2Rd0Q6+Tn9znYY+hrYSDAvN+8eXOpNB/lqrpu0SZKjQy03L886wpNfCEmmG6wIdty0LmAhJ0MgoNnMaBv3LhRMvBtu+225qGHHpIiRqT/dTrB4YFtwwrxCSHNPcXLaAunW/IlkOmVhDi5RNugsTnllFOk+mQcQ7ByGZe47avEJPOIseJiciPLpV/CfYZ2MazVKVF+3N/c/0T/qSgCqRAgdwlZXtHixTlnFYtkqg2TfqNQCXnOxMQmQrr55ptTXQ+evqfUM/ZoQgOJwSYhFAQDQoCfB9oS2KLNYIfTD9oStCQQJEJ9yZPC5Ghr4RCmTD8Rp6nHU8ccG5MREDUyWf1UoomAEhN340IBM2zwuU7UmDwxrxA5w8IgbCGFNyZkZx2SsPugx4sHAo899pho9snrEzefDEw3PHtIKlfIkjUxIR0wzjbUtsjWdJMMWIgJTnn4hkAypk+fLhcRmg4IC/4eTqHGAPUS+vTpI8QEMoIpCO0NBYtIBwzDfOCBB0TtSwpgP4Q0v5a1WpLkR7vahj8IKDFxjyM2eMyU2WaFJeU9pR1ImpaLRtJ9j5NvyX1OkkRWkmpuTY6RfvsnAmi/Me3wjMnWvB8mllYzSNRNLpWVw+xzLsfKipigmcDMQtQNBMVPQTtCwbGXX35ZJhnKUVvHHsIOKYrkjE9nkCikhPc/2hT+mJQIhaSSMKYgBpXiS1yIfuZvoF0yaR511FGxzK7n57hFrS0lJt5GpHfv3hLO6zXX0DPPPCNzAb5XUSDoNuMlph3mEBVFIBUC+Cmi/eb5EWUnahb+5P8hGq1QTTeJY+SJmDBpoTIl/M/p45HYaLafMbMQzQOJwIeD6opjxowp1RyZ/QYMGFDyHRMRzq0QEjQ4VHlkX4ozQULQsLAapDBTUPURLCaqRi4Zlry/UWLibQgg8DiSejFPMqmTxZX6V1ETFi+YczVJYtRGJnr9mTt3rpDrqPls8DwcPHiw+MRE8R4LciRdExO0EDil4uSKeSQIYSAgGdi98TF59NFHDblECAXm+KiMrS9J4sruP//5j1xckBa0OF9++aX4ouDshO056DAx+oXmBMdcNDUq+UVAiYl3/LnnyAqbyYkUEsMiAK1ElJM52YRsmHo1SaL366GY9uB5gRN19erVxY0g3+fOM4xaUrhKFKPmzzUxgRygTjr55JMNfh1BCSud4447zqxYsUIGhkganOkYJPxOMJ3wPpGYoDlBk4NGBVMTKmbCCS+++GKxf/N7kMJk3axZMyFuxaJuCxLPXNtWYpIdgmgYmzRpYiD6yYS8J2hWWKREwXSTrI/O7/AlYM4gC2gmwuXcT98XHwIsjInizHfpA/wXedb26NEjds65fl01rokJB4ScWBaHqSQIQXXFAx7BlENyJhKtcbEwWWJnS5axklwnEBOICBMQWh1MOnhgEx42YsSIILorbUKAYNpnnXWW+LQEdiBt2DUCSkxcQ1VqQzSL+GL179+/1Pd8wNcL7aONcNtqgwh/gYkYs5MXU1WET0e7FiAC1qejXbt2vvtQpus2ebxwC8AEWezXqSdiYkEl0RkqX79ChG27vGK3ZmJE9t57bwn9RSWLsy3EhJUa0TmJgkaESTOxeBGaDNoJwrkJrQ1Fk/bdd99A2k88R/3sHgElJu6xStwSJ3McApmgEcwgNoEhJDyuwiKHeYQwUTW3xnUUw+k3KSmIEMU8jwYjaGHR37JlSzleMUTdZMIzK2JCo9anggkL+1yuAlskbAv1FSFc2LvLly8v5IfKooQBPvnkk1K7hgJkRO44VbNEyEBAzj33XHF8ZX8y4hFujOaFcGE/BT8YGPUxxxxTlDZAP7EMoi0lJrmhyv2C+YMyD5hWMYdkG06cW0/83Rs/NYoJ4ivnnD/8PYq2VigI8OxB00b+kKCEe8z6J27YsCGow8Sq3ayJCWeJjZl8IaShz3UlhfaBSYOU8rzCWHnFRMMf7yFAaEbYhlWd08aNZgT1MzlMnM6vbEulYD99TGDQmJa6d++uK6+IXu5KTHIfGBIcknEZrWAhCYsgfNmI1pswYUIhnZqeSwAIEN1Jjh6SfPpNzrEQqMZ960HLiZjQHIQCmzMPakw8iU6pWx8yvt8woZG0jXNNNBnF96wKs+dKTLIfV0LvL7/8csm8bHMIZd9adPckQzTmXyLpyHukogikQoCFL7l6cEolkV+uQrQpGvf69ev7mlsr135FZf+ciYk9EUKayIRK7Q0/TDu23ai8ciFRmKxWrVqqAo7KoKTphxKTNOCk+QlzasOGDcXPi2J8hS7r1q2TlTDnrKadQh/t3M+PKFFMOxB3yjBkI0SMoq3DDSJuKfGzOd9s9vGNmHBwwmTJGYC9DIfVQhGbgIdiZ5oPIR6jqsTE+zhRDJMJs1+/foHn/fHeu+D2IEwUh/oKFSqYiRMnBncgbbkgEMC0Q0ZyarBBbN0KmWYpiUL06NixY93uVpTb+UpMLIK33nqrFBoiJjzOwoQ1ZMgQYciFrNKO8xil6rsSk1TIbP09JsrLLrtMwupxFvdLaDcXZz6IEv2hHQRfMUpPBCX4jhG1Q4XyIHM1BdV/bTc8BDD9cZ04i8WmOzpRNziQk5SQYrQq6REIhJhwSCJignIYSn9K/vy6Zs0a8d5v0KBBURRN8ge16LSixMTdWODMx8qPCByyLvsp+KrgIE6ZCAQ7PatNciAxOWM64RXfNKLpnCSG8hFM+q1btxbtDQ8C/EEwF2/atMnPbpZqixUwUUgUS8tnQcJSndIPkUUA4kx17ksvvTRlIAQ+KfimkPxTi0u6G8rAiAmHZwIhdTVRO9jV4iJE9qDSZrLUfAdxGbXS/VRiUhqPZJ/mzJkjjtys/IJy/qRyMYU3idrD1EvNKqLs0KaSAoBoOzI6c885s80yme+2224liwLIDYSB2lmMbZBiVe44uRdbjZIgcS3Utt9//30x7WDeee+990pOE00f1y05gYKoLVdyoAJ8EygxsXhxc5N9FftalAVnJkKOWZlNmTIlyl3VvmVAQIlJeoDIy8B1HnSGScjG/fffLw7xTNr4rzBhMydUrFhROkm2Z/ISYTq1QukL8hkhq1atMvvss4+QF+5RFjuYWIOOAKRWFxj16dPHQFZUFIFUCKAdHDhwYMmzg1IIaPvQvJHaQsUbAqEQE7pE1A4RLRRKIjlZ1AQVLpn3mAzVOz9qo+O9P0pMkmNGIkLyMVAcLOgMk06iARmBVJBAkfsMMoK9HZMv2kkSIlrBpLTjjjuKvwfmFOYMW1GcdqiFdcIJJ5jTTjtNyEqQBTp5wJCQjdUw2h4VRSAdApRAQRNIsk/Ci525ttLtp7+VRiA0YsJhiWjBPMJERKRLVAR1s10ZbdmyJSrd0n7kgIASk63BY3FAxBxhivh7BCmQEPxJyNbMQ50Mmgi+W3ymD0QnkB4ekxIrTgSnU7SWkBGiZAYNGmRmzJgh6cFHjhwp2x1//PFSUwQne2qLcKwgBeJjNalTp04N8lDadgEgYLMmO4l5AZxWqKcQKjGxZ0bdGiYlMkrmc/BwsKOaKkSJ+HSVwkFAiUnpsbztttskw+Ttt99e+ocAP/FAx3dl5513FmKC9gNfM1Jw9+3bV7QiTOIQE0w3ROFQvZiHP6Rjp512kizPdBGSQrZWBEfCfETJsZiqVq2amHZ0ARPghRPzpjEBkjwtn8+2mENo8kJMAA11LaYdkpb5nebXzaCwcsOZjsx72LBVCgsBJSZ/jieT4yWXXCIh75hNwhb8QFBrkx8EfxOiEnjF+RWnQDQllJ9gDkCLYzUn/F6uXDnx7eA72rD1SkiVn688ECRaJNoQU5LmNAr7aorH8R555BExl6pfUvbjlTdiQpfJekdEACsgVkthCSsyQrzI3aBRN2GhHu5xlJj8iTfEBHMHpsp8aAU5PqTC5h8h+gbB6RaH+FRC6QccXtG4EN1Htk1biDOfxITipdWrVzfnnHOOUa1JqtEr7u+VmOQ+/nklJrb748ePl4kHs0qQAoNl9bjffvuJujjIY2nb+UVAiUlp/Am/JWwfn44wV/poTKgSzmRNdI5NukitKcwzqRxXLTHhLJ5++mmz5557in8K/iT5ICYQLPqOCVrrZJW+tvRTaQSUmJTGI5tPkSAmdBzTTuPGjcVjHzOL34K5pmnTpqKCVdON3+hGrz0lJluPCRE5RMRgQg06IsceHTMMmo8mTZqUclTFGbZs2bJixrHbOl/xP0PTQlVwzCb4pCCYgUiyhp9aWEIUIZE5mrUzLMTjfRwlJrmPX2SICaeCWYV8BqidcYjzSzDdoDZmcrM2bL/a1naiiYASk+TjgsM3obqs/NFgBC2E4WOGIbus897jXtx1113N119/nbQLZIPlnmUc77zzTkO/EaJ2cEAlQicMwZERU/MFF1wQaMbZMM5FjxEOAkpMcsc5UsTEng72aLIuUsExlarXbpvuFaKDDwv+JLNmzUq3qf5WYAgoMUk/oITxco+RMj5I0w4mEDSUOLg65cUXXyxJmOb83r5Hu4NWB42JUyA39D3oXEj0G9PyvvvuGwqBc56jvo83AkpMch+/SBITTotseSQ7Q437wQcfeD5T0gRjGkKFzHuV4kJAiUnm8SYS5tRTTw2kTk7mo0d3CzLUkiuFuUPr5UR3nKLaMyUmuY9MZIkJp4Y9meJIqJ2tV7+bU8aZFjUwK55cNC5ujqXbRBMBJSbuxgXNAEnMcAjXujB/VjCmeGDv3r01Ys/dJaRbJSCgxCQBkCw+RpqY2POhbg1q5yuvvLKUndr+bl+xP1PXAhs0qYFVihcBJSbexh7zyJFHHilhsEFnhfXWs3C2ZhFE9VdIic4d4WBeqEdRYpL7yMaCmHCaNpV1gwYNkppmMP3Url1bTD8kQVIpbgSUmHgffyr9YjolaqeYCo85I/beffdd78DpHoqAAwElJg4wsnwbG2LC+eHMimkHZ1ZnzQoSL6FRwXTj9PzPEhPdrQAQUGKS3SCSJ2TEiBGiOchH2vfsep39XtbsizY26Jo72fdS94wTAkpMch+tWBETe7ozZ86UkGJICgmjMN3Mnz/f/qyvioCEmZLZVyU7BMjQSpVUMpwGGbWTXe9y3+ubb74R0w1ZXOfNm5d7g9qCIvA/BJSY5H4pxJKYcNpE2qAlIdlSPmrbo9XBAAAgAElEQVTt5A69thAkAqoxyR3dL7/8Uqr8YiJ99dVXc28wIi0Qhnz00UeL2QrzlYoi4CcC+ERiEtVaOdmjGltiwilTinzo0KHZn73uWbAIKDHxZ2gxb4AlSQ9trRp/Ws5PK1RX5lyoH/Tf//43P53QoxY0Aq+88opU09brK/thjjUxQVXPpKmiCCQioMQkEZHcPi9atEh8u7p06WK+/fbb3BrLw95kmD3rrLOkAN8TTzyRhx7oIRUBRcAtAkpM3CKl28UKASUm/g8X0W6nnHKKJGRbsWKF/wcIqMVnnnlGCEnHjh3Nhg0bAjqKNqsIKAJ+IaDExC8ktZ1IIaDEJLjhGDZsmFQGpoZN1IWaO+QmCau2TtTx0P4FhwCmG2o6rV271rz22mvBHagIWlZiUgSDXIynqMQk2FEnkoWIll69epkoJmSjxg7p9nGOf/nll4MFQ1tXBP4XkHHDDTdIlCjVs1WyR0CJSfbY6Z4RRkCJSfCDQ2G+1q1bC0FZtmxZ8Ad0eQRCnSEkhDoTFqyiCISBANmDSQRav359c/PNN4dxyII9hhKTgh3a4j4xJSbhjD/q6+HDh5uqVatGogovUXqVKlUyd999dzgA6FEUgQQE2rdvL0kKE77Wjx4QiDUxueiiiyRk2MP56qZFgoASk3AHesGCBaLC7tatm/nuu+/CPbgx5sMPPzRt2rQRx9zly5eHfnw9oCJgEWjbtq3BpKOSPQKxJiazZ882TIgqikAiAkpMEhEJ/vOnn35qWC3WrVs3VL8O0sofeuihpl+/foZqySqKQD4RUGKSO/qxJia5n762UKgIKDHJ38gOGTJEzCnjxo0LtBO//PKLON+WKVPG7LnnnuaSSy4xc+fONdj6VRSBfCGgxCR35JWY5I6hthBBBJSY5HdQSMiGA+rZZ58dSO4QSlK0aNHCNG/e3GC6WblypWhMmjZtKlXG+/TpY5566qmCrPOT35HVo2dCQIlJJoQy/67EJDNGukUMEVBikv9Bw7RDQrZatWoZ6tP4JQ8++KCklSfzc2I18S1bthgSql1++eVCUJo0aWIgKYsXL1ZNil8DoO2kReC0004zN954Y9pt9Mf0CCgxSY+P/hpTBJSYRGfgmKSpT0Odmlxk8+bNpm/fvuawww4zjz76aMamIClz5swxOMlDjho1aiQlLF588UX1RcmInm6QLQLt2rUzo0aNynZ33c8Yo8REL4OCRECJSbSGdf78+eaQQw6R3CKbNm3y3Lm3337bHHPMMQYNCBE4XoV8JvifdO3a1TRs2FByTRDmHKX8K17PSbePFgJUuZ8wYYLZaaedTI0aNcyMGTMMFbpVvCOgxMQ7ZrpHDBBQYhK9Qfr8888Nau4jjzzSLFmyxHUHx44dK2nlr7vuOoPDa65CYrjp06cbQpsPP/xw07JlS3Pttdca/FY0qidXdIt3f1LR33fffWbKlClm0qRJktcHc6aKdwRiR0zee+89mdQoxsXkQoa9N9980/uZ6x4FjYASk+gOL7V2qlSpYiAc6YQqxj179hTTDdqOIIQVLdFDnTp1EmddcqGMGTPGvPvuu0EcTttUBBQBFwjEjpjMnDlTUmAPGDDA8B52inc+bFVFEbAIKDGxSETz9dlnnzUHH3yw6dKli0lm2nnppZfMUUcdZbDXo+EIQzARseIlzX69evVEkwJp0bklDPT1GIrAXwjEjphgK6YWAROblc6dO5tp06bZj/qqCIiTI1EbKtFF4OOPPxbiUadOnVIJ2ahajEYF0w0p7/MhaEzuuOMO06pVKyFIZ5xxhmhWMEepKAKKQLAIxI6YfPHFFxKC6LTdkSth6tSpwSKlrccKAdWYxGe4SN+9//77S30RFhnkPyG8NyoCScFRFjMPFZW7d+8umlp1bIzKCGk/Cg2BWBITVK1Oz/wePXqoxqTQrswcz0eJSY4Ahrw7uUdwioWY4D8WRcExdsWKFUJSCD3G3NOxY0cJSQ7L3BRFXLRPpRFYtWqV+D+qI3VpXLx8ih0xYZXCymX9+vUl54nGBEdYFUXAIqDExCIRn9fEZGlR7zl+MKTfh6BgjurVq5emxI/6oIXQv4ceekj8Hn/77bcQjlaYh4gdMfnkk08kl8GaNWtKRgT77wMPPFDyWd8oAkOHDjVXXnmlAqEIBI7ATz/9ZCAp1Opp1qyZOfrooyXz7JNPPmn4TaW4EHjkkUfMySefbJSYZD/usSImv//+u5STJskSDnLIK6+8Yo4//nhRqTq1KNlDonvGHQH8j4joqFatmlm3bl3cT0f7HyMEvv/+e0mJf/HFF4sWpUGDBubSSy8V4qLFBWM0kDl0FWJCKQYlJtmDGCtiwmmi7v3jjz/Mr7/+KmfN4GPL43O+PPizh1/39BsBCreRYRS1Og+Hgw46SNTrfh9H21MEMiHw448/mlmzZpnevXtLJlAKDg4cOFAWUzpXZUIvvr8rMcl97GJHTHI/ZW2hEBFAm0bkBETEmbhr4sSJpmrVqmbQoEG+ZA0tROz0nIJHYOPGjVLfh2yzpDtAk0INoVxT4hOliJZGJToIKDHJfSyUmOSOobaQZwRwiCZSC/PN66+/vlVvbJ0VVqzkzlBRBPKJAKZG6qh06NDB1KxZ03BdQlJWr17tuluvvfaaGT16tFzzRIGoRAcBJSa5j4USk9wx1BbyiACmG/JenHvuuYZVaSphVdmnTx9Jb/7444+n2ky/VwRCRYCEbffee6+ESVM1mUy3t956a8Zsszj/k5W2bNmyRolJqEOW8WBKTDJClHGDWBMTyqB/9913GU9SNyhMBEaMGGH23XdfqW3i9gyZzEnmNXjwYC3Y5hY03S4UBKhOe9ddd4n2r3bt2vI6fvz4lA7cP/zwgxDtlStXhtI/PYg7BJSYuMMp3VaxJibXX3+9ueWWW9Kdn/5WgAgQMk6VWvJH/Otf//J8hu+8845p3LixpBv/4IMPPO+vOygCQSPANXr77bdLxOExxxxj2rdvb/CXciZyw4RJvaG33nor6O5o+x4QUGLiAawUm8aamBB1obkqUoxsgX794osvmkMPPVQmauomZSuYdrp27SohxU8//XS2zeh+ikDgCEA8cOymWOmxxx5b4ouixCRw6LM6gBKTrGArtVOsiQlF2sjwqVL4CBASTlG3Aw44wNxzzz2+nTCr0AMPPFCuIxuC7lvj2pAi4CMCv/zyi3nzzTcNhARRYuIjuD42pcQkdzCVmOSOobYQMAI4tZLdFyfXJUuW+H605cuXG2z6lDog/FJFEYgDAsmICWHzW7ZsiUP3C7aPSkxyH1olJrljqC0EiADF3ajoSv6HTZs2BXYkkmGdf/75YrPXqJ3AYNaGfUQgGTGBxHfp0kXS45MSX7WAPgLusiklJi6BSrOZEpM04OhP+UWAsMn99tvPjBo1KrSOUOqAqB0ifjQ7Z2iw64GyQICoREKM165dW7I3Jk/q9kCy69atKz4p+OG9/PLLkjW7ZEN9ExgCs2fPFuf8wA5QBA0rMSmCQY7bKbISbNu2raTxJpFU2IIdn0iIk046SROyhQ2+Hs8VAl9//bV57LHHTJkyZcxtt90m1dYp1eEUiAsp8S+88EJJxHbiiSdKSnxMl5h84i6cA4Rr/vz5ZsGCBZH4I6/S5Zdfbo488kgphYHWKgp9A6OFCxcaIhrjILEmJqwErr322jjgrH10iQATDdVZO3bsWOLk53JXXzf79ttvTY8ePcSvBXOSiiIQJQRYlVMckMSCRCfecMMNackGZtCHH35YrulatWpJhXa0gpCUuAp9xxmeIq5kfm7ZsmXe/1q1aiXRU2TzjUJ/bB+odox2DZIaB8lITN544w1zxx13CCuHmUfhb8yYMdInVJXko0D9znf57humhylTphitIprdpU9abhKmgWNUhLo79Omaa66R4pFR6Zf2QxHIFoF///vfZurUqebUU0+VXEBNmzaVufO9997Ltsm87Pfcc8+Zhg0bms8++8z89NNP4vSL42++/+gLxWbz3Q/n8enPTTfdJP5HeRksjwfNSEzI9VCjRg1zzjnnmO7du4f2x2qVv3TH7Nmzp/SL7c4++2zZ3u7nfE3Xhl+/cXxW+RUrVjRLly71OAzFvTlJo8466yypG/LCCy9EDoxXX31VStiT5CouqtDIgagdiiQC1I6CfJ955pnm8MMPl/xA1OBZv359JPvr7NTzzz8vdYbIgKuSGQGyChNEEAfJSEx4YKCRUMmMADcIKjxuGBV3COCoZydEzCe5SJARCIwtNzWVijUhWy6jpPtGFQHICFpnwubxkSC78oQJE8yHH34YyS4zzzZr1izQaL1InniWnSKTcMEQEzQm+SAm2A9vvvlmg5NXJqFaJ/3EhsqDjlU3r9OmTTMXXXRRaDcWdXuwdy5evDhTl/V3Y8T8RnIzxjnRcc8CRMr5fv36mXfffdd+Ja+//fZbqc98WLdunWjYSJrGpPXss88anNEo3ofjV6LMnDlTrplEQkMCN0yDJLRKFMyaVapUEbUoERAqikAhIkBFbkgKCy1KP6AtZH7FbBIVUWLibSQKjphwQkEKDyVsYPhm8Md7CAlOkDwEeOBjLyON+Lx58wyRGs6HAowe73QeGjh5sfK2zl58zwMqDOGY3MhKTNKjTSp5JjqcsSCQVhhnnF9JO4/9mHHm/d577y2rN0gKZhXyBJBw7YknnrC7yithk7vuuqtcB5ANiAX29G222cYMGjSo1LZ8YPLdfvvtJeeD80f6dsghhyQlJmy3bNkyMW/icEd1WBVFoJARwM8Q/68TTjhBonswfz/00EN511QoMfF21Skx8YaXJAHCL4NVLdoOHkpk+ERTQzw+xAINCg8iNCM8ZHAwsoKdlPLfpKfnYca+PMBw9tlzzz1D8zxXYmJHJPUr40wobrKoG8gEJJMwR0Ls2IbxxAcFotqrVy9z1VVXSbQO2hFnQTOOSEG+SpUqmfvvv7+kA+y38847m7vvvrvkO+cbrhHaRXtCmN/7779vhg4dKgST7SDNyfKZkMgKPyb8r7heVRSBQkeA+3PFihVSnwzNMJmYL7jgAlkscs+GLUpMvCGuxMQbXrK1c/LHr4VQNivE4uO4w8MgmVAuHM0IwLMa54G1YcMGM3nyZCEskJQwRIlJepQxjxDh4hzbxD0w0ZAWHvMcZh6IKJoU4vBJfPboo48axjuZ3dsSk0mTJpU0y4SJFsVpjuRao5y8Ne/ce++9pnfv3qLBoX1MS3j70x7hmOedd14pDV1J48ZIBBEOz6woVRSBYkGAHCJohlkkUs7huOOOk3tl0aJFcr+GgYMSE28oKzHxhlfJ1jwweBAcdNBBovGwP/BgYqVMFtAHH3xwK38EnLZw1mJVjGaFVTnqdrzLsY86MyPaNoN4VWKSHFWIIk5XNWvWzKhdgEQyljYpEYSU7+677z7zwAMPSMIzNCms1jD5OQWysscee4jm4/XXXxdtC+3YJFTObZlA//GPfwjhhfxwHLQfhCrjl8RkS/gk1VwJp0wnmJ/q1KljOnTooFE76YDS3woSATQp+HKRV4X7gL8rrrhCnMSDTOSmxMTb5aTExBtesjXZPqkWDDGhiiwqfCuQElbZqNx5yKxatcr+JK9c/HzXuXNn884775T6jRooYYkSk62RhiBCIvDHSDS9bL21MXPmzDF77bWX+G6Q2IzIAK4NSAekAXJC/oWjjjpqq90J5cUOjv0bTQmf16xZI1lkkyVJ4zrDJwjyMW7cONHQ4OA3ZMgQSY7EAchAizYlk3C8008/XXxT8ItRUQSKEQHuA7Kdkl4CrWP9+vXN4MGDxXcsmcN6LhgpMfGGnhITb3jJypf0ynPnzpU9sfezKkZwLsRBceTIkeIYy3bJyAbZD3fffXfxJMeEg18Kr9j/BwwYIP4nTnORxy662lyJSWmYcEbGHHPLLbdspeUqveVfn3BsLV++vLn++uuFFGDCwTzHH1ECBx98sKlWrZrUAbF7YfoZOHCgRGFxfWB6ITKH1PJ9+/YVvyXIApoRrgmnkD2Yawc59NBDZVLF76RFixbyHY6wl1xyiXOXtO+J6MFhO8z6Pmk7pD8qAnlCgHuWOZ3FJtpSFgHcpzix+0FSgiYmRCCRWdyNxp1z5Z5nEYXDPXOem4WYHRrmjenTpwdadFGJiUXb5SsOhk6VH8SD+HQcrTDHkDsiVRIdonOw72Pj5OFDNAV2T5IG7bTTTuaVV14RZ0tWs6lCUl12M+NmSkz+hIjoKUgAUTeoeL0IpJRxw2QHoUQLhikHnxB8TLBrE/6LFsbKypUrRZOGeYYJj99Ivkdbu+yyi2hb8DlC28b1hEBSuaZsTQs+Q0wgQmyDgy7tEhmGxs6L4MBNu0QOMWGpxBMBTHleHi7xPMtwek2kJPc0ET1UC6cOFfM291i24jcxwSSFb5slTaQoYM4g7QTCAgjn+GQLXHzYmGtwJSAwA/Mv2lvaol00+umSMzJ3/f3vfy+Zn7LFJN1+SkzSoePyN1a+kJNGjRrJKjbZboSDorYfNmyYqO6pA8D2PIRI2sVnbohy5cqJD0GyNvz8TomJkYgo/DN4KLvJQZOIPxqTffbZR7Rj+HpAOBH8ONCIEbpIXhMnMcGfhAkEsxGCCpkIG9qqUKGCkAMmCDRvmIIQQoVxsiaKh3HDXwVigk8KxBZigZaOsgc4x6ZyvJbGkvyjTcgZJqdkZqQku+hXEUGAxQxmPnzanCbliHQv9t1Ao0DpjlNOOUXMqMzz+AcmmugznajfxIR7loUIY4+sXr1a5hWbloCFDs77idmpIa+VK1eWRRRzENp6ktShaSVClISMRC8xn7CQ5vlE25iZ7R/fUfaC+YnvcLxnXrv66qt9S+ioxCTTFeXidybzHXfcUR4chAMnE5gp6jYegKjkuRi4uPAR4IEDKYHB8tDiAglaOHZYeUx4kKJZ4qbhuFEQHFS5ccE/W+0UZIK8JdyoqIAxBaExQYux3Xbbyc2KL5KTmNgxxrYNgUDbAXmZMWOGkFK7WmFFguYFQUNHwS2ILEL+HEtMUN/2799fzgFCg+Mu55aNsCoEEyYFlXgggPkYzRm+TkpMgh0zHsD4d+HLxT2NTxnRe5CXTOI3McE/Bq0H6QKQRGJCfaHddtvNvPXWW6W6xlzDM4Y0BczFVoOLhojPLIKYw6ymBX85yA2mZv5oj8rPzJtoZNgfbQ05nlgU+ZWHS4lJqWHz9oFJARs/PiYMHn4KPGiongmDhIzw0LMPPtSt2PbQnMBcuagw5xBijPCZiy0MlXpYxISHKg9dtBKs7CFg+RSw7dKli2ipctUOQEzIPcOqgZULKwZMLkReDR8+XGy45LbBvGcFLQoTA5E1mPOoOAp5wWYLuSUEGJMS2zgJAtED1okWYoKpiMnFJvmDlEAA0dpAYvicjUCKifhhvFAHq0QfAcaaewtNnUo4CJCbCK0Czu2QlE6dOklK/FQmEL+JCfM3ZmQ0F5AIFjTMGY8//rh8xjEesgrRsAJZoYIvcw6RSESEMu/87W9/k3a49/GrQXtCdGkqgfAw1wUpSkw8oosNDuYMmYBIUJ/B+bDF14QHDZEdMEv8DrAFQk4gI7BrHkgMPtE7aFH4jpUuKjarmvPYLc+bh0VMOG/IAOpQSFi6C97zSXjcgbHhAc/YpJpAvDSJcyrmF1YrXBeJglMrpjlCE62gPsVMQ18Q1KE42GEbJioAnxdUqNYRlm3AkCgv2w6/MzFg3sEMxB+/4c+CFgzya1c89rheXtHq4UiLEyCmApVoI8DqGXMwDxqV8BFAY4ADKfM9UXMUGWTR4sy0zEPfz1o5PEtIL8E8wbiTDwliwqIYggrxIFkjGloE7QZJPfkNh3e09iySiCyEmLCQQlOCI7/V1CZDkmcZizHmHLQkBGyw0MNPLpc5J/FYSkwSEcnwGS0Ig41KK91AYLpgUuehYzUmNA2pgZgk+gGwnfU7yNAFX34Oi5jYznITMHkyieZD0FBgh+cG9EusmjNZnRqOgYmHsgTOHCaQWJxi0XQ4hW2ZbLwKq2X753TK9tpOsu0JeQYziA5kSCWaCCgxic64YO6ApJBttnHjxkIcMG8wD+Bg6uf8xz1Je7xa51c0JnwmOgctDeVREJ5HfA+xYDHFvc2+1pRDpA3PBBaOkCh8TZJpXTFBsz8LK9pj0Yn2lszSfooSEz/RjFFblpg4678E2X1YfT6ICeeJOQWfDCYHFW8IMEFhJsBzn4gfVko4+rr9w6lb//zFAO0ZKngryYgJZNiWMFD8/cU/FZ7kEOL+IEKPNABoT9Bi8IeZFud05iM/BOLB3G3JQ6KPCcdAG48G1imYoPBpJF8LC2f8k9B2oN2FkGDexjyESSeZSwFaWUzKkBIEszWJIvEv8VOUmPiJZozassSE0C80P3bV7dcrpg178QJLMmLCcdnOyzHRCrj5o01uPNSdeNQTs///7d2xi9RcFAXwDy0EGyuLBQu1EDtXwcLCVgRRFGxsFIRF8J8QRNBC/wcLa8Ha0sbK2tZKsLG3mY9f9I1xNjOZ7GaS7O65EHZ3JpOXPe9N3nn3nntfbG8I8O7RrXjA3r17t4qt8zytcwhX5ugXA+52hLFYEzHxvTLZODf494t/G57CKfQnvBJ0h7y1FkdCtX0RE6LbEydOzOuWCNX4fsrUK0YnRkpQ9+zz+AvpPHr0qPLcIyO8H8I4wjK+38tCOTy6xPHC8sV4+bVrHunTQkz6RPPPtbj2iSAXD+77+iBZ1XQ9/LPqvL2+h0lj9CZu6vJbt271esg6krJWrImYyB6h9+jSNpLRdlDNu6bMFqlvYxuCVg/ntN2PvvEA4X6tj6FlIaO26/X1vgcazYxVUmw6CDQRk+ncXe4EAhZJ9F99ERO1SGxTUcK/TcTEs9WCYtF4Szz3PV/qizx/058ULdvi54Rr1HapG88dYiIBoE8LMVmBJvcYJtlmiySCQlpqrBhfOWTtyLiQ8llf7Sy7trQu1UM3ZR5m169fr9x2hLwyZ/o8DFhZSMWaiAmmTiTWpV3XbTtcDyniWpVhMnYIB6HwMBB7RjTaTJgEWZT+aUVDsEaXRJA6lDh68R6tiC5fvlyV766LvRfPy9/DI8A7KDOkCKqHv4O02IYAXVmf4ldzAxF9ISaetQhC/VlncWaRtmhCN7w3xk3deNmE2wln62Z+46FR68i84aCJdL5K1EomLIaM6p/fy+8hJitQk2qlrDgGqRO4rezyKg7H7fX+/fuqHokCa3VbJCrlvbKzMLJSN6xVqEFM0CFN0wC5du1apez2HkbKJYgZ92GYO4HWULUPrBhUURw6K0fWi3Rdq/2hPA7IB5GZzB/KfLFa7lEPDsWZ9Kf3jRtEY7G4G1Iig8l5Dg8f9XHgV7Y/6GMMrHMNDy/3aCXl3mPTQoAAu4wtmX6+Z54nsWkh4JnfJzHxXaQV8QyxaJEKrHq1CR0J0p45RGhm0Xg+bJVByGoeK/OZMBAhqxolxSxCCGOFpopg3zNce4pD2g1dhs+yOa9cp+vPEJMWxJSLJ/wzuVA4O0xwDvUmjh8/XnlH6pfhupe1Y8BY7Tp4XuSWO58AqW7c/IRMSA8FN++KQcajUTwuBgtBFc9DH1Y0JgbxEIZh+5/GeGjqC2ErNT7W2Utiv3ggl/rRJKG/eMp4PsSbeXKMCyp6dUgIzRarSCIfxLpWwKWwEQJpVcybMpQhQ/bhUZtHXZ7Y9BAwqagmTUuCQNI1dAkbTu8/Opx31Dcx0ceeZcIv5iILZ2YhUeYne/80JTcYMzygrlHO9RPx8Nyqz0/aWNxstvSQEgeebaXt8nofP0NM1kAR8E2M0AQjpxuRWDQrZYc0UG4u7i+DxKpZiIhXxKAqpg2DF4kxicuEEJM0OXldRkRTO+XzXX8ORUxoajBxNTf870IaWPrQ5kvIRcl7Iud/KLPSUDuleEV4UZARlRaXGfcrjwliIL3cgch4re+0vGX3IFymPeGw+jhddn5eDwJBYDkCfROT5S0djndCTBr60areapcWRGreq1evGs6aVV4QxKR4HayUeT2sktXtsEr2Hh2Fa/nJvaYwlyI8SoCbuLnLuOy5ZZEZRIY4SYwQsXEID/DQEIwSRu7XhiQm9DbYNQav6q0v6Vim/VJtddMrS6E38dc6EdLfyCcvBPLZpAsQdrIVu3EkduwwnsSGed02aVZc2ufS3Wtp+03eX64dBA4iAiEm3XotxKQBL94RcTThGy51lVyZuJpKr7QmDoIgoZniAeAOk1ppInbwgvjbNeylYlJCekwuwgvIhteEebjW/OQyp105efJkFULSjkkJKZFbzl3blF/e8G+sfGkoYrLyJkZ6k3tSlUYanlIZsc9bEe5DSpALhEwYrgjNxITLZnlbW1tV3YOmttVKaArbGJuI6SZCYjRVwl1CiIvhpaZ7zGtBIAish0CIyXo4lbNCTAoSDT89/GkTZFMwKbBIRgnTIAtWsVztdUMuVMczMXGDe9ir+kfwKAfehNgU+3MNE48Ur5KDjiCZiHhYaBT6sqNMTGCINCJ6Nt5bFVbZC94mdeGrQh6MG540Zgt1FSERFWLopv1oeNSIymzOJztL2Wi1EaQIEqJtIgNDJpMwF6F3Hx65veCWzwSBw4pAiEm3ng0xWYGXyUtaFZ0AQxZU71vH7GVy//79Sk9iIpJqhVwQ09KbNBnviowMoQZeERMnPQJhG3K07HNN12p77agTk4IPAiHjRP+sk8pbPtflJ+JjLyTln9UBIT5rMt4zqdvIMOJa0p0JYG3uiJjKwDh27Ng/+zM1XWvd14SzhCvt00TIFgsCQaB/BEJMumEaYrICL8TEJCFnnNCVt4Sbu248GmLxJvq6Se8V6qGYRzToDJQrLt6X+rmyeAhbCRsVzbFTJeOZEetHTPq2EJO/iPJ4EZzS9dAWbcL06fnz5yuiuez6wkrGB00RLYxQD92REtcqLgoRIRHIch9GZI0023GUuF0OK9sAAAbESURBVDYWBILAZhAIMemGa4jJCrysJuVqC70QqsqSUSCtbgSvinhxySMp9Cb0AYSrSvfygkg3Vk/Dilz6pbRfpIOZbExC0vzoSa5cuTIvcMPVb5VsUkJy+ixiE2JS78Xfv9stGta+FH2aSV94zrWFZ4yTJjM+jAt9rWojzQfRNL0RzRKTcm187dekKrsf2V48NbEgEAQ2h0CISTdsQ0xW4FWEq7wWwigKGHF50xCUbAn7UUiDJWq02j516lQlWuQxUbqb2/706dNVCEdTCIyQDjJjdSxkIyOH8dDI2rl37141OdITICMmJ1vQSzu1iZK292shJs0I8lxtb29XXqvSL81ntr+KtNrcSl0SxYxczx4VCC6tES/ct2/fKg+JqxkL0nSJn71ubOlzpFXqsAwvY62+V0X7Xfx7hjHtHuhUaKRiQSAIbB6BEJNuGIeYrMBLiMXkIe2XIQRqYXCt05A4iBOtgukAZOVY5RYjglVdlcdlcS8BqbOybepGKIuU8NKYyOorWZ4VRIUA0u/7tRCT5Qgij/bjkc5b+n752bvfERrSf69fv65Sw2FdN2PKmCnhI5k7DDFFTmRnIS52hy3kiLYEaSW2Ri72YsajsvIyknjjYkEgCAyDQIhJN5xDTLrh1flsk1KXAlU8M8tc/Z0bX/GBEJMV4Px5y5eDt4xOqKnA3rIrKCEvJbntM4isgmv182TECP00jYH9kAkCbv+LmjwIdywIBIHhEAgx6YZ1iEk3vA7N2SEm63Wl7BihHRvoSfc+aKbirKq7Qjd9b01+0LDI/QaBsRBATIRw+/B2j/U/DNmuvYBkMh4E+6/tJqV8YlqxdgRCTNoxKmfQ+fiS2PiqiFDLe1P+6WEok0yauxBRLAgEgXEQkBSh2rOSAfRjNGM5mjGwAFR9umSnjtNj67e6FjEhNoy1IyDjSNE3k1dsPQSweCm/z549q/Qg631q+LNok2SRuVcC63qoaPi7SYtBIAjQHtKs0Q/K0lR0M0czBnZhtpO6jMGDYK3EREGznZ2d+R41shhy7MaA+PLDhw9V54eYdBv6an/IlCFqlnU1NZMJpNKssvdEtLEgEASmgYDnBYKSox0Dma99lsfY5AhoJSYEfjJgeALE83I0Y2BSxdrhVN/iepOdd5iuTcz89OnTKkwivXcqVsimrRCE6mJBIAgEgSCwWQRaiYlsAw/kHOthECHW/gasonkyXbgcZdiMZfbkEV5SMM3mgbEgEASCQBAYBoFWYjLMbaSVIPAXAS5H3iel3e0YPbR9/fq18gzaOuHLly9DN5/2gkAQCAJHGoEQkyPd/dP953lLFNqzO28pljbE3dp1+MKFC1WJ+i61coa4t7QRBIJAEDgKCISYHIVePsD/o1Lytix4/PjxTKG0TdmvX7+qrQmEbt69e7epZnLdIBAEgkAQaEEgxKQFoLw9PgK2LbBbr9COEvB9m3AR8bKUOjURYkEgCASBIDAeAiEm42GfljsgQIStQNDW1la1iV+Hj6489e3bt9U1hY14TWJBIAgEgSAwLgIhJuPin9Y7ImD3XkWVHj58uOeN9zQpn//Jkyezixcvzmz+GAsCQSAIBIFpIBBiMo1+yF10QED56Rs3bswuXbo0+/z5c4dP/j5Vps3Vq1erzB8bA8aCQBAIAkFgOgiEmEynL3InHRBQEl5peGLVly9frv1J+z6dOXNm9vz585laJbEgEASCQBCYFgIhJtPqj9xNRwTs7iu08+DBg5ldf5eZAoGqt9qATzXXWBAIAkEgCEwTgRCTafZL7qoDAkiHXTPVH/n48eOuT3769KkiL3fu3Jl9//591/t5IQgEgSAQBKaDQIjJdPoid7JPBN68eTM7d+7c7MWLF/Mree3s2bPVa3YIjgWBIBAEgsC0EQgxmXb/5O46IqDOyfb29uzmzZuz27dvV54SOz/HgkAQCAJB4GAgEGJyMPopd9kBgZ8/f852dnaqlOIfP350+GRODQJBIAgEgbERCDEZuwfSfhAIAkEgCASBIDBHIMRkDkV+CQJBIAgEgSAQBMZGIMRk7B5I+0EgCASBIBAEgsAcgRCTORT5JQgEgSAQBIJAEBgbgRCTsXsg7QeBIBAEgkAQCAJzBEJM5lDklyAQBIJAEAgCQWBsBEJMxu6BtB8EgkAQCAJBIAjMEQgxmUORX4JAEAgCQSAIBIGxEQgxGbsH0n4QCAJBIAgEgSAwRyDEZA5FfgkCQSAIBIEgEATGRiDEZOweSPtBIAgEgSAQBILAHIEQkzkU+SUIBIEgEASCQBAYG4EQk7F7IO0HgSAQBIJAEAgCcwT+B+SgluWoQ29RAAAAAElFTkSuQmCC;" vertex="1" parent="1">
          <mxGeometry x="-792" y="160" width="550" height="325" as="geometry" />
        </mxCell>
        <mxCell id="u84uTU3_PnqZZj9lyCrB-145" value="" style="shape=image;verticalLabelPosition=bottom;labelBackgroundColor=#ffffff;verticalAlign=top;aspect=fixed;imageAspect=0;image=data:image/png,iVBORw0KGgoAAAANSUhEUgAAAioAAAE1CAYAAADJWMtgAAAgAElEQVR4AezdBdhsVfk2cOnOQ0tIh5QgDdJIScihpaS7u8FDIyUS0qA0SAsqiAiIhJQKSqegghj4N/d3/db59mHO8MbEnpk9M89zXfPOOzM71r732mvd68nPZCGBQCAQCAQCgUAgEAiUFIHPlLRd0axAIBAIBAKBQCAQCASyICrRCQKBQCAQCAQCgUCgtAgEUSntrYmGBQKBQCAQCAQCgUAQlegDgUAgEAgEAoFAIFBaBIKolPbWRMMCgUAgEAgEAoFAIIhK9IFAIBAIBAKBQCAQKC0CQVRKe2uiYYFAIBAIBAKBQCAQRCX6QCAQCAQCgUAgEAiUFoEgKqW9NdGwQCAQCAQCgUAgEAiiEn0gEAgEAoFAIBAIBEqLQBCV0t6aaFggEAgEAoFAIBAIBFGJPhAIBAKBQCAQCAQCpUUgiEppb000LBAIBAKBQCAQCASCqEQfCAQCgUAgEAgEAoHSIhBEpbS3JhoWCAQCgUAgEAgEAkFUog8EAoFAIBAIBAKBQGkRCKJS2lsTDQsEAoFAIBAIBAKBICrRBwKBQCAQCAQCgUCgtAgEUSntrYmGBQKBQCAQCAQCgUAQlegDgUAg0BcI/OY3v8kOPPDA7L777uuL642LDAR6BYEgKr1yJ+M6AoFAYFAEbrvttmz66afPpphiimyyySbLzj333EG3jR8CgUCgXAgEUSnX/YjWBAKBQIEIfPzxx9m+++6bfeYzn8m23nrr7J133slGjRqVPm+88cbZ22+/XeDZ4lCBQCDQCgSCqLQC1ThmIBAIdByBl156KVt11VWTBuXiiy8eqz233357NuOMM2bzzjtv9uijj471W3wIBAKBciEQRKVc9yNaEwgEAgUgcPXVV2fTTTddtsQSS2RPPvnkgEd86623sjXXXDObfPLJs7PPPnvAbeLLQCAQ6DwCQVQ6fw+iBYFAIFAQAn/+85/HmHp22223zOeh5F//+ld24oknZuOOO262xRZbZO+///5Qm8dvgUAg0AEEgqh0APQ4ZSAQCBSPwHPPPZc0KFNOOWV2ySWX1HWC73//+9m0006bTEE//elP69o3Ng4EAoHWIhBEpbX4xtEDgUCgDQhcfvnl2YgRI7Jll102E4bciLz66qvZeuutl0066aTZRRdd1MghYp9AIBBoAQJBVFoAahwyEAgE2oMA084OO+yQonj233//7K9//WtTJ/7Pf/6THXroodn444+fbbrpptkf/vCHpo4XOwcCgUDzCARRaR7DOEIgEAh0AAHROossskiK6vne975XaAvuvPPObOqpp84WWmihiAoqFNk4WCBQPwJBVOrHrKf2sIK8++67M+Gb3/nOd5Jtn32/n16u2/U/9NBD2f/+97+eur+9ejHumWidNdZYI3vhhRdacpm/+93vxkQFfetb32rJOeKgxSBgHBNy3s/jWC1jdj7W/fCHP8z++9//FgN+G44SRKUNIJf5FEI3p5lmmmyGGWbI5plnnmzOOefsu5frtnqeb775MiGrIeVFgClm8803zyaYYILs4IMPzv7973+3tLGI6zHHHJNMS9tss0323nvvtfR8cfDGEPjZz36WiKvcOP06jtUydsNG2P5MM83UsC9XY3eoub2CqDSHX9fvTYug41577bXZG2+8kb3++ut993rzzTezU045JZttttkyDpUh5UTgwQcfTGRSdA7TTDvlhhtuSM/J3HPPnf385z9v56njXDUg8IMf/CDdH9Fb/TqO1TJ2G+toVRC6X/7ylzUgW45NgqiU4z50rBVWIjPPPHP2yCOPdKwNZTixBGFWJK+99loZmhNtqELgrLPOyiaeeOJkivntb39b9Wt7PiKxK6+8cib8OaKC2oN5rWe59957s89+9rPZM888U+sufbsdUgerp59+umswCKLSNbeqNQ3NicoDDzzQmhN0yVEvvfTSIColvFdMcUw9E044YarR02m7+j//+c/sqKOOSu1hCvrwww9LiFr/NQlRmWWWWbJf/OIX/XfxdV4xX54gKnWCFpt3FoEgKqPxD6LS2X440NmRZ9q+z33uc9ldd9010CYd++7WW29NmpUFF1ww8wyFdBaBICq14x9EpXasYsuSIBBEZfSNCKJSkg6ZZSka4fjjj09ai7XXXru0FY4llmMKmmSSSTL9J6RzCARRqR37ICq1YxVblgSBICqjb0QQlXJ0SKaejTfeOJtooomyM888s/QhlKKORB+JQtpxxx2zDz74oBxA9lkrgqjUfsODqNSOVWxZEgSCqIy+EUFUOt8hb7vttuRnMO+882b3339/5xtURwtuuummFHXCFPTUU0/VsWdsWgQCQVRqRzGISu1YxZYlQSCIyugbEUSlcx3yH//4R3bsscemXCUcZ3//+993rjFNnFniuWWWWSabYoopsm9/+9tNHCl2rReBICq1IxZEpXasYsuSIBBEZfSNCKLSmQ4pHHy11VZLafC/+c1vdqYRBZ71//7v/7LDDz88G2+88bLdd989++ijjwo8ehxqMASCqAyGzKe/D6LyaUzim5IjUCRRefHFF7NrrrkmZXeVc0IoZz1y3333ZVdccUX297//fdjd3n333eyMM84oLG9CEJVhIS98gxtvvDGZej7/+c9njz/+eMPH1xcQAqHC55xzTvbTn/40FSf8yU9+UrPPiGRyInk+/vjjhttRuaPaQzI+L7DAAhEyWwlMi/4vgqgYf+65556UfbjefEr63vnnn5898cQTNV3hv/71r5R4bbj8VUoDGBPvuOOOzD7GRtmZvfhD/eUvf0mJ2+opxhlEpaZbFBuVCYEiiYoHnVOhLJ5qoyy77LIZ232lvPPOOxlfBBMTW77JSo0KTonrr79+xsbv4atFVLmVBKyITKFBVGpBvJhtmHoOPPDAZOrZfvvtm0pLb7BedNFFsxNPPDFFB0011VQpy7ABHmmRMvzkk08etuG0OrPPPnuG9BQlv/71r9MzoCaRhIIhrUOgCKKy1157JT8jGVu32GKLbMstt8x+9atfjWm0cgpI8I9//ONEDhTFPPvss9M2zz33XOrPxrKBhKYN0SD6pv8ttD7zmc9kErD5zhgoYd2zzz47puaYc2644YbZHHPMkakULtmh88soLmfMeuutl8qf1FPvKojKQHcovis1AkUSFStYq0gZDz1gX/7yl7O11lorTUR5oi4FEGedddb0kHnwNtpooxTi+f7776fvd9lll5Qd9uWXX04ExEP8t7/9LaXFViTupZdeSi9psj3Qm266aVpt+P6VV15J+xxwwAEp74Y21CpBVGpFqrntnn/++WzFFVfMJp100uyCCy5o7mBZlt18881psNcXTBZMLgbxXI4++uhshRVWyP74xz9mCBJBbgz4eZ/50Y9+lI6B+Fqp0gbqf463zz77ZJdddlnDNYVMUPvvv38KtRYVVIu2MG97vNeOQBFEZb/99ks5e5zVxC/NPJKr7+Sy5pprZjvttFPS4NGGWCjRwujLwtQtmvQdY5UFWZ5F2fGMhcYZREOfoyXZYIMNsnPPPTej0fN55MiR2c477zxWIkFj3FJLLZU3Ycz7N77xjURSlD+pR4Ko1INWbFsKBBolKhweRWZ4wBAUk4Nw0skmmyytZD3EJpEjjzwypT2nCicexnwFbHsPoZUMzYvCgB5gKxrali996UtpW2pVA4C20sR4MTFxXPSOGPnOfmrA8HXwMAZRKUUXG9MImrYRI0ak+1ZEnRErUAM9TYj+JmPsuOOOmzR6Vr76pqRxTDpbbbVVZiJCVqj1H3744dRnECe5WiSVu+6667LTTz89U1lW+xyDVsZEUK8Zc8xF//9/9G8kfvHFF6/ZPFB9jPg8OAL1EhWaEoTBPc7HLyQBOfGd8UZNnF133TUtuJi1icUXwsn5W6Xm+eefP/W95ZZbLpOpmEbE2IXc0pYw2xCkF5H57ne/m0Lu84Vb+vH/5w6q/M7Ypa/mi7kvfvGLqU8iQQSBtuCj1alXgqjUi1hs33EEGiUqVopUj4pc+Z+N1APg4TzuuOPSisCDZoC3Tb4qufLKK5Pd3gSz8MILJ/Xq1ltvna2xxhqZFa1j5ULbwhw0kBhcnKuo1P+hURkI5WK+0zesEscZZ5zs61//es2mveHObjBHkJEUZHbbbbdNK0+Du3MyIepPCI2Cbfph5WTg+Aju9NNPnwiy/qxApxVyK8QktuSSS6YcMZdffnkrTtG3x6yXqNDgPvbYY0m7ZozSZyyYaOSMLX/6059SX9Gv9BtaXfKFL3whY67UT2yPoDBjLrLIIolI5P3LuIqYOhZBiO2DrNcqyJH9V1111USIaAdPOumkVFJCP6o299S6MAuiUusdiO1Kg0CjRMUFvP3220kN6uHhzGgFK+W5lUkuHq5KHwEOZ2pyMM+su+66KTJCcq8ddtghrWitOKnxCdvsV77ylfxQY72rkoqoMCXl1VJdy5NPPjnWdrV+yImKQals4vpMxlaBVvoIoGst0p+iVddsdbn00ksn04fVZCuFpk54M9OO+6h/WoEyHw7kJGvyoVK3MkVY9GMmKf5VCBBtn36Z+xYU0XbtYAoaf/zxs3333TcRqiKO24pjIHo0p66fhsErn4hbcb5mjkkLVm+tH+OV5II0bnxEaEmMRUwxhBnwa1/72hiy4Tu+InvssUe2yiqrZMY2GhXnpY2jtdtzzz3Tvo6tynczRCUdKMtSn+bvR0477bRsrrnmyo455pjMog/hpdnRpyzq9P3hJIjKcAjF76VDoBmi4mKsZBAGoZgmUysLDwzCIEzTRGAVYSAgbLkKYuVExUSAnFgBb7LJJsl/IQeJ1oWz2EAixTrHSTVgeNozGXFatKpuRDzwqicjBWUTZgoYcb7j5Mc2zaQG80oNVJna7X5fddVVabDmk9LqqrZWn8xKs802W4q+QDycU//SP6tNTcjeCSeckFbEiAocaVIcA94mZxo/PgmtEM61NDlLLLFEy7FptP3wYBZD4JjAaMPOO++8Rg/X0v048tdLVPRRWYX1D+MYs59j0AgzJ7t2z5u+lIsxIicqRxxxRDIZIgp8UZgd85pUiApTdp640CJjhhlmyK6//vr8UDW/V/qoII+0g8yd2rH88sunBd1mm22WvquFVAdRqRn62LAsCDRLVFwHW64HEiFh4zWRUonyFaleySIqViUGABOYVYgHzsNnRcyXxYNP9Wp17AGsFipOA/zqq68+5ieOtCKOrIYbEddgNS36I9fk0OZ0+oWoWeltt912GXW1VZQB1URL9ex/23S6nZXnhx/VNFPPYYcd1sjtqHsfOOTOj3mfgZHJQf+q1AT43mqYFk0fpZL3O7KLqOQVePlAIc+tEk67+jGHTH25bP0OQXH9/MoIB1GRMISWdJ111ilFv2MitiByH2nw6hET/6mnnpoc8ZFa5JQJ2v2gra0W2gw+Kt71baH1SLJFGWxoZ2hRaJ9oly3eiHbRsPCLqVcQlVyjou9eeOGF6Vo561qsiTyixR7MTF59viAq1YjE59IjUARRMYFyarXCsCKxmjDoIizV4qFCCBRzQ0Q4ha200kop+seAw+6KLLAFU68ONNFZHVOdm7RzMclw5B1ocMm3GepdWKH9tZtTHL+ZMrwMfoiKydagyjnPi88P0wFihuyVoa15G6jLkSdqdO1utdYHGZ5vvvmSls49RpoQXlqnueeeO5He/N5bcbrXeRgpLZUJxOqa+aCSqJgcvvrVr+a7Fv7OwdJE55zOU6Z+p08x09J8MqEREzLCTGhYPL/5Pe/kOy2qsYKGqhHTr/EEaaXBXWyxxZL2jUkH2agWZAhBo4Wzj3IPe++9d3pHAAQQTDnllIk4IE951I++RXOjkGW94l7QoCCM7on+asEnJB8Rt8jj5Ou5q0WCqNSCUmxTKgSaISrMJIgEZy9+AAiKB9mDb/XFmYwttXI16+G3mjWxcEITUcHfRMSGlQoVrmOZbJiITDbVwq6M3FRGYtCIIBqVeQ+q9xvqMy99qyR5XsomJmITPi0TksJMhRz6jsmsrOK+zjTTTGnwZ05pldCK0Kbk947a3sDu3PmKNj+38GB9MxeaAf00Jyr6L/8UfZZGpdZVan68Wt9NOFLtI+zCpMsosOJzQVtJLCIaNa22+vpodGs1/eROp6J7aCtcExJ2yCGHJPOvtlpQ6RdMQrnYz31DKI1fckBZLJn4Heess85K0T00MkguEpNH6fB7QW7qCU/ng4aQOA6yInLMAuCUU07J5OgRReScBLE66KCD8qYO+R5EZUh44scyItAoUbGStxLMtSCuzaTg4TYAEKHCBg8aEisNEy2hsrTaQGx40AtT5l1fSWhEatg3fxDTjlmWBopc3Zp/550zGZtwoynLc2faMvqoICP8A0QmIGQXXXRRwlIkje/KLCYAEV1Wkwb5osUK2iCdmyccH5ETboyo8GXStwYT4acIrr5n1UtdTxszatSo5HNg0ilSODsyMTBTIvGVZLvI8xRxLM7G2spERWgDcrNaEccv8hj1+Ki4LtogZNY9yDV+Jno+TrlYPDGtIGvIa05w9GdOrfyMaDz5yBmvKsWY5li0oEQOFRrQeoTpbaGFFkqLOW323DMr0XDJeOz5J8YAfZiWqxYJolILSrFNqRBolKiw45s0iVWCB8hDzyRTuXq2ekVmrP49UFYY7L9MNQS5MYl5sImVAiJjIPC99hEDOudMmpZcfSrkTyQJuy8nN6vTRiUnKvWmzm70fPXsByv+PAYYEwfNE22FPDMG6LILc4vVKmdDPg+0QUWI+28lCwvCeVauFPZ6BIkTJCdk6nxmSX0tnzjy8+s7CDXhCGnAt5+XwoJFEkHPhdWxyQ9xL7tw/OSsmS8WmMn4nuUOo2Vqfz3hyUipcSN3dEXEkFSO08hLpdBi0BjTuCIqfKGYv3LSoj/T5ukn+rln9ZZbbklBBfYjxjQLs0pNXuU5BvvfAiVP66DNCJVxlpmHTwzNNZ+Y6rFysOPl3wdRyZGI965BoFGiUnmB1OYGXoMwDclgK1gaFQ+V1UmleLhNLMTDaPLwMFLLe0CtJqxyOZFVht/Z1vdIigG01joblefO/y8zUWH6MWjBwbsXcui92lk5v54yvptMqL+tEnOtWzPt1G/kwkAuTQ6ieEws+kwu+oiVKL8C/ke5diD/vfKdyTH3Uaj8voj/TXS5b1Z1/osijt+KY+R9LddSInn6oFfZpB6iUt12ZIAJ2zgyVNVrxMb4VXn9tBuio5AU5EVIM1JuQZVHuvHVq/Snqz5/LZ+dE6Fm9smjkIwB/NdoDml/atXOBVGpBfHYplQIFEFU8gtiU62cJPLv83cPmwe5FvHg5+L/oXKGVCZkyvep973MRKXeaynz9vwd5M+heTPoFiH6FIfCocQkMhyp0z/fe++9MaH0Qx2v1t9M8rRgE044YXJMrTYR1Hqc2G5oBJohKo5s3Mp9nAY703DjW+V+ucbFd8Mdt3K/wf5HQuS0qRaLxOH6fvU+QVSqEYnPpUegSKJS+osdooFBVIYAp+CfDK60H0x7HKPLaG4r4pKtfPlTcdBlzgxpHQLNEpXWtax8Rw6iUr57Ei0aBoEgKqMBCqIyTEdpwc/8a1Q35via+wu04DQdOSQzJVOPrLx8FEJai0AQldrxDaJSO1axZUkQCKIy+kYEUelMh+RYy9maaYQzdrebRjhVyhjMcZjDIx+ZkNYjEESldoyDqNSOVWxZEgSCqIy+EUFUOtch+QeILGEK4kSd5+3oXIsaO7NQ6QUXXDAlHmt1XaPGWti7ewVRqf3eBlGpHavYsiQIBFEZfSOCqHS+QzL/MAVJ9Gcw7SaRu0WtKWGoeQRbN7W/29saRKX2OxhEpXasYsuSIBBEZfSNCKJSjg4phF2Iu6ggGYzLbjoRIrrLLrukBG4yLfsc0n4EgqjUjnkQldqxii1LgkAQldE3IohKSTrk/2+GFOaSr8mPU2+irHZdibw9alLJiCydekjnEAiiUjv2QVRqxyq2LAkCQVRG34ggKiXpkBXNQAQkEVR4TU2oMokEXhyA1QNSWyikswgEUakd/yAqtWMVW5YEgSAqo29EEJWSdMiqZjAFMa2MN954KeNnp01BsrXutddeydTjfbgkclWXEx9bhEAQldqBDaJSO1axZUkQCKIy+kYEUSlJhxykGe7PlFNOmTQYapx0QtQWYuqZfvrps+uuu64TTYhzDoJAEJVBgBng6yAqA4ASX5UbAURFlWI1U/pZhJOq9dGrWVJ74d4K/11yySVTIjU1ntopCnDymVHkEGEJKRcCiIposbg3w98XBRhh1U0my88Mf1mxRS8joDjcxBNPnG277baZsuInnnhi21/SqY8aNSo77rjjMgW8mm1D9fEcc//998+OPPLIlK9DpWZ1ZvJzuW71Z/hCDFW0rpf7QbdcG9PLbrvtlqKClLlvdZTNP/7xj2zfffdNOV723nvvLC/Q1y149Us777777uQztNNOO3VsHBts3DKuGd+MS4NtU+/3jnX88cfX/dKOzTbbLIXSP/XUU13TPYKodM2tak1D33rrrWz99dfPFl544VQ5dtFFF83a/bJKnX/++dNkgOlTrzfTBsdTY0UCMWp6q3Cl2H3OX7QnHCFXXHHF9LvrVzxOZtGQ8iNwww03ZCNGjEgp6mlaWiFWnPqI81x99dWtOEUcsyAEJAlca621OjqOVY9ZuZnQmGM8Mi5Vb9PoZ1W+G30Z60aOHJkKcBYEf8sPE0Sl5RCX/wQcFD/88MM0SZuo2/2ySsXukZSLL744U06+mTY4noFrvvnmSysOx1P5lPZozz33TJEkIjbWW2+9jAlBVVKF8kK6C4Fnn302W3755ZN25YILLii08foFTaNaPc4TUn4EaL86OY5Vj1nGHVoP45DxyLhUvU0znx2v3pfzwaiyOn3572yWBVHphrvUB23kGzLHHHMU5qRokLCKYeapFlokhGiVVVbJpphiiqTBOe200+oul1593PjcfgRMTsx6Vq00Yn/4wx+aaoTjMS2JMmJaYmoKCQQaRcD4YxwyHoU0jkAQlcaxiz0LREBSr9lnnz275pprCjnqH//4x2yhhRbKEJDB5H//+1/GmZhde9ZZZ03Okuy3t956a/bPf/5zsN3i+xIicMstt6R7SK39+OOPN9RCjphMgdNMM01hhLmhhsROPYOA8cc4ZDwKaRyBICqNYxd7FohAJ4hKZfPffvvtTGQHnwRhsHPPPXdytv31r39duVn8X2IEqNdXXnnlbKKJJhpQkzZU06+66qpskkkmSdq1bnIyHOqa4rfOIxBEpZh7EESlGBzjKE0i0GmiUtn8hx56KCX1ErY97bTTJl8WK/a//e1vlZvF/yVEgOnmmGOOSaagLbfcMvkfDdVMpp2DDz44bb/rrrtGVM9QYMVvdSMQRKVuyAbcIYjKgLDEl+1GoExEJb92jmoSja200krJLCSd+xFHHJE988wz+SbxXlIEJLViSuTI+OCDDw7YSlWOl1122URGVT8OCQSKRiCISjGIBlEpBsc4SpMIlJGoVF6SbKiq4wpzVoRu7bXXzoTISvEeUk4ERHptuOGGKd29CaMysku4ce5I/dxzz5XzAqJVXY9AEJVibmEQlWJwjKM0iUDZiUp+eUL7THLrrLNOCouV/+WQQw6JENYcoJK9IyfHHntsNs4446R8QfqZ+5VHCQXRLNkN67HmBFEp5oYGUSkGxzhKkwh0C1GpvEwmIFoWjrcTTDBBIi/yb3zwwQeVm8X/JUDg/vvvz2abbbZ0n6aaaqpM9eOQQKDVCARRKQbhICrF4BhHaRKBbiQq+SVblStSR8vCnCDU+YADDsg6VTwvb1e8j42AXD3KJjz88MNj/xCfAoEWIRBEpRhgg6gUg2McpUkEupmoVF46f4fDDjssW2CBBVKY7KqrrppdcsklKRtk5XbxfyAQCPQ+AkFUirnHQVSKwTGO0iQCvUJUchhEDEkcx+lWiLOaQ4rbPfLII/km8R4IBAI9jkAQlWJucBCVYnCMozSJQK8RlUo4aFlUO51rrrlSMjn1YySXe++99yo3i/8DgUCgxxA49dRTswUXXDAy0zZ5X4OoNAlg7F4MAr1MVHKEFH+UOO6rX/1qIix8WdSTUSwxJBAIBHoPgZNOOimbZ555mq5B1XvI1HdFQVTqwyu2bhECRRMVxekUOeQ8WUZ56aWXMoOY8OZJJ500pe4///zzozBiGW9WtCkQaBCBJ598MqUzkDE5pHEEgqg0jl3sWSACRRMV6e6POuqo7J577imwlcUfSvHDu+++O/va176Wst/OPPPM2fbbb5+yqUZhxOLxjiMGAoFA9yEQRKX77llPtrhootKNIL3++uvZySefnC255JLZeOONl7QsZ599dvbmm2924+VEmwOBQCAQKASBICqFwBgHaRaBICqfIEhN/KMf/ShTVE+00DTTTJNtu+222QMPPJCFluUTnOK/QCAQ6A8Egqj0x30u/VUWSVT++9//piq4v/jFLzKvbhZaFlqVpZZaKptkkkmyxRdfPDvllFNCy9LNNzXaHggEAnUhEESlLrhi41YhUCRReeONN7Ljjz8+OdN++9vfblWT23rcf//73yk6aLvttstmmWWWFDW09dZbZ3feeWeGmIUEAoFAINCrCARR6dU722XXVSRRYTp56623UrK1c889t8uQGL65tCwXXXRR8mWRsl8WXFoWGIYEAoFAZxH461//mr366quZxcUTTzyR3Xvvvdnf//73zjaqy88eRKXLb2CvNL9IopJjsummm2bnnHNO/rEn3/mt7LbbbtkMM8yQjRgxIuVoue222zI5W+oVlYZDAoFAoDkE1PhaZZVVsuOOOy6j0d1nn32yQw89NBGX5o7cv3u3jajIG/Hzn/88e+yxx5LfQO4/EO+j/SjgABsYwarfpBVEZZNNNul5opL3E1luL7zwwmz55ZdPYc6yYcqGKyvuUEL7ZNVHI8WzuiUAACAASURBVCNbbkggEAg0hwBNyhZbbJG0nvmRNtpoo+ydd97JP8Z7nQi0haj85je/SYmtpptuuuyzn/1ssrGzs8drbAxgAyOq/BdffLHOW9ndmwdRKe7+Ibt777130rJMPfXU2frrr599//vfH7AwosR4l156aTbbbLNlhxxySHGNiCMFAn2MwC677DKmerpIPRF8kWag8Q7RFqIiRfiUU06ZckT88Ic/TDY7drt2v4R8/uxnP0uvgc6tnffff/+YduXbt6vNzjNq1Khsqqmm6rtS9EFUGn+IB9vzgw8+SJWb11hjjWz88cdPBPiII47ILByqZYcddsgOOOCA6q/jcyAQCDSAgNIYecQhorLVVltlb7/9dgNHil0g0BaighzQnjBtdFp+9atfjWG61W15//33s8pUx1R4v/71r6s3a+ln1XVpVh599NGWnqdsB28FURk5cmTWi8609d67//3vf6nP07J87nOfS2HO6623XvbQQw+NOZRsuEFUxsAR/wQCTSEg0/TDDz+cjmFOYfoJjUrjkLaNqEgNzvGvlSJM809/+lOyBb7yyitp5fjggw9ml19+eXbMMcdkX//617PNNtsspSivZrd//vOfs7nnnjs5QOVt1ME23HDDTBhoLv/617/yf1vyTouD1AVRaR5e9y6Iytg4IuPXXHNNtsIKK6TnAIkhwp6DqIyNVXwKBBpBAEHhTHv44Yen3W+88cZsxRVXDB+wRsD8//v0FFFBIvh2PP7448mEo1KtFST7O62O+i+5VEc4nHjiiWk7Ya1U5labTz31VLbnnntmc845Z8phoWS3yretZMZBVK7Jb1HD70iqOj+qE5uQzzvvvCyfkBs+aA/u+Pvf/z7Ln4MgKj14g+OSOoKAiDuvPCT5448/Tp+9hzSGQE8RlWoIDjvssGzllVfOmFOI/BO0K7QnlfLCCy9k8803XyIzyMkee+yRSApb/owzzpgdfPDBaR+f/f6Xv/ylcvdC/w+i0jxRcX9ppJjtnnnmmXTPCr1JAxysuk8NsEmpv6okKjSTQpz5bIUEAoFAINBpBHqOqPArYWJaffXVs9VWWy05NGG2tCuLLLJIioCoNPv88Y9/TMXf1FJ59tln0yp84403TvcF0Vl22WWThqZdppggKs0TlXY/VGeccUbS3Okv3aq5YRZFyHPZb7/9soknnjj70pe+lF155ZXJpJr/Fu+BQCAQCLQTgZ4jKtRrPK6/8IUvJO3J0Ucfnckpscwyy2TXXnvtp7B99913M6Fkp59+egqh/vKXv5wKv918883ZmmuuOcbMc+CBByYzwk9+8pOWTkZBVLqHqMiLIF+CiBq+TyLb9B9ZKbtFaE9k0kTsJcjzP7LFP+v6669PxF4UGvMpZ9xcO9kt1xftDAQ6iYBF8dNPPx3J3pq8CT1HVHI8XnvttZQfYptttskuuOCCNPBycpIpUIRJtZx00klpkhFKplbMtNNOmxxpv/nNb6YBmq/K/PPPn/xVKn1dqo/T7OcgKt1BVISxzz777Cnvze23355uO7+mOeaYI30nb0k3iIGUJmjdddfNvvKVrySn848++mispvP7kmWTs/nkk0+eksrJvcKfKyQQCAQGR+Css85KpS4EeYQ0jkDPERWOrjJyUlkLCbMqFJIspt3kseiii6Y8JVdccUVCjamId7bV8GWXXZZyqNx9993pfYkllsiYgXbcccdsueWWSz4Pd911V2hUGu9vg+5ZdHgyZ7Y77rgj3ftBT9rgDwafSSedNE3s1Y7VomrkTKBlkROnlwoGwtQzRPOikjMtC+2lBHOeo5BAIBAYG4GTTz45m3feeTOJFUMaR6DniIrVnwRXVPHCMIWGCY0WnmwwpQ2xejTYEpFCu+66aypgx9H25ZdfHlMnhelHvglmny9+8YuNo1zHnqFRKUajwveIBkykVlHC1KM/8N1AQobyR+G3Mtlkk2VrrbVWcuIuqg1lOQ7zlkg5fl/jjTdeCr/81re+lTGlhgQCgcBoBE477bRsoYUWyoxHIY0j0HNEJYfipptuyo488shUN4fKWo6IW2+9dYzZhy1+IDHQIjtWj4svvngmY6fjICpCOTnmtnL1GESlOKKiFEFRROXOO+9MjtZI749//OOBus6nvuPPITzePjRxvSieo/vuuy8R/2mmmSaZvTjmyl/UyuekF7GMa+o9BIKoFHNPe5KoXHLJJSlpGr8TJoW55por+akgAZxsDaRybRAalhtuuCGREVEPCruZYIS2ciIU8UAbkxMV2pXnn3++GPQHOEoQleKIipWMgaIZoTWhPaE1kOm22tQz3LFpYRRHnGCCCbLjjz9+uM27+nfFNGmSllxyyWyiiSbKll566fQ5fFm6+rZG45tAIIhKE+BV7NpTREWitmOPPTapoUXt+KzkNv+T888/P1223BAGUU6P7IY0J3vttVcqyFZZA4VpiD8LDYpQTdoVA7HVMWLTKgmiUh6igsyuvfbayYRz5plnNnXLJZ2bcMIJsw022KCrooIauWgO6fqxjM4zzTRTIvwWBz/4wQ96ymenEWxin/5CIIhKMfe7Z4gK0mE1d/bZZ4+pEqvI3+c///lELpSyz4WWhP/JQHbD3/72t5nCbWo15KtneVmEnUqKJczZcVslQVTKQVQkPGPKYD7Ka3Y0e8/1G451I0aMSJN2s8frhv2RvXPOOSdpMkUMeR5F0uUazW64hmhjINAoAkFUGkVu7P16hqgw4Qzkd8K3gFalFrESlCdlsEKElQULazleI9sEUeksUeFXccghh2TjjDNOMtm89957jdzGQfcRFUSrwhT0jW98o680DIgan6/pp58+kTUO7/fcc0/4sgzaW+KHbkcgiEoxd7BniEoxcHT+KEFUOkdUOFHTtInW4efUSqH5cx65SyozJbfynGU5thpDIoT4suRaFmGcSlmEBAK9hEAQlWLuZhCVYnAs7ChBVDpDVOTbmXrqqTO5c9qVfVVkjFwk/J5o/vpRFAvdfffdk5ltuummS0kWRUi1sp5WP+Ic19wZBIKoFIN7EJUacWQSEJ4sRT8HWy//F53QK4hKe4mKCZEz9Wc+85nkg9TuCZIflKSCzl9UKHWNXbpUmzGJibhTRJTZTX4W0XZ8xkICgW5FIIhKMXeuK4kKX5TNN988ZY8Fg8gdol4Ph9pckImBBOlwDKpmdRgMhkIoRf08/vjjAw6OF110UbKvc6xFJrz8r07QoYceOtBpGvouiEr7iIr7v8IKKyRNipTwnRSmD9lekZZ+MwVV4m4x8Nhjj6UK5p/97GdTcj2YKCo6kA9a5b7xfyBQNgSCqBRzR7qSqBx11FFp1SUzpjTp+++/f1qNzjLLLMkBUhikAoRCIvkdyD5LxSySQ5p8+VKEHFu9sZXLSCu6A0mRKn+dddb5lKZEQbZVV131U6hL1b/UUkt96vtGvwii0h6igpio5+TePffcc43erkL3Q3wlJ6wnqVyhDSjZwfiyuE+eO9mA55lnnpTvaDBn95I1P5oTCKQ8TpGZtvmO0FVERfItUQIrrbRSyobJGU9+CxoR2hSF4r773e+mbKBWZR9++GEiKfaj0r/66quTih0hoXKnXr733nvTi+qdOLYaQdUiJwRiIzKo8rXKKqukyrPV2zf6OYhKa4mK3Dq77bZb6gfIanUBvkbvW1H70ezJ3SLBnJpVIaMRkF5gn332Sckb5UFaf/31s+9973spYWNgFAiUFQHzkpD8gVJhlLXNZWxXVxEVZEP1YwUGicyzNCQ0KyYfwmdk2223zZ588sn0ufIP7QtCorIysiFL7bnnnpuy1poYDIYSu2255ZaVu6X/5VGRDl34cv7iDInsMEMVJUFUWkdUnnrqqXS/OM3KpVNWQayZMIUwC+GlWQgZjYB8SRYjFgjuI/OQvEe1piBoN46trLTe7muJ89WPgAKmNCqDuSHUf8T+3KOriIpbJH29rLE0IXwMnnnmmZSaXLSGaAE+J8w9ihEy43jPhUlo3HHHTT4A/FTsY0KQkApRkdhLNtpKomLS4Oh38cUXpwESM7YKV7bb/6I1FD+Uqr8ICaJSHFFZcMEFExF1X4Qbm9hoxbrFQVMfn3POObPZZ5+9pUkGi+i3nTiGhYWcN7JMK3eBvCAxZdGSIcMKY9LcMT+H9BcCf/7zn9N4Y3Gs9lxI4wh0FVGhUWGvZvJ59NFHsyuuuCI5tLLt027QdMh6iVRQE1O5IR9Iya9+9atESsYff/wU5cHPBSlBbrx8L4pnxRVXTH4ulZBylqWOt2pTkE6p+4ceeiiTjl+JeyGme+65Z+UuDf8fRKUYooJI0o4dffTRqTo2gnrQQQd13cqGKUjFZpEw+nbRUWYNd9QS7Wi1iqDIgTPFFFMkcsdvLde8trupJqh999033TMmKpmIV1999cIWM+2+njhf/Qgg0erD8aviSmD8YQEwF4XUj0BXERUDAJ8UpAMZMREpN081LoOoFy0JfxKaFv4IRCTB66+/nhxndRg5M7zUXkFYZAilUbn99tsT6ZA+v1KQEKSGWBmZOHbaaacxm0w66aTJR2bMF038E0SlGKKCdLpnVjMyoaqc3a2CnDBvcig16IW9e/A7KXIPOaVlQVpoWSxo2mU+M+4Yl5ybWZrwiaNZ8d111103eOPjl55AQDJHz6pAi5dffjld0ymnnJK+W3fddVOEaU9caBsvoquISiUuBqP55psvhQnTrnjRnojesXIeSO6+++60ylHR1uCvUCECo8ggomIwk+YbEaoU2hkEiFArzzDDDKmSrs/S6it62GzRuvx8QVSKISq0D7QQ0tU3YurRP4rUXvCJalY4izMDWaXR7IUMjgAtC3X7V7/61bQg4V9mwUHLUuR9rWwBUw/tiZD36sgk5HL77bdPfdLYVUR/qDx3/N95BN59993kH2lxxG+quuSKRJIIq2f4vvvu63yDu6gFXUtUci2H6B1qfi+OdjQtNCMD2YTZ/HUiRMTAkQ9YfEwQlTx/hdV4pcicyd+B8JFhJhJxQHRGWprjjjsufW72TxCV5oiKwWLkyJGpQrZK2nyMGpE33ngj22KLLcZaAXPGloRM9BhNXL5ayo9Pc4cw55OQd33KsaykhME3K3lFZ/1YREHI8AjwWUMOODV6dmlZhD0XpWWxeOHAbxxg8hnKgVY6BP40q622WhRmHP7Wdc0WnnsL51lnnTXl/Bms4cYD5kDPrzmj0fFpsOP36vddS1Q4qMk5QUvCN8Vqk58Kkw6Vm7wplWISoUHRQUaNGpWIBkKDGGC/iIp9DzjggDQZ5ZONYxjkOPASIaPCI/nFiB5yXKYiCamKkCAqjRMV98TKeaaZZkr9opn7QdNGU1YZIszGrP8grsx9QuArBfHdZpttEsGRhFD/yCPLVGKW1I1Ur7Qqj1HL//rc8ccfnyZdZs6iJtxazt3N20gY55mXQA5ZmHHGGVO0oPsI00bEKnmxxRZL/cH4UYuISLTw4dzdzSbJWq6117dBNCwYJGvkx8inbDixjyAOxHaTTTYZs0Aebr9+/r1riYoEbJyVKgmFGynKB5EQ/ZMLrYswT9sLF7PqJvm+7MY6zWADfr5Coq5zbD4tBih+A1tttVWKLMmPmZ+z0fcgKo0RFSSCXZjmAkFoVJANE5okcFZH7jUnatoTSQRF4SCu3p999tmkQZGvJ5ebb745kRmqfxFhCLCQekQFCea3wBxRRJSYnELaMddccyWzZ96GeB8eAeZAzy+SwVdNhKBUBSL8apXvfOc7qbAkR9lqU89wx+BPZ0xinjzssMPGaHeH2y9+Lw8CXAg23HDD9LxbOOTzSa0t5GbAFGRxFabcoVHrWqJiVcvWR+VmwuDEZnKxajVh+S4X9mqDOsdbwkSEyNjGPlbNVso6i9UVs1JlONlLL72UcYZaZpll0nt+XATmggsuSCt4WXGp5ZuVICr1ERVmFRO/nCOV5RMavQ/uKQ0d844VN+KjP7j3O++8c5rYDj/88PTZ4ETdWxldwmyoD9GoqIzMRGSVZQVvYtQHTZLV5sVG24uEr7HGGmnC6+daQY3i5z5IW2Bly/eMlsN9pqEdTJAZCxR9TkRgbkIebPuhvkd2rMZlw642JQ61X/zWWQS4EdDoW8zoP42KvpSTHZr+iAoaGMmuJSoGZSYXZEM+Fd7+bNFWsRwp84ifgS7bxIHgWAXZhyoWu/XZ6plWhqe+VQ/VLL8XPimDEREk6cgjj2xqJZ+3M4hK7UTFYCGih3NpM4NFjr333GaMAEkmJmKEICzILD+HPLSdCUGIOuETRSPHZIQE6xMIjeN5MSPRrLRCrOT4zlidm0BFx4XUjwACiexKayBCR9QYLUulOl9aAhMUUsOMVIToQwsvvHAq6VDUMYtoVxzj0wgwEZp78mSMtCrNimNaLPOfQlrq0eo1e+5u2b9riUo7ALZS4k+QT17tOGcQleGJilWHidmDTWuBUBYtnK1p7BQVQ1pNWJx055133nRuphzf50ITg/DmYcT8FeTYoW1BdiebbLKUv8d3fKJkUi46zJjWELlCpnIClbcv3mtHwHMPS/4/7rNQZz5xksvRfjD10LIWKYIB+MEhmxEVVCSyxR3LIsS9Zyqk/Sha+Fjqa7S0YQoaG90gKmPj0fFPQVSGJirU49T0CgoiD60QpkFRIcw1shRL3iTZoJUUnwar7ummmy6RkmqSxGTI34lWhVnG4GN1TuNmJa4KN3Mj7V2zTrUDXTt85PkxoV544YUtOcdA5+3V7xCIAw88MGnTaNT4QjXqeFsLRqKC9BclO/SfkHIgIOJPYk+vVi4C+NfR1Opr3A1CRiPQNqLCh6M6SiJuwqcR4KRrVcw01U/CuZQGQ6j4YMLEkZtgKksjDLZ9I98jEHw+5M1BhoQUc7ZWiZtGhVkAAUA6hJhyhkNKcslz8uT+BrIYIzxMklZLMqi2Q4TgGuxExYU0joDoQVo0Nb1MVu0Qzz5zpui1iApqB+KDnwMppb2lRWlnhB3/N9q1iAoafW/aQlQwUDZ6ERQGToN2p18GHepdkTza4nOn26Q9OqiJTfK6fpJaiAoTHI2TSYNmQzhy0SLih7mGjwlvfDWC+A2I5jn44IPTefkr+c0kZiBx33KxnUifnKggVlT6rm/mmWdOIfA0KUxKrfAlcWw+NAZWTsDVGp+8nfE+NALMi55F5kX3sKiovqHP+smvfB/k8UE2taMZh91Pjhr/1YMAv0clW0R6Sm3RbuE3aUGEtPbbfFCNdVuICmdXdnOOj7ykaQw6/aLCs2KmIrdyKUO7tAFGVu2NZFOtvrnd9LkWopJfD+dGGWdNIpK6tUKcgxYwd4BFkqyskW2E1n0yeSG4lRFiwo9NLpKAcfAVEo+0iPaZfPLJE+nh6M0ZUzXnIoXfBE2K8zAhhDSGgHvP98nYwMzXSZIgMEA7JAnjIxHSHgRosiwYO+3vJUEcM6CxTkRrO/0l24N0bWdpC1HRFAM1W7/BuQwvK2ahhVa5JhTq+zK0C0Z5GHVtt7A3tqqHqLhik4dES0iBSaUo50YDAXWvCB5kNicqcqDQ5PBVYQqSKp0pipOlla9cKlZd/EMkfmIq4tPCx4HY1na+p5mRCE4ESVEi4SDyo86MyLWQxhAwQVlEWcW20hehntbR3JkwLahEuoW0DgFpBRS0FNUjqrQyR1Lrzjr0kY0dnPSNdZtvvnlfRgW1jagMfSs68yu1Pg/roUKZO9Oy/jtrvUQlR0i+C34itB9FhCgjQCZ6xITKFynhDyPPRa7lopKlUZGoi/aLacCkRk171VVXpRTqMtTK78J59rbbbks+R9rKh0XuHaSGGWugUg/5tdXybn9tNYhx/C06kqiWNvTCNkxmfBHgKMS73aae4TBkwsvzbXDMbqVD73Bt6dXflVaR1ZwmRd2msonxjR+fenZyPfWT9DVRsVq2cqrMk9BPN79M19ooUXENiCZthVWQQdyqqBmhNTnnnHOSWYm/iqRclSsrk4RBDdHg+MifgCYmf8/PzXcFmeErIqeKonTIC9KD3DSTut05aJGohREquX5CGkNAfqSVV145pcFnaimr6GMya+vnqmiXjUyVFbda2iVfEhMb37fKtAO17NvObUSCMXvzg9MX+sUUFEQliEo7n7NBz9UMUckPKlzZIG7SKcoUlB+7bO+io/g0MfWIFAtpDAH+RbRxkrvJg9MNwomcJphpstKRuxvaXrY2cmhXSJImTW4jvmVlF47eFmTaTMvWDw7zQVSCqJTiuSyCqLgQ3vFMQXyPmFl6TZgoDjrooDRI8c3phoG1jPeA1i2foLbbbrtUVqOM7RysTXyoRJyZrDhZRur1wZAa/Pvnn38+W3LJJZMZV8mMbhOmIP5UzM+9vlgJohJEpRTPZ1FExcUw0+y6665JPcr0UlRdnU4DlWfGlF9BZE/kSGnsjnCkX2mllVJNMH5q3SrU/hLQMf0xJ4YpqPY7yU9Mtuhll102lWCpfc9ybWlMEBGmvp2UB70qQVSCqJSibxdJVPIL4oMky6dVE5+SbhYOuVT9bOhWf0KlK8Oiu/na2tl2WjZp8U1QRYeHt/M6Ks8lKoivnSra8kKFDI4AU4/IO5ooEXv80bpd+MzJteOaONQXUX+obJj0NVGRa0K20EhV3flu2Qqi4qqEnQvtNDkNlfW28wgM3AIqfQncDEIiiWiL9Ff+Ka3KzjtwS7r7WyaynXbaKZU32GWXXTIV1esVk5qIr+EibkRiccJW/6lSfCe7cV7ZXeFLPgaO2azoE3lUkFDWkE8joM4Wny5h/I2ahfUB9y0XkYB5CoL8O+8yXBt7cmdX0Xjuu8/qgB133HGZ5JKIE9OjDNbNisUMU5BFjGvtJelroiJSQm4MSXVCOotAq4iKqzIY7LHHHsnRdu+99+4aU5BEcXKySPZUGY1COxREpfb+KtycVo16vBmyinisueaaqbgkXyGTj+JxiIY8NiLF5DkRkk4d77tK4RPD3CDjKZFnhxlvhx12qNys4f9NgurDiAiRDTkWYJ9ASbvq/rt/edboT36t/T8El9OtKEMExb2n5awOF5bjiZO2ZKeE9k76ArW/JI2ceuqp0zgkl5JFiL7jfslsjXAMR4YHa7G5zJihnzlmr0hfExU2XZ7+EuqEdBaBVhKV/MqkvpcjwaRV5hBE7TXhISOIdLWjXBCV/I4O/y603KSwwgorpGKQw+8x9BYSwplYaEfef//9MZFCVsm+t8KmvRGNU2lW8J2JiiM04VtgIkOckGjtLEqEzYsKoi02MfazuEe507FEi82mLoClqCs+YsgJwkpjq/4XUoK4Kmrqfipc+uKLLyb4FSKVsI+WhfMzB1hCC7bUUkulY3HuRXL5TTWTX8l8pgK3/kiD1wt5wvqaqKSeEn9KgUA7iIoLNVAsv/zySbui4GDZxAAl50pekGygBG5BVIa/a3Bj6oGjDNRFLUZMTBL3SQwo/5J8JiYsERgmBqY5YfIizypT3iMyNB152Lz95NIhyM2KK66YEgEOf2W1bSEqiFZHm5iCGl2h13a2cm7lviy44IIpqqcIx3NhwEgIoaVDMu+6665URgPZXG655bKll146OWqfffbZiSjm95vZB2FGchAVCxA+ZjJUaxvz7plnnjmgGalRdPNSH85VlizLjV5L3xEV6lGmAJ7/VkdFDWCN3oDYbzQC7SIqzmay2WuvvZJJRRK2soT4Uv2avEwuBrrcvl3dR4KoVCMy9mfaDs6lVrRFVavmK2SSMlkpc5FPQFa/CkDKDpz7Pph8KovIITUqcsvxo8CliBO+EnmmY61HahBo5MKkUgSx0OY89bpEgwOR3rGR651PJn0J3CRHK6okSW6KVc/La+GFFx6D6YwzzpiwlnGaJouGRRbZvJ8gNiLN3GfaFsR0xx13HNNPaH6YkCSHLFJcuzGF2Yu2plul74iKFav0yIrFWdUMNhl06w3t1na3k6jkGHFgo441scgS20mxqlKR2Up8OHV9EJXB7xRtBrW8Sb8ZX4TqMwhxZ4KTwZT5cNSoUUk9b9GjJowJRoV4jrr6FZNy7tB47bXXJgLi/vJt4MQvSsPEhazoe3xLTGa0acowFGGiyK+BBsjkqW8xTfSyvPbaa2M0SXxBihYhwAjQMsssk/yAFEW1wGDWQ0ItMDizVhMV95NPC79I5FZpDhoPz7L7z9dl2223bUnUFqIsTYMFkP6HFHWb9B1RyTUq1G9WGSHlQKATRMWVc2xU34PDqkGm3YI456teNWZy1fJQ7Qii8ml0hGTuvPPOKRxdREWrNKWiOWhqkAlaE74o3hEXE4FJSLgw8nLggQemiYhZgIlAeLmVPkGoRKKZNExwwugdu1ViJW+8m3TSSZOTZa/kFqrECyHjm4MQtipjLy2VRUUehIEAKBRIg6cPIpwDERXtRGqZIo0ztFuICvLLAZbjq/6TO1pXXldR/7Mg0PwwT3VLFub82vuOqOQXzgs8iEqORuffO0VUXLnVzhFHHJEGCquadiXOEubIJGCAQpxrlSAqYyNlxei+wZFZpZUCe0RFeGuleSZ3sq0MXdUORMR3VPAKWeYh5WeccUbKe8Lhli8F58oiNUCDYUCLDCeO5b0kxg/mDeG5rTZxMd2svvrqCT7nhWf++YQTThiUqFiEWBDl5khtFQlG+KvwYWp1H+DwKyKIWaqbNCt9S1TOO++8IColGqk6SVRyGKxsqcjbkYfA6o+62EuIYj0SROXTaHFS5PfBb6CV5g2RGYiKEFIEiSpfyOodd9yRJqzBJhorZUQlJwhW3hK00WzoCyJHcn+GT19d89/QJFu109zQADCR9JLAkVaLWU6+oVYkPUM0OOOLGswJBn8lpiBRZTQmtHnKd1SbfmBtf6SG6wEzEJ8lfim0G4iK34yDrRJkmc8OXyrtox3qFgmi0i13qsfbWQaiAmL2ZhWJOUjScpiMihaDmUFK6GAj2psgKgPfEStE+UNgS0NWqfEYORwHsQAAIABJREFUeI/6v0VUqM9pUOTK4GvCzIS4mGhqJSqcuBErIptsK4mKCVKILo2DFX8v++W5Dwih0H4EsEiRR4fpztjAD4kmVs4SPkdMP/yLmPTkWWECZOqrJJ/6p5B0Pmhy7OgvXjQs/FRouwR5OIdkcEUKXEaMGJEWYjR43SZBVLrtjvVoe8tCVMBr4slTUm+88caFrc5eeeWVMdlDTXKNShCVoZHL7f1rrbXWmIRbQ+9R+6/CTE2Eq666avItyolsPvEMR1RMGKLOTFg0AERoc6uICk3TnHPOmV7+7wex2KA54I9j0s/vURHXTvvpuO63CsZeBBHk65bnzpH6QD+pjOyiweArRLOBpOqfzD+SvOXCNMOHROh7EYKsqwfF5CS9vrD1bpS+JSrCyKxoQ8qBQJmISo6IpGsc85hn/N+MWN1Z5Vl5NZsyPYjK8HfCqlUODWYaJr2iBBGZdtppM5WrKyNz+KxYHVeuoCvPyfTDeVadJpObDKlMBQRR4QRatNqfRlCb+EH1mqmnEtvB/nf9zDK0HkVN/HygYCqiqDLzMPMNEsPkRJsiiZtxgzaLBgthkAbBPoiIPoC0GA8shs4666zkZMtsxYdkuMi/wa658nu+UciQKLjcibvy9276v2+JCs/rPOFSN92wXm1rGYkKrK1ANttss+ToZgVcr13XAGVQoy5GjItw9AuiUttTgAioowJ70Rk0Gc2K1Tk/hWofCLlPVOweLCcPkxH/GSYf/ahyO6tvhLhy9d1MO+V62XrrrVOftZpuhQmsmfa1c19mDiYYfiO0Wc0KcoGs0NoMJLSxzkl7IUMwsa1zM/G413nYut9oUGwnAsiLGVC6/WajskSZSb1Am/boo48O1NSu+q7viIpVENWwHAZu4v7779+Xq42y9dKyEpUcJ5MLr/zVVlut5v6C5CDDQhKL9HeRjpu9WS6GkOER4Dholapicp7SfPi9it1CGnP3DYmoFtoWIc7NpE3Pj2lVbyVvbOPgG5IlbYpFgueQj06RpqBa8KVRscBp13ldI1OPqNZeqWPXd0RFZ6G+pQp1E+UuaKSSai0dNLapHYGyExVXYhIQFSS0z+pnKGEqEj1kNVd0FArzAh8JJoOQ2hCQrVbCMwSP+aXXxGSocOW4446bzEq9MkEVeZ+YV5hBOMsP5ktU5PnafSzaHrWDaBA59faS9B1R6aWb10vXYqVrEilj/Z1KnHnuy9lhMFD4q9oUZMKQI0PkCZNRtYmg8liN/u+cbN+VPhKNHquf9mMKUjrBZC7lfa8sUGhrhBxbReuTrUp21wt9hdlFzhphzJU+Jt1+bRZG/LH4OjXrA1dGLIKolPGu9GGbrAD5ExQdUtgqKIUkIiNqduTZJNmi81o9rUjf3apr6bfjXnrppckhdokllkjhoN18/bnTsCiiXpygWnFvkHzEjlMs0383EzsWAmONsYiDdzclcavn3gZRqQet2LZlCNBEdJtIlS6yRAIlavcFFlgghRtyiAspNwIckhEVvisKzHWj5GHYolqKjhjqRjzqbTPC6v7LKsuptduEtjYPw2bW6mXpa6LCuU3NDol8QjqPQDsdzoq6WuYEdV046tGmNJLArai2xHHqQ0DOi7333js5SSsm2C2mIBoBfY4JS5Kxfo7qqe+Of3prpiAFaqeeeuquck4X1SOSScqDfsiP09dERRp9jpGDhZp9ulvHN61AgOlEyB8v9Ty3RCvO08pjClkNn5FWIty6Y0tfzj+KhqUydLR1Z2z8yMKg5eHgi6A4XkjzCMgC+/Wvfz2ZghSQrAwdb/7oxR9BBWcLI/lXqmtLFX+2chyxr4mKpG/qbRSVDKgct7T7WmFykINC3H9otwa+f2zR8mzoqwana665JoW0Drx1fFsvAkxBIqlMAMKZyyiSdvGr8OrGNOhlxLSyTRz5aVaWWWaZllayrjxnPf8z9SAnktipFdVP0tdERQVlmQGDqHS+y0tyJI142VcznUKKev/EE09MkymCLfslh8A8qVSn2tVL5+VUybmSSUXCriKS8xWBz4cffpgczRGUAw88MFtuueVS6Lu6MCHFIiBdBaIii7BnrCzCvMNhWo6cfjD1VOMeRCWISnWf6Mhn2RM5pgZRGRx+zrtSYucFy6wAqYFDikVAojQ1WBZZZJGOZ/WkbVx00UXTJKUQHrGyVsGXj0LZTVXF3pn2HI3vkvB1xJDvkkrHnRRRPZJNevb71U0hiEoQlU4+g2POHURlDBSD/iN76Z577jnm9yuuuCLVCBnzRfxTGAISgokGkS+nU2TwoosuShOUWj0KWlYKX6511lknhaWGr0olMsX9LzEgU5C8K48//nhxB67xSLIYb7HFFuken3rqqW3LbFtj89q6WRCVICpt7XCDnSyIymDIfPL9I488kkrI599ceeWVqRxE/jnei0VASvu8irbkfe1yXJTAjenJit7KfjAnbVFKzH8TTzxxhrSGFI+AsG9lMySIu/jii4s/wSBHZNJV/0kphMhAnWV9TVR0PN7z3Vr6epA+3pVfB1EZ/rYZsKywONbKOyOPxrHHHtvXK63hUWt+C6GgJgwTRxFVbYdq0RNPPJGij2acccaaa/UcdNBBidQcd9xxQx06fmsQAURRUUvmF4S1laYgz7acKHm6g3419VTfqr4mKlZLnKaKqlpaDW58rh0BZdKpWAdbPdZ+pN7cEi6HHnpoytViMuOnsummm6aQbrV/QlqLgMXMRhttlE000UTJqbm6dEIRZ+ckTTuyyiqr1J2ADGk1ke6+++6fKutQRNviGFmqgEyzIrFjKxxaESApGvQxpDPy43zS6/qWqPDoRlLYoCX84e0d0hkEpH0WEupeCLvs1lwqrUYvz95r1VUp+feV38X/xSNg4hAWarXLP6So1a7oop133jlpRQ4++OCGyfoNN9yQyIpKwd2SvK74u9TaIzIFufcIpTIaRQniQ7vfiiKmRbWxk8fpO6JiZbTVVlulAl5Yq7DYxRdfPNX+kKU2pP0I3HjjjalY3Pbbb5/tt99+LVevt/8K44y9hIB6VPIvSRZ52223NXVpQoxFF4ngQTSaFfV+OIBywC1LeHWz11TG/ZlcaT5oQJqtVH366acnktqrVZ2LuH99RVT4QRhg1GaprJwpJFYqbdVH5VH4xz/+UQS2cYxAIBDoUQTyKtrGDCbkRgrbyeOk1syXvvSlT0X1NAObkOXpp58++8IXvpCFWbAZJIfeV8ViYey0II3kM7JoVgoh70Nh6hkc774hKkIM8wJUr7766oCIiKKwzVJLLdX1VVUHvMD4MhAIBApFQLZYmUJXWGGFmgsDyr68ww47pFW0hVErsjG/+OKL2WKLLZbNMcccHc8FUyjgJTvY66+/nvzGmK3rqZhu0Sx5GwftCC8f/qb2PFGRHCmPRT/ppJOGjZAQL28lMsUUUxSiih3+FsQWgUB9CFA1i/ToRG6H+lraH1s/9thjSVMrUkfdoKGEI7RaPdNOO23G5NlKkYdDkjCT6O23397KU/X9sVVPh7MU98jLUMLUI/uxPD3tCnkfqj3d8FtPE5X77rsv1Y+hnpNtslaxwtlxxx1Tx7PiaUStW+u5YrvRCHAIZXIL9efwPULVb34I11577fAbxxZtQUBFY4XtTFaHHHLIgGOGXCc0tmoKtct5/+OPP874fk0wwQQZjXFI6xAw38w///zJ7DaQlqSy0vpRRx3VsNN0666gvEfuSaIidHDUqFHJ9rfuuus27J2v8JsJQW0NFX5DWoeAekvCbT3sIUMjoICe8u6tXpEP3Yr4dSAELr300mzSSSfNll9++ezZZ59Nm1TW6uEL14kQfE7qEsidffbZAzU7visIAYSVVoXG5IgjjhgTKq7qtfQLFs0DkZiCTt+zh+k5okItvt5666WVCxVbs6GbVLVY8pRTTpl997vf7dmO0OkLY1MfMWJEZNis4UYEUakBpA5uwhTEfCznxnnnnZf8V6RC+N73vtfBVmXJhwJZkbysOsS9ow3rwZO775NPPnnKvWPRLJzZojmcmxu72T1FVG699dYxFSYfeuihxhAZYC8rol133TXlTzj88MMzqbVDikVAfgLhnrRYIUMjEERlaHzK8KuEfDvttFPSYqjGi4iXQUQaISvbbrttxiwU0joERF+pCA9vJKUVSQJb1/pyHbkniAofkmOOOSZ1CDUymo1rH+wWXXDBBckUtOKKK9adOXKwY8b3oxEIolJ7TwiiUjtWnd6SRrZsCQyVBKC9XHnllaN8SIs7iGAOGvkjjzyyxWfq7cN3PVExwfGe5qTWDvvrL3/5y2zhhRdOat3wESju4QiiUjuWQVRqx6rXt+R83shKHYGST0qyy8HSNfQ6du24PiY2C9sDDzywHafr2XN0NVG5+eabxzxsasW0S9RkoDpVW0OYaESqNI98EJXaMQyiUjtWvbwlB3/J4pZddtkxjrv1XO/LL7+csuJy8Hz66afr2TW2rREBjtOCMYKo1AjYIJt1JVFx83nPs/1Jh9+pVNGXXXZZ0uRIV10WG/Qg97n0XwdRqf0WBVGpHate3VLqfmn3Oe2qVTbddNNlFm71img7CS5pV4r066u3Hb26fRCVYu5s1xEVOSRUF+VFLRSw0/Lwww8nU5AEcY0MFJ1uf1nOH0Sl9jsRRKV2rHptSxPfvvvum/K1yG7LIdZ3HHflcPFbvSVA/vKXv6SQWrlWwpm92B4TRKUYPLuKqFx//fUpoyNVZztNPcNBLSpIzQamILHz9Q4Uwx2/H34PolL7XQ6iUjtWvbQl/zgRRPK0SB5XLVdffXXS8Bofn3/++eqfh/wsIGGvvfZKkY3KjYQUg0AQlWJw7AqiggjkoX677bZbacPqLrroouRkS+MTDmr1ddAgKrXjFUSldqx6ZUskBEFRv2eo0gm/+MUvUkisvC2NZC7OK/kefPDBvQJdR68jiEox8JeeqFgZLLHEEqnw10CriGJgKO4oBor55puvLbU8imt1548URKX2exBEpXasun1L+Vj44zHL0Hj8/e9/H/aSmHL22GOPpOGV3K1eDe93vvOdpFnZZZddIlBgWLSH3iCIytD41PprqYkKDYXiXbym21Ubo1bghtpO+e6tt946OfseffTRTWfHHepcvfJbEJXa72QQldqx6uYtReIsssgiyVG2kazYkrvxneMsW6+zP387Pi8bbrhh6fLAdNM9DaJSzN0qJVERxcPUo17CoYceWlpTz3C34Pzzz09plNdee+1MKGDI4AgEURkcm+pfgqhUI9J7n7/1rW8lLbKIHve7UeHXkhfKu+GGG+o6zI9//ONEklZYYYWo8lsXcp9sHETlEyya+a90ROXRRx/N5plnnpQBttO1MZoBNt/X9UgQp7ihjJAhAyMQRGVgXAb6Vv4MRQlvuummgX6O77oYAf54O++8czK9qMJci6lnuMv94IMP0jGZjxyzngRxTO/SwM8yyyyZJHEh9SEQRKU+vAbbulRERYp6qkpJjExczQiCoEqlB10In9XEb3/720EPKYmb0LzqdNc/+tGPmm6LipqbbLJJGnxoiOoZKAZtcI/9EESl9htKjY+o3HLLLbXvFFuWHgG1YfIKu63Ien3JJZektA4rrbRSXaZ0JUlkV5Wr5Sc/+UnpcSxTA4OoFHM3SkFUmHrU6Jlooomyo446quGJXPIiNRXkWjn55JOzGWecMUMSrAokh2OzJUiJlUulyDDLqx7BefDBB1OOljvuuCPZac8888zszTffzK677roMmWq0mJfzTzLJJNn6668fqtRK8LMskcF+L0oo3fZVV12VjRw5ctDXZpttlkkwqD/zPdhiiy0G3Xao45T5N6SeVqGfIufOOeectJBZddVVW3rdP/vZzxIZUtn5+9//ftVTOPhHC76NN944tVHx15DaEAiiUhtOw23VcaJCYzHnnHOmzIh33nnncO0d8ncrTWSHE64y23PMMUfa/qyzzkqEQzZHdtftttsu+b7IHUDuvffebMEFF8z222+/7Ktf/WpaqVKrb7rpptmpp56aSaxEZWp/q9hGiYpzyf7IZjzTTDPVNVCkhvbwn9CoZClxF/IhpTlCMhCZMIn7zaShfw60TS3fNbOv4w/WvlrOPdQ2jvvlL385ETEagF4Xi7TNN988+eMZY+qN0GkEH1rjbbbZJo2V9VSDN+luv/32KQLp8ssvb+TUfbdPEJVibnlHico3v/nNFEJXlLMp0w4CcPvtt2fnnntuNu+88yZTjqghZEPoMLOLkL+PPvooRePQlAj742HvO3kK+JIYJBEYwmy0wAILFIN4lmXvvfdeWglbFZ944onZv/71r8KO3a0HCqIymqhI1tXvOSyYGuaaa670DHZrf66l3Q888EDy/0BMf/jDH9ayS6HbCENmamcKeumll2o+tv5p7DruuONq3qdfNwyiUsyd7whREb5rZSgN/vHHH19Y+C6iwtxDNYmoqAwqUZIQPxOhwlBISa5JASHSgpDYzjZssJzG5G5ZbbXVsldeeSU9xPfff39mYGH6YToqQpiUmJusIA3O/SxBVEYTFaSaGbKV8r///S89C7SDzz77bMYcUI9w5lWUs1XZoS0eepmoMPFJrCaqUfivMaZTwi9m7rnnzkaMGJEWZLW2w/jKOVd0psk4ZGAEgqgMjEu937adqNx3333JEdBAZOIvUph+kB++JPxBmH6QjSuvvDKdRpiflYAESrkw48gku+6662aPPfZY8lH56U9/mok4sh+CYkBHYDj5eqAN7kUJnxgJ4qyq+jkqKIjKJ0SlHZVW9WNlHzwTiPzKK688FgFHZqRS52COyHDuZKIQZq8Yp0nqqaeeKuoxGOs4r7/+es8SlTfeeCNbb7310jh07LHHFrZIGwvAOj/w42PSQZyOOeaYmpO8GRfHH3/85HNHGx3yaQSCqHwak0a+aRtRMfCdcMIJ6QFdZ511WuJMaoBTlMukd/bZZ6dkcdVppP2uHk8uBmFEhe8IVabfOeNKMGfliKjwKbGC4OvywgsvFD640KZstNFGCZsiNUz5NXbDexCV1hAVz50VPJMnE2P+Em6aPwd8w5BlzwriYh/Ok/q9/shvgpZysskmS0SFf4uQVeZSWhWLD4kN3cMipFeJioUZ7YUX37yyCb8+pqDVV1+95ntp3FR5WVTQu+++W7ZL6nh7gqgUcwvaQlRE2HBSNdBxdG2VYPWqGTMBIRVWLEiAaCCrBipWZh6v//znP6kZzEC5KUg0Dmc+q5785UGccsop26LtuPjiixNGnA2rw6RbhVlZjhtEpTVExUBpUtTnaQU5k/s8/fTTZ1/5ylfSd6Lc+GHRsOyzzz6JmNA0KoAnw7LIIkRkySWXTKREaDRSw4SLVHzjG99IJLuoPBu9RlQQRdGMMr0aB+FWVqFVFligVpCox1pEUjkaYfmiIrHl2IgFURkbj0Y/tYWocB41yGHrrVxJIEQeMqYdg/Lyyy+fkmLRrjABGUhpT7xyopID57MskAZlmpRco2JgR2CsHlstsIGRyA/Eqp8kiEpriIo+JLKEL4IaMLmItOMgbiDN5W9/+1v+byIgfueDQNvCgZKjr2eBCUhhPM81YQoSdl+Un1UvERWLJsECTM4WT90gxh73mFlHrSAatuHEIvALX/hCIiwWiyGjEQiiUkxPaAtR0VQkggOeB1YYcBEZF6shcA6Dq5BiWhTnopq+9NJLU7Ii27MPC82rFkRl6aWXTg8okkIFLv+Kd6tNx2yVHZZqXSI47YVRv2lT3IsgKq0jKvCVkn3RRRdNTuPMQCLikPqcgJ900kmJIHtuiCgQZEa/pNannZRdWZ4PvimSf51xxhlpW9EjiAon2CKkV4gKnzNmEUSPCbnbhPbbfeW/V4vDL+K61lprpX3UCgpp7TPdT/i2jajkoKp/wxGP817RakJEgu1csrfXXnstTfxWflZ8s802W7LTe+g4jlULokKTQf0t0ZQHU/scB3mg7hYhVLQY3Ndcc82kFu6WFVfRGDheEJXWDmr69wYbbJCczaVUlwGVLwKHWaH4tIwml1zrou9zeD/ggAOSJoU/C98KzwPi73nIE7L5zIkdwShCup2oWEVLPMnUYzyBd7cKsyCiJUGcPFLDiWuXrI9jbivN/MO1oyy/h0almDvRdqKi2VZkwn/lPGmkKuhAl24gNukLT6amZjeloeDoZ+UnDPj9999P5iDhwExD+erR8ezPPKW0uc5Fy5G/dtxxx0SAbFOkePARKFoghKqfJYhKa4mKvsU3wspe1BqNyP777598JvTv6rIOiIqaW3xUaGJMvBYBnMlpJSX8kk1VYkTRcbQtNJpFSDcTFaYeJmfjTZ4JuwhMHKMWE0xR56o8TqUpSEBELXmfJJIz/p5yyimVh+q7/4OoFHPLO0JUNJ32Y4899kidWaRNs2YV5hLhcrvvvnsmkRwSYJC9/vrrU+4TLF9SJU5tzmu7ynBgAzXyJOOnVYQB3cv/u+66a2YwL4qoeNA5J+amntzWX8wt7c6jBFFpPVERvi93j8UB50dOsOphcYJk5qwU9wNRkQxMbhfOs0ocfP3rX0/RQJIqyinEQd7ETNtSlHQrUYErAsisxieoUZGyQJRVJXmkFaYNrpUM8jey+Ckq55NrEfk4+eSTJw1w5SJvsOvU14xxwu07RbIGa1u7vg+iUgzSHSMqefNFulAbc8RqNj9JM0SCZz5Nz0APIH8a2pUihEmJHZejWm7jL+K43X6MICqtISqid/ihIOYrrLBC8lHRV5AO/ifERCIKSGRQLiZEE6bJERFRg4h2kqbSqvqee+5Jzwqzkf5cVqLiua50Es6vr8h3GNPiMnfAuVYyMVgb4M35PxfXIIcTkjBYfR6kptLvj48R81yu1TFhvvPOO02PY/oEAktzPVhb8nZ71z/yBVlRY2jl8cv+fxCVYu5Qx4mKy5C3hH+I1YgBsVfFQM/Uwz/gkUce6dXLbOi6gqi0hqgg30yschdVak1oVPifEBOh/5krRHvk2gBmDFpGx7jwwguTZqWyIF2+ShYZxOesKClCo8LMJWkjM1UlASuqjflxYCpaUDivRVezAutpp502JcOEr3sjASUiiHQgMQM5LcthgjBK0EeY7hwHUSBMdnyO8t/Tlw3+Ed0lszgCgrQOJ7R22sIpe6CF4HD7d/PvQVSKuXulICouxaqHzZyjLTNLs6agYuAp5ihWO5wRrbjkUei30ONaUAyi0hqiYqC0CjbpeckLlCdeFMlTKcw58qggCkwGnM7zic52cgyZKAkHUStqvis0opxyi5IiiIpjcOakhXBdrZArrrgipRNQqsNiqwjhuM80TUQnCg9GMvfcc8/0nZplohOrQ8ERlXHGGScTvUUQFVoPbSSeL8SiyIUgHyXkVhkATtZDCTMUcszPCQHuFwmiUsydLg1RyS9H+nt2bx26F7QOBsw8ZTYbb8jACARRaQ1RqUab+t9kt+WWWw64Ms+3lzKfw3mlMGlIhJiLxcSoUaOSw2SREXFFEJW8jSb1Si1Q/n0z70w9u+22WyqoikAUtajiY/e5z30umcDVHjOx03AxA+X40rDQZojEoR3JfVD4uSENQsUJzUVlsIL7Nt5446XIrmauvXpffUQwAG04jfFQok0CFpgZFYglyDPSK8eVBHPNmO+HOnenfguiUgzypSMqLkvuEjZZD17liq6YS27fUX7wgx+kekMe5OpBv32t6I4zBVFpD1GppTeYPPJszbVsX/Q2OVFpdvVv0jMxFklUTLBMPUwZ8isVKcK8EUiaCtmwaVcEATgPrRithGgrmmc1efyea3LkfqKxlaNK7ihEkzmKxst+nKFpVHKflSLbjSQJfXf+4WoFMclx0FZrinZPX6P54tA9UNqIItvZiWMFUSkG9VISFZfGXKKKrFwEVKDdlItAVM+JJ56YBgaZbvNVTzG3rDePEkSlPESl0z0sJyq0NZzPOYbW8tKHvHLtw0BEhfYj366WY9qGGUW2an46CIScM806/g+GsYlNLSWaGhGHsgobT5hLpFfIs2ZX749YcnA2+TMDyQ5LyyECkhaNxkLElt9bIQiHPFDwMeYN5EeTn5fTLy2z6CjjuohNjt2IV69JEJVi7mhpiUp+eQqmUWHyNOdUVnbxgHJqy+3FHuCQ4REIohJEJe8lTASed7lZOJGqgl7LSyST7YwZZCCiwlySb1fLMW0jQ68xiEZCkrxWCZOStAUck2lKkJRnnnkmaUmMfQqoIiCcl4X+VgrTTmVRQGRPm5mQckF4EBrmo1YJTQ6c1JFyvsEEWUGi8qSBSGmvEhU+TMq6hDSOQOmJikuzmmAKKntIr1o9Blbe9QaVkNoRCKJSTqJCVW8CrRYr9FYtHEy6niMaACYL5KKWl0nZdrlj50BExViSb1fLMW0jP4qkdtojpTyH1cocJ9XYNPpZ22hBaFScT52xPLyXVoemiCM+InDIIYeMdRoTvYrYCAqpdqb13emnn54it1rlzC8MXj0oVbdF+tSySMtx5ODdi0QFMUQsmfNCGkegK4iKyzPoSFAlKmirrbYaa/XQ+OUXs6cHkqlH20RGVHvkF3OW3j5KEJXWEpXq1a3VutBaDpDnnXdeSnQo2q4yF4dBVnkHfhK5ICgmVE6eNBNMERIjVoY+59s2+p6bforIWs2ZtjKxY6Ntyvcz2ef1b1oRaotg5JoRph7jCvN3bvo2DkpnX52DSQQXn5S8TthARAUZmGiiiQYknvn1NfrOz8SxJQdkLqtXepWomBs8U0xAIY0j0DVEJb9Eal0aC4MkG26nxeqNI5lVjsKFIY0hEESltURFKDFHTbW2VBM34Zoc+AaYDEWkibjLa/24i8wP+rV9+HbQGIpKoeVAajyDtjGRVoc6N9YLRu+VE5VmHOldx2OPPZbCh2WjZpKtZYVfS7s5ttIaSKgm23VRos20VEwisnXLyyKtAQIgqzCyYhEk5Lo6HNy9VAAxnxCEiAw0AAAgAElEQVSRKJ8ryZ7xCZnJtRhFtBuZ5cCrn3DybTS5Xq8SlSIwjmNkWdcRFTfNw6peDz+Q448/vmMhbSJ52LCpqYcLzYvONjQCQVRaS1QQEZoAk6wVu5V3tZal+g7xl0BMTJ40KFNMMUWKxGM6kYFVv6dJYZLNw2Krj9HI5yKICmdXGXfV7uIfIKKmSN8MY5CsvSZoY1ARwv+ERkKWW9FFSACsnUPoMkdYyet8rq6hkwcePPDAAyl7sEgnaR6QNNmEvYSli6Qc7r7Xei0ijZjkkZ9mI7Roy3sx6qdWLGO7oRHoSqLikqwKPKwGyY022miMunToyy3mV+pXNmErHbWBWmXzLaa13XGUICqtJSrq8tAAMCfUIjQoCy64YPI1kPqcQyAtiuRjNCprr712mvRoFCQxFJnHJFSEFEFUimjHcMegoeHUKj8JvxL+PM0IIsUkVylSHOy1115jSJZtaB/4g1QKzZaoJKY4Dqo0MDRKiKTIKS9+EvwlitAsqaWGCAn/RoKaFWHNyHAuCFkv5NHKryfem0Oga4lKftm0GpIf0WxIGNRqMRjxaM9XNUhLSPMIBFFpLVHhQyB3hZWvSYCzt2fHS8p8DqK0D3nyMvk2clJiYuRUatKzijYRcpZkVvC/vEe2l/69COkWopJfK20q7ZLoIP46vSzGO7lZkDNhyLlPTKPXzEGYGYsvEXMabZLEgnLHyFUj5DokEOh6ouIWUmV7aJCH4447boydtujba0AS+69eT5G26aLb2Y3HC6LSWqJitc2Mg2DIdGq1bfVOG8h/Q7ZQhUFzZ1r+Icwnojg4iOdi4vC9Z86+/jepVGsC8u0bee82ouIa5SpZf/310xjEx6RIM1MjGLZiH9co/wlNiv5UhNCM08S55/xqkF6mKVo8GhZjOt+pbpQifYG68fqLbHNPEJUcEMycY5+BOI/Pz39r9l0yI1E90ld7YEOKRSCISuuJCtMPQsFvoTKvA1MOE+pAGhFEhbmAyEDKgZYZSf0cpIcJwGRC41KUdCNRce0mJn49xomRI0eOidQpCpdOHocWTkp/r3YFMcAzL1VQFDFqB4acoiXs85xxVhdVp+aS56joeakd11OGc/QUUQEoJzTViWk9ikidjeVTgRuMqcBDWoNAEJXWEhU+AIrUMe0gHAgIYsJhU3I1E2y1+E0RwpyoGGSZOETemYhpMflCSJ2OtBQl3UpU8uuX/8T4o15Zq3LN5OdqxztHbERWdGNlrad2nNs5mJq6afzlAySqbtddd03mUoEffIc8g5yjQ+pHoOeICgiopHm4iwoSMkeN2IjwwmfqmXnmmSOqpxEA69gniEpriQqHc6ad3JGSGVMCMzlSmHby7ytvWU5UVFS2AODHgqhcf/31ydGWiUP0i0mkyArF3U5UYCiXiAzVsKGN7UbheP21r30taak7vUijlaCpMq4PlICwbPhedtllKdKMDw7tCu2QtACV4eJla3OZ29OTRCUHnLrQas+qkC29HpFzQCgfu3OYeupBrrFtg6i0jqjQoMipUVm9m1OsmjWc0JH53Del8u4hKquuumq2xBJLZIcffnhKnCa/h+eKiZXJiK+WsNI8IVnl/o3+3wtExbWbnKj/jUEm2FojrhrFrcj9RPJYpNHCMe+VQW666aak2aGhKLK/teLa+Hh5TrRTKL/FMmL/ve99rxWn6/lj9jRRcfdUDlXtVMSDjj6cWCFaYVoJCUHuRae44TDoxO9BVFpHVEyWCAfbOcdFJBzhUGUXCZfpeZlllknfU1HnK1ZOjSrdIjm5bV2CQ9tKHkfjeMABB6TQZA61RUXA9QpRyZ8jEz1TkHBvmJdd+FPwRZIjpZEss628Pk7gSgUIi+6EGarWa+OzRaviWaKRJN/61reym2++udZDxHYVCPQ8UXGtVotU3FSH2G1eXbUCh/QvJ7G8AFmRquzq88TnTyMQRKU1REWSMLl+kAo5OWQ7lRSs2hwqoRgndAnH8hU0cxA/FqHMyIP9ERxZaHMNjEyoHHNNHiI2ipBeIyowQfQUGzQGMWOUUfJJ1SJNErecnJatrcLkaQIXWGCBwnL3FHmNnglmVc+FZ00OIikA+Hp5fopKuFdkm8t+rL4gKvlNoHYTWkeVXb2yMXgw9ciR0ooaHnkb4n1gBIKotIaovPDCC2nlKf9PLSHEnGMH0ozQtBhsaWUGEiQl18QM9Hs93/UiUXH98JEtFxEwkTWabr4eLGvdVsI4JNX4SJMsIIHmTOh6GcUYvdRSS6WweiS8TGIRQHsvUopvl3lHjSw1pyyAmVRD6kOgr4gKaGR01MGlA+eBzX4vsyavdl7ZAw3S9UEaWzeCQBCV1hCVRu5Fp/fpVaKS46rukrw1zBdM050WiTKZxjlbm1AJYspxeuGFF06VmDvdxoHOz+dn9dVXT2M5jWBI7yLQd0TFrcR4lUlX3IstdqaZZooMiB3u40FUPiEqsnP2s/ATM0k2U5Sw7PjRQDEFWSBdfvnlHWmulb2ih9qw3XbbfUrDwx+JXw1zOE1bGYUZRUZlEZ6VzuJlbGu0qXEE+pKo5HCxF6rXw0ErpLMIBFEZTVTkN1GNlmZP1Ei/vVz3yy+/nLLoFlnosLO9e+Cz82XYY4890iQr50ZevmDgrYv9lulkzTXXTCRF2OxgwtlaMAIfpGeeeWawzTr+Pb8pJrWiCkQWeUEDhf4Xefx+OFZfExUrNiF43RQ22KudMohKlmzX/ATUOBGlI+qi315Cpk2MJh3RJ/0gIqZEVql3U5RD8lC4/ehHP0pJ/pRUqKXwH/8m5nJkZaDsxUOdq52/nX/++anfyFtSlmhNGp/DDjusY1qzduLfynP1NVFRSE1WznCebWUXq+3YQVSylHSNv4BquQZb7/32ct1eMuU2W424tp5Xjq0QFD4inFmFtbZKZEwVeSQFQz35oRQKRJ759tVCblrV/uGOy+9QwUSJ6opy7h7unEP9Tmu22GKLped4qO3it6ERCKISRGXoHtKmX4OotAnoOE1pEVCJGDGlTWomo/ZAF4j0yZfTjHkEWVljjTVS6HKZSwMo5zD11FOnHECdjlpCVGhJRXuFNI5AEJUgKo33ngL3DKJSIJhxqK5GgHOtPCaS7Ym+aVZEOqo7pKBgniOn0WMKqZbCYZJJJsmYkMoqwoIFSrhuWZg7JUFUikG+r4kKm+Zcc80Vpp9i+lJTRwmi0hR8sXOPIaDkB58VpiA+LI2KBH+OwWxTVCZXUZObb755MiExVZZVRI/RZkw55ZSZxIedkCAqxaDe10RFSmMOZZ1WDxZzK7v7KEFUuvv+ReuLR4ApaJtttknmGmnYTXq1Cv8MYbtMPfbNMwnXuv9w2wlt3nrrrVPNp1pKkwx3vFb9rtaO6KapppoqZVZu1XkGO24QlcGQqe/7viYq1Ko33nhj4Q9xfbcgtoZAEJXoB4HAwAgwBcn5ZMIVuj2cyHkiRwtNwnXXXTfc5k39riQJMtRKB+CmGpiNDvtHqrRTDZ52ShCVYtDua6JSDIRxlCIQCKJSBIpxjF5FQK6nRRZZJGWQtbgaTGg3OJIKJ64uEzLYPs18L0cIR1GRNmWtYeT65CPiqKydp512WjOXXNe+QVTqgmvQjfueqEQynkH7Rlt/CKLSVrjjZF2IwJ/+9Kds2223TZoBCc4qTUFMMXnSM9sMVpOpVZct0RqNhTpBZRYkRTtpgpCXVksQlWIQ7juiIhEQ9alViRVAFIgqpiM1e5QgKs0iGPv3CwLGLaYg1a6FHf/hD3/I1lprrfQdv7tOiQy34447bnbooYeWJuHaQFgwh0088cTZyJEjP1U2YKDtm/kuiEoz6H2yb98RFZkCVbPkUb/BBht8gkT811EEgqh0FP44eZchoJihgoGzzjprCsOdb775UnXrTl+Gsgc0FkcddVRKYJi3Jy8JkX/u9LvQ6pzs0VS1SoKoFINs3xEVsNGqWJWomhxSDgSCqJTjPkQrugcB2pQtttgi22STTUoVucixVlVjkUaea+RFBJJK9WUSuVbkllGy4dVXX21J04KoFANrXxIV0FGRBlEpphMVcZQgKkWgGMcIBMqBwHPPPZeq1D/66KPJr2b++efP/vjHP5ajcRWtkAxOpW5pKp544omKX4r5N4hKMTj2LVEJjUoxHaioowRRKQrJOE4gUC4Efv7zn2crrLBC6TQqOUrvvvvumNIARSewC6KSo9zcexCV5vCLvQtCIIhKQUDGYQKBkiGgLtDyyy9fWqICLmaqPLlekVW7g6gU0xmDqBSDYxylSQSCqDQJYOweCJQUgW4gKjl0csKMM8442VlnnZV/1dR7EJWm4Buzc98SlW9/+9vZpptuOgaI+KezCARR6Sz+cfZAoFUIdBNRgcEJJ5yQIpeOOeaYpiEJotI0hOkAfUlURP1IjsRuqiZGJH0rpjM1c5QgKs2gF/sGAuVFoJqoMLMUXXuo6Ku/4IILsvHHHz/bYYcdmmprEJVi7kzfERWVP08++eRsnXXWSXbT3XbbLXvllVeKQTOO0jACQVQahi52DARKjQBn2pVWWin78MMPUztVNTbuvvDCC6Vut3IEE044YfblL385JdVrpLFBVBpB7dP79B1RoT1BVmhVCI1K/v+n4Ylv2oVAEJV2IR3nCQTah4CQ5IsuuiibfvrpM5oVqf1lA5dJd4455sgUhi2zyLWinQsttFD20ksv1d3UICp1QzbgDn1HVAZEIb7sOAJBVDp+C6IBgUDhCFx55ZUp2dvmm2+e7bnnntn999+fzvHaa69liy++eMqq+/TTTxd+3iIP+Nvf/jabd955U76V559/vq5DB1GpC65BNw6iMig08UM7EVB/ycpFeYOQQCAQ6H0E1ChaZZVVsqmmmippW8p8xbLqrrjiinW3NYhKMXe1r4nKm2++mT388MNjVSEtBtY4Sr0ISGE900wzZVdffXW9u8b2gUAg0KUI8FtZe+21EwFQf6fM8sEHH6S2qhF0yy231NTUICo1wTTsRn1NVC688MJswQUXzDh3hXQOgb/97W/Zdtttl0IC1d2gXQkJBAKB/kCAzwrTkGKGt912W6kv+t///ncyZWnrN7/5zWHbGkRlWIhq2qCviYp6P2o80KyEdAYBzmpLLLFENvXUU2fnn39+ttxyy2XTTTddduONN3amQXHWQCAQaDsCqtpvu+222QQTTJCJtim7HH/88YlYHXbYYUM2NYjKkPDU/GNfExVJ3+aZZ57srbfeqhmw2LA4BC699NJs0kknTeTkmWeeSQcWJbDVVlulQeCAAw7IDGAhgUAg0B8IqLJMW3HNNdeU/oKNX7LY7rjjjoOOU0FUirmNQVSCqBTTk+o4CjLi4bZ6OuSQQ1K4YvXul1xySTbJJJNka665Zvbiiy9W/xyfA4FAoEcR2G+//RJZufjii0t/hbQ/E000UTZy5MiMCbtagqhUI9LY5yAqQVQa6zkN7sXUo6w6x9nhVLwSRTELycFw6623NnjG2C0QCAS6DQELGJoV5uCyy49//ONsyimnTFFB1dr5ICrF3L0gKkFUiulJNRyF8xktiUqq8qbUIh999FH2ta99LQ1aBi8J+kICgUCg9xFQ5gRZOfPMM0t/sU8++WQ211xzpcRwlblWgqgUc+uCqARRKaYnDXEU+RJE9Yw33nipxpKHt14599xzkz/L6quvnr3++uv17h7bBwKBQBciMGrUqERWTjrppNK33rhkESZ8OU9sx8dOgICqzCGNIxBEJYhK472nhj0feOCBtNKYffbZs9tvv72GPQbf5Kmnnkorls9+9rPZzTffPPiG8UsgEAj0DAI0KjQrRVQzbjUof/7zn7MNNtggm2yyybK77rornU7x2yAqzSHf10SFs5bUyO+//35zKMben0LgP//5T3bqqacmr3gJnd54441PbdPIFzJEbr/99mngOuKIIwb1tm/k2LFPIBAIlBMB1YyRFY623VDtfvfdd09OtuaY1VZbLTv00EPLCWyXtKptRIVHtEkGKWAK6PRL5ImJVB4VobE+d7pNsIFR2UugD9e3XcNGG22UKo+ecMIJmSRJRcvZZ5+dBgJRQY0UCyu6PXG8QCAQaC0CV1xxRTbuuOOmyssWPsZrY2bZXjLYGgN32GGHNEZxtN1///0Lb69z1PJq7V1pz9HbQlTY7kwo8803X8oEKxtsp1+f//znUzQJli6XiuqYnW6T88NIWfGiNBDt6UafnOWee+5JUT0I4E9+8pNPfmjBf4899li26KKLZrPMMkvmvCGBQCDQ2wgw+U488cQZ868xfIEFFijla+GFF05FF/nlmWPUMyq6vfPPP39Wy+s73/lO13eKthAV5b1Fe0jmYyXM5liGlyiU0047LTvrrLNK0Z5zzjkn22mnnZLTqBpE3SScxmhPPJSbbbZZ24jWn/70p3Q+5x0sJ0s34RhtDQQCgaERWGedddLC0lxi7DaOl/Glfcq0GBfNMz4X1U7X7XjDvfgGiprsdmkLUfnZz36WVr1yaIQMjcAjjzySVguPPvro0BuW6NdXXnklacwkcDvllFM60jLlEGSJNIhFVFBHbkGcNBBoCwLMytLthwyPwPrrr58iLoffstxbtI2ozDzzzJkIkJChEVBBlCmjW4jK3Xffnc0222xJrdlpLRBCzIRnFXHnnXcODXT8GggEAl2JgKiaLbfcsivb3u5GC2QQfNDtEkSlZHewW4gKU89BBx2UnNtUPuXYVgbhFL311lsnE9Rxxx03YHr+MrQz2hAIBAKNIRBEpXbcgqjUjlVmpRsaldoA6wai8qtf/SqTeI2pRWHHMoqILhECa6yxRpiCyniDok2BQIMIBFGpHbggKrVjFUSlDqzKTlRuueWWbMSIEcmjvezmKf4+oqjmnHPO7L777qvjLsSmgUAgUFYEgqjUfmeCqNSOVRCVOrAqK1H561//mu27777Z+OOPnyKTBqoUWsdltm3Td999N2OaEiYos2U3JItqGzhxokCgCxEIolL7TQuiUjtWQVTqwKqMROXXv/519sUvfjGFTV9yySV1XE15Nj3jjDOS38pXvvKVTJRSSCAQCHQnAkFUar9vQVRqxyqISh1YlY2oXH755cnUs9hii2W//OUv67iS8m2qHDtTkCilvGhY+VoZLQoEAoGhEAiiMhQ6Y/8WRGVsPIb81G5n2n/+85/ZO++8k9okIdiLL744ZPvyH0WuvP322/nH7IUXXsj+8Y9/jPk83D8ffvhh2sf5G5WyEJWPPvoo23vvvZND6gEHHJA1YuqBw1tvvTVWCv0cTyYYkUP1iFT50lM3I6KCNtlkk0zOF1FBrUjv30z7Yt9AIBAYGoGyEJX//ve/aZ5R18y4JsigHnnzzTdbXv4jiEodd6QIoqJyrggTZGA4uemmm1Jej9/97neZapYrrbRSdvTRRw+3W7bPPvtkK6+8cqbjkWuvvTZbZZVVsqeffnrQfU3gJuO//OUvmUJU0iS/+uqraUJFlmgh6qndUwai8sQTT6RyAtNOO2121VVXDXrtw/3AP0TlUIQgF/dGiQCJ4SQjGij3yne/+90x5PL//u//MpmNn3322WyJJZbIDj/88PxQDb8bYEQFyWa77rrrZr///e8bPlbsGAgEAu1FoJVExXh96aWXptpvw12VbaWwp6k1Z/CF22abbWpe/Dz33HPZUkstlVkINrO4HaqdQVSGQqfqt0aIikmeJsSkQtQrMLHkrPU3v/lNUt8jCJViYlt66aXTpOa8Jjh5Nb70pS9ljz/+eCY7LqdK2gIkJhcEaIYZZkgdzUT95JNPZj/84Q/TOaUgRpSk/f/GN76RSEm+n/YwJZj4Tj/99EyVT+dRh2aPPfbIJp988kxba5VGiIprrIcMDdUW1T6VKIdhPe0e6JgwhU1lefYrr7wyYarsuWJdDz744Kd2Peyww7K55porQ3QU3ZpxxhlTGmr1gzzUBgUPeb0ameoTSUDomGo9/eAHP6j+OT73AAL6cKsmgR6ApysvoUiiYoyhOc8XpxZm5hnjC9F/EBEa5mqRdG6mmWZKEYUWsxZR6rXZ3vxx7rnnpgy6NCc0yF7ms/zleOYN4w9tfv49rfHPf/7zQvptEJXquzbE50aIyg033JAmkTwElq8EdX1erE8nmGaaacYQl/z0ainoaIpXMeMgDIssskh2/vnnJ82H9OpCVRXMq5zcL7roomyOOebIkBQTP60Ip0sdTmd1Xp3HxPrxxx/np0u/OZ9OqoMxLdCwOPeOO+6YKghXk6kxOw/wTz1ERfgtLQ5W77zNiAdRtU8YH3zwwWNdY73H9dB7OJFChENmxGuuuSb7/ve/n91+++3pO+QlL1zIQddgkYuHXnZZhE+GWYTm6quvThl7pc624tl4440Tecz3afQdIVabSDSTehwRFdQokuXa74477sg23XTTpDHLzY3lamG0plEEiiQqNLzGmoceeig1hxbdeG4MJ/k888wzz4zV3LvuuittN2rUqLSgor2njTd25uO/hZDFrrHZfGAsu/fee9N3vlcNmrbZ4g25MfZ7P/bYY1O/LSKlQhCVsW7b0B8aISo6zBRTTJFIg6MjKhNNNNGY5F00FzQgJsRckBKmBtup/UILgrBMPfXUmRW8CRBjZuLJO6J9rcyZFZiICGZLM2OA8z8/Bsx7oFpFSIzJXZZW0TGYuBdNi0mVdqJSc5O3dbD3eojKa6+9ljQ4tBbN+G4wrUg9P/3002e33XbbYE2r+XsrWCRDen3kD6mgjeKQq4q2yqJHHnlktvzyy2d77bVXqoCMIFZKTu48aApwIT+zzjprduihhzatSak8T/4/TZkByvlyMpz/Fu/dh4DnUl9hug2NSvfdv6FavOGGG2ZbbLHFUJvU/Nt1112X5pk8UMC8I1FkPq+YZ2h0LVxz8T+yNOmkkyYNr3mGc75F2ciRI9M8c+uttyatfX5c4xcNs7nGfOJlzphwwgmT6dnvXsS7BVP+OT9vI+9BVOpArRGiYgVuJf3888+nMw1EVGS7zTuUFfmuu+6aXXbZZalS84033pgmb53IdswyJvP/197dvMhRvHEA/wkKelFBbyIKQRCEoHhREDGCEdGDBMGQiyCigiB6UCFIIIovl0BEVDDkFAh48phrrhL/AYPiPaAHL0oI9I9PQS2dTu9u92zvTM/s94He2enpl+pvVdfzreelSgfGSoOIVKFQKSnxCgQBsA/LVnaWFARHw+oG5laiolP0m+82/7Mk7CdRUVb3stT5ohaVb7/9tjy7GVzbVo2KzV4+WWkeeeSRQhpdhysMzsiLkYQMHGSudgLqRBlYirj6ECiWLmSRIKaffvpp+R+RUU9TilGO0dWhQ4e2RlhTXj/XWi4CLHiIcftdX24Jcrf9QGBKoiIejp6pFpM+omLttdpHcUULG6Bn7NeP0Sss9YcPH27efvvt8p01nu4w/9R2wvpi8sw2kZ6CnLTvF6LSRmOX/xchKoiJEbQG4XyVynKhYVFg7777blF6VblqaLJCmOAwYqNwbpuuRcXI3sRlteEZPWtc5gnBkgkLiIbGLWATbMlC4t4aalsQBW4DFgLX0mApUJ9vvfVWIU1jLSoPPPDAliWpfa++/xGxRVw/165dK8FfMEWypn5BlJVFStm4p5AAioOp1Eyxp0+fLpau6tpzvBdWHVoaHaFBDpFE55oHBYF4+eWXi9VHHIvYoUpU+7BZZJ+61g7uuuuu5quvvlrkEjlnJggYLYeozKQyJiwGq8VUFhV6Rn/LnUyv6MctDYKwGKjSDSaL1M+SGg4gbIAF2uCLnqkWFRmFLPf0lt/qeX2Pf+LEiaLjnMtNZHAuuNYgeyoJURmB5FiiUuMEuGcoeeYyI2wuHYqMQtMAVGg3vVSjoeQoRPe9ePFisah8+OGHpeFpEJ9//nnJOBGLIhaGX1CD1KkR96Ag3YPpznGCLb/55pvyW/vRWXzcD8vmvvAdqfH/sWPHSiMfQ1Q02vvvv7+U0fP99NNPN21eIP73mi6sjF2iwiKBVOmo+zYxIU8++WRx9yABU4v64oZDJrjdBJ1xh/HT8r8KOOOaE4gmjsAzt0WHAVMY6hCQQeQTWfGsyKY4IZaW2lba5+/1f9d1LyMtnSJfsnrowzL7+tvYKnDR5ttZZMrQJirakndnp3djFeXOPce1oSeeeKKh5Pcqte8wwGT9pVfEwulr/vjjj6J36mC3G+dkoHfnnXcWq7k2J2ZFv6Y/03+JgZSl+tJLLzWXLl26paj6b/2fQZz72ugq/V63P7zl5BE7QlRGgDWWqCAf1pRpxy1QFohKO34AIcBwq2tAkbBZjZhiNIeKBoXwiDHhHrGxpiAUfq8BtdLKuD+IRipoFmG5evVq+XS8DoWlpC0sLBSxhorQICyUvyhuDHnson3uK1MIW2d54Ipob9j/008/vYVDH1ERg8Ms2T6v/u+acPRCcKvsh6gTqcdMtMoLA/XHGvLee++VchlxcAsJ4PW8gmyreFGVTydBtAWp0oLLuLm4q4jOpUtUyw8T/UE0lQNx7KuLimk+b26jq8JDmzeKrdIlKvoBMWza5KrKmPsu3la4jG2swAjBXkXfwcornq6KNoOotGMY9f1dPUOfcFvr67l+qp5hga96hq6io/qmP9CX6VvaAbMSQSSITGklDlGpNTvgcyxRccnHH3+8ef7557dISDdGxaj9mWeeKSbAyoydZ794FFYT96X4MV5mPEyXO0asSVe4ESpRoVjNh8KaoqEZ0TMNasDtEZv7stD4nSlSIKoMEkybC4pwTbXP6d63+511B9P2wiBJzm9v7lXZvnP7iIqXxXHiZLqbcgkKFj/DYiCIdGplDxeBY8gaC4hsGuXhnmNaFUxrZCt2SCfBxeJ7FfXmJUb8iJWaEUnXEzgshRo5NRqZ8qWu99fBMOEKltOWkF510cUy329tX6vERBvT9qt0iYq+gcLZ7t1YZdlz7+Ft6ciRI2XKiVrPi3l/InEAAAnvSURBVH7qpyRQ6F+q67sbo+IYQf8Gv+0BsT5Tto6QBDrGpt+q28mTJ4trerv4qKNHj5ZAb22yihhLfeNOcS312KGfISpDkWqaUnmUEqU+VMzjYURbpUtUNCxzo7BmdMVoHolhruMiqJvvGp1ra4BtaRMV8RNSmtvCuoPN6+iqIDH2STkT6MlK4Pc333yzuDkEfkpvk1GkQTPv7Sayfoz4arT4bsfr4JCBIdfuXguDp4zhOHVgqnsZaZgjABki6kHcEReaF1sgGeLEmqIsVdQ1oiKLSvQ8SwySwgLGsoL4KK+IeSOiKUUbZT0R6KsuIuuLgLZhcsHIZiFAL0wRo0IHaB9t60yXqECOFY5+6IoBr4GTfqnqGJ/0jBhK1pHqom+fy7qsHzQAagtLucF5Vze1jxn7f4jKCMSwzLFEhXKX1loFCaC82iNoqYd9DchoeLsOyn757l1xHY2EcN9wvXAjUZYsGpSnZ6iWEqY+Cl5jFBAqha27YB92TEkjPsreJjnd+9fvY9KTWSPE3rg2qwQT5VgRz2I+E+UXrzOFeNFk5RjdIipffvlluWx1ryGZ/LZIElcaEvfUU08V8sE1JK5AgK8OwozC7ZEMQiOlWfyLUQ5L2RSiTOKaYKndqd/I+iLApE4BsRqykO4HEV9fdNa75FNl/einWFPEoVWpcSLi6aqwurzxxhv169ZnneCtbRWpP+rTuCIRl7bo9wTM1kEQS62+xmY6DlaVKSVEZQSaY4kKcxkygThQRDbK3khXgKnROCuGvHWzznbFCrksIkbH4h3q5jr2q7yuMMVVoiLGgy+ZFYX7AfMVzEvpVrLhkxI1aqOUNfZXX3215NVj2h988EEJrhJPQRlz6fQ16G45xhAVLiUEiombawqxWkTE2XgRuba4ZoaUc6f76ABYm7jZKArZO9w1NXXPuQigEYRJ8RA+IyRWJMFnJkYiYmh0SuIOuPKQVZvJ+z777LPiwkOuuoFuO5Wt77ea6YOkaGfVDNx3bPatBwKsdEzzFI8BBHdpZDMQmIqo6OfoAmSFThEaYFCl7zcRnH10h+/iUbqinzegNZVFW9fQd8ooS7ESFZYVuss5NRXa9fzPhS21WSzcVAOvWtYQlYrEgM+xRIWiMwJiIVDBNkGvFFL9LgaCAkQAuiIlmbLj62tvztWolKcrMgHqNOosFSwNbeHGkAm0nYtFmQVRYeI21oRFFOgYotIu3xT/SwtGLBAHRGIvwgqCSHk5KYmKbfuaOgokQVYU/PoEjsgId5HJlxAUViRkEhk0ImlbXPqusdM+7YfrTGckUj8SBILAvBGYiqjocwwiDUSrXqFnDJTrd4NQg8G+sAV9B1eRY7p6BulhPal9E08A0tM3CDIYZnlfdKC5U22FqOyETue3sUSlc/qB+rpKogJoJM0Msiaqk5K7qaKTEutijgSuwnY22aY+c54rCGwCAlMRlU3AYrdnCFHZDaHW7yEqLTB2+XfVREXxWKtkBXEFiRlZxDK0y2Ou9Geph+JQqqtnpYXJzYNAEBiFQIjKcLhCVIZjtVDWz4jLb9ShcyAqFVDuMBO2yaBq+1Xr7+v4KfBZRo94p76JmNbxmVLmIHCQEAhRGV7bISrDsQpRGYHVnIiKYgtwldJtSnmBrOssX3/9dZnjxsvbnm9jnZ8pZQ8CBw2BEJXhNR6iMhyrEJURWM2NqCi6yHWZN1wlMnkEFq+TyGqSqqr8gtb2mtW0Ts+esgaBTUMgRGV4jYaoDMcqRGUEVnMkKrX40qDNt2KOm3VxBUkxtAaHSfRq2nN9nnwGgSCwfgiEqAyvsxCV4ViFqIzAas5ExWNIBzYRm/V56po7Ix5vqYeaFdjstebVaa/dsdRC5GZBIAhMioDVzftmJJ/0JhtysRCVERWZrJ/hYM2dqHgScw2YGI4rxWyzXCtzEuUx+Z7ymT1y6rWM5vSsKUsQOGgIhKgMr/EQleFYxaIyAqt1ICr1cczeaAFFE6Z1J8irxyz706R8li6w9lKyepaNfu4XBPYfgRCV4RiHqAzHKkRlBFbrRFQ8lonSTHtv3Z6zZ8+OeNLpD3V/E9V5Of/888/pb5ArBoEgsHIEQlSGV0GIynCstojKXEbdI4q+9EOt9WAxK/N9rItYVsBK0SaI43Kx0vEyxTT8FpXk6jl16lRcPcsEP/cKAktGQMwZl3NkdwSsPN+3oOLuZ87riP8toziU73333ddY3trqw7/99lu2HgxgY64Si1OtI6njauFyMaGaRSOXIb/88ku5n2wkazxFgkAQ2GwEXnnllebFF18sgf1Wts+2PQZWpe9bUHHdWshSiIpJw6wySQE//PDDZQE4i8BluxkD2CB0lK6FqtZRuIKOHTtWsm3OnDmzr4/w/fffl6XRX3jhhazVs69I5+JBYD4IWHFdNt9DDz1UdMiDDz7YZLsZA7oVJnfccUfz0UcfzafyFizJUoiKBeCsPmlKdsuuW3Ey260YwAZG5v7YbjXhBet56ad98cUXpTPhI7US9pRiteXjx483t912W3Py5Mmy2umU18+1gkAQmC8CViI2p5P+0me2fgzoWKvXzy0rc5GWtRSiskjBcs76I2AZdKzeZGtTuYKkuh8+fLi55557mp9//nn9QcoTBIEgEASCwI4IhKjsCE9+3CsC1tR57bXXyho7Al33Yik6f/58yS46evRo8U/vtWw5PwgEgSAQBOaPQIjK/OtoI0r43XffbS0IaHbbMXLt2rXi6pHV88knnzQ3btwYc3qODQJBIAgEgTVGIERljStv3Yp++fLlsu7O3XffPdhtIxDbBG5cPSaYiwSBIBAEgsDBQiBE5WDV98qf9q+//mpef/315vbbb28+/vjj5t9//922TD/88ENz7733Ns8++2zz+++/b3tcfggCQSAIBIHNRSBEZXPrdtZPdu7cuUJCjhw5cku8yd9//91IQZTVY62e//77b9bPksIFgSAQBILA/iEQorJ/2ObKuyDw66+/No899ljDFXThwoVy9JUrV5pHH320rM4svS4SBIJAEAgCBxuBEJWDXf8rf3quoHfeeadMf2/6fZMCPvfcc2Xm4pUXLgUIAkEgCASBlSMQorLyKkgBIPDjjz82hw4dat5///3m+vXrASUIBIEgEASCQEEgRCUNYTYI/PPPP7MpSwoSBIJAEAgC80AgRGUe9ZBSBIEgEASCQBAIAj0IhKj0gJJdQSAIBIEgEASCwDwQCFGZRz2kFEEgCASBIBAEgkAPAiEqPaBkVxAIAkEgCASBIDAPBEJU5lEPKUUQCAJBIAgEgSDQg0CISg8o2RUEgkAQCAJBIAjMA4EQlXnUQ0oRBIJAEAgCQSAI9CAQotIDSnYFgSAQBIJAEAgC80AgRGUe9ZBSBIEgEASCQBAIAj0I/B8peNUfhjHKJwAAAABJRU5ErkJggg==;" vertex="1" parent="1">
          <mxGeometry x="-768" y="485" width="554" height="309" as="geometry" />
        </mxCell>
        <mxCell id="u84uTU3_PnqZZj9lyCrB-146" value="Text" style="text;html=1;align=center;verticalAlign=middle;resizable=0;points=[];autosize=1;fontSize=16;" vertex="1" parent="1">
          <mxGeometry x="-360" y="36" width="40" height="20" as="geometry" />
        </mxCell>
      </root>
    </mxGraphModel>
  </diagram>
</mxfile>
